<svg width="24" height="24" viewBox="0 0 24 24" fill="none" xmlns="http://www.w3.org/2000/svg">
<path d="M0.00356118 11.2297C0.0933488 7.39974 1.35279 3.43948 4.42495 1.31641C7.43253 -0.762023 11.2606 -0.010085 14.7246 1.0565C18.1802 2.12051 21.7278 3.67972 23.1967 7.09642C24.7139 10.6253 23.946 14.7355 22.0299 18.0487C20.1846 21.2394 17.038 23.3494 13.4897 23.8811C10.0238 24.4005 6.56733 23.1924 3.96924 20.7551C1.36823 18.315 -0.081728 14.8677 0.00356118 11.2297Z" fill="url(#paint0_angular)"/>
<g filter="url(#filter0_f)">
<path d="M12 6C15.3137 6 18 8.68629 18 12C18 15.3137 15.3137 18 12 18C8.68629 18 6 15.3137 6 12C6 8.68629 8.68629 6 12 6Z" fill="url(#paint1_angular)"/>
</g>
<defs>
<filter id="filter0_f" x="2" y="2" width="20" height="20" filterUnits="userSpaceOnUse" color-interpolation-filters="sRGB">
<feFlood flood-opacity="0" result="BackgroundImageFix"/>
<feBlend mode="normal" in="SourceGraphic" in2="BackgroundImageFix" result="shape"/>
<feGaussianBlur stdDeviation="2" result="effect1_foregroundBlur"/>
</filter>
<radialGradient id="paint0_angular" cx="0" cy="0" r="1" gradientUnits="userSpaceOnUse" gradientTransform="translate(12 12) scale(12)">
<stop offset="0.120352" stop-color="#34B780"/>
<stop offset="0.210697" stop-color="#FDF535"/>
<stop offset="0.320161" stop-color="#F99E4C"/>
<stop offset="0.429286" stop-color="#F1524F"/>
<stop offset="0.519103" stop-color="#F1359B"/>
<stop offset="0.611564" stop-color="#E537A5"/>
<stop offset="0.694274" stop-color="#7B54A5"/>
<stop offset="0.78258" stop-color="#5A59A8"/>
<stop offset="0.894935" stop-color="#3390C9"/>
<stop offset="1" stop-color="#34B9F1"/>
</radialGradient>
<radialGradient id="paint1_angular" cx="0" cy="0" r="1" gradientUnits="userSpaceOnUse" gradientTransform="translate(12 12) scale(6)">
<stop offset="0.120352" stop-color="#34B780"/>
<stop offset="0.210697" stop-color="#FDF535"/>
<stop offset="0.320161" stop-color="#F99E4C"/>
<stop offset="0.429286" stop-color="#F1524F"/>
<stop offset="0.519103" stop-color="#F1359B"/>
<stop offset="0.611564" stop-color="#E537A5"/>
<stop offset="0.694274" stop-color="#7B54A5"/>
<stop offset="0.78258" stop-color="#5A59A8"/>
<stop offset="0.894935" stop-color="#3390C9"/>
<stop offset="1" stop-color="#34B9F1"/>
</radialGradient>
</defs>
</svg>
