<?xml version="1.0" encoding="utf-8"?>
<!-- Generator: Adobe Illustrator 24.0.1, SVG Export Plug-In . SVG Version: 6.00 Build 0)  -->
<svg version="1.1" id="Слой_1" xmlns="http://www.w3.org/2000/svg" xmlns:xlink="http://www.w3.org/1999/xlink" x="0px" y="0px"
	 viewBox="0 0 28.5 37.2" style="enable-background:new 0 0 28.5 37.2;" xml:space="preserve">
<style type="text/css">
	.st0{fill-rule:evenodd;clip-rule:evenodd;fill:#FFFFFF;}
	.st1{fill-rule:evenodd;clip-rule:evenodd;fill:#FFFFFF;filter:url(#Adobe_OpacityMaskFilter);}
	.st2{mask:url(#path-1-inside-1_1_);fill:#E9E9FF;}
</style>
<g>
	<path class="st0" d="M249.8-8.8c-2.4-11.1-12.1-19-23.5-19H52.5c-11.3,0-21.1,7.9-23.5,19l-5.6,26c-2.4,11.1-12.1,19-23.5,19
		h-307.6c-13.3,0-24,10.7-24,24v60c0,13.3,10.7,24,24,24h1872c13.3,0,24-10.7,24-24v-60c0-13.3-10.8-24-24-24H278.8
		c-11.3,0-21.1-7.9-23.5-19L249.8-8.8z"/>
	<defs>
		<filter id="Adobe_OpacityMaskFilter" filterUnits="userSpaceOnUse" x="-332.6" y="-28.8" width="1922" height="174">
			<feColorMatrix  type="matrix" values="1 0 0 0 0  0 1 0 0 0  0 0 1 0 0  0 0 0 1 0"/>
		</filter>
	</defs>
	<mask maskUnits="userSpaceOnUse" x="-332.6" y="-28.8" width="1922" height="174" id="path-1-inside-1_1_">
		<path class="st1" d="M249.8-8.8c-2.4-11.1-12.1-19-23.5-19H52.5c-11.3,0-21.1,7.9-23.5,19l-5.6,26c-2.4,11.1-12.1,19-23.5,19
			h-307.6c-13.3,0-24,10.7-24,24v60c0,13.3,10.7,24,24,24h1872c13.3,0,24-10.7,24-24v-60c0-13.3-10.8-24-24-24H278.8
			c-11.3,0-21.1-7.9-23.5-19L249.8-8.8z"/>
	</mask>
	<path class="st2" d="M255.4,17.2l-1,0.2L255.4,17.2z M23.5,17.2l1,0.2L23.5,17.2z M249.8-8.8l1-0.2L249.8-8.8z M29-8.8L28-9L29-8.8
		z M52.5-26.8h173.8v-2H52.5V-26.8z M24.4,17.4l5.6-26L28-9l-5.6,26L24.4,17.4z M-307.6,37.2H0v-2h-307.6V37.2z M-330.6,120.2v-60
		h-2v60H-330.6z M1564.4,143.2h-1872v2h1872V143.2z M1587.4,60.2v60h2v-60H1587.4z M278.8,37.2h1285.6v-2H278.8V37.2z M248.8-8.6
		l5.6,26l2-0.4l-5.6-26L248.8-8.6z M278.8,35.2c-10.9,0-20.2-7.6-22.5-18.2l-2,0.4c2.5,11.5,12.7,19.8,24.4,19.8V35.2z M1589.4,60.2
		c0-13.8-11.2-25-25-25v2c12.7,0,23,10.3,23,23H1589.4z M1564.4,145.2c13.8,0,25-11.2,25-25h-2c0,12.7-10.3,23-23,23V145.2z
		 M-332.6,120.2c0,13.8,11.2,25,25,25v-2c-12.7,0-23-10.3-23-23H-332.6z M-307.6,35.2c-13.8,0-25,11.2-25,25h2c0-12.7,10.3-23,23-23
		V35.2z M22.5,17C20.2,27.6,10.9,35.2,0,35.2v2c11.8,0,22-8.2,24.4-19.8L22.5,17z M226.3-26.8c10.9,0,20.2,7.6,22.5,18.2l2-0.4
		c-2.5-11.5-12.7-19.8-24.4-19.8V-26.8z M52.5-28.8c-11.8,0-22,8.2-24.4,19.8l2,0.4c2.3-10.6,11.6-18.2,22.5-18.2V-28.8z"/>
</g>
</svg>
