<svg width="1920" height="188" viewBox="0 0 1920 188" fill="none" xmlns="http://www.w3.org/2000/svg">
<mask id="path-1-inside-1" fill="white">
<path fill-rule="evenodd" clip-rule="evenodd" d="M1319.39 42.9884C1317.02 31.9146 1307.24 24 1295.92 24H1122.08C1110.76 24 1100.98 31.9146 1098.61 42.9884L1093.05 69.0116C1090.69 80.0854 1080.91 88 1069.58 88H24C10.7452 88 0 98.7452 0 112V172C0 185.255 10.7451 196 24 196H1896C1909.25 196 1920 185.255 1920 172V112C1920 98.7452 1909.25 88 1896 88H1348.42C1337.09 88 1327.31 80.0854 1324.95 69.0116L1319.39 42.9884Z"/>
</mask>
<path fill-rule="evenodd" clip-rule="evenodd" d="M1319.39 42.9884C1317.02 31.9146 1307.24 24 1295.92 24H1122.08C1110.76 24 1100.98 31.9146 1098.61 42.9884L1093.05 69.0116C1090.69 80.0854 1080.91 88 1069.58 88H24C10.7452 88 0 98.7452 0 112V172C0 185.255 10.7451 196 24 196H1896C1909.25 196 1920 185.255 1920 172V112C1920 98.7452 1909.25 88 1896 88H1348.42C1337.09 88 1327.31 80.0854 1324.95 69.0116L1319.39 42.9884Z" fill="white"/>
<path d="M1324.95 69.0116L1323.97 69.2204L1324.95 69.0116ZM1093.05 69.0116L1094.03 69.2204L1093.05 69.0116ZM1319.39 42.9884L1320.37 42.7796L1319.39 42.9884ZM1098.61 42.9884L1097.63 42.7796L1098.61 42.9884ZM1122.08 25H1295.92V23H1122.08V25ZM1094.03 69.2204L1099.59 43.1972L1097.63 42.7796L1092.08 68.8028L1094.03 69.2204ZM24 89H1069.58V87H24V89ZM1 172V112H-1V172H1ZM1896 195H24V197H1896V195ZM1919 112V172H1921V112H1919ZM1348.42 89H1896V87H1348.42V89ZM1318.41 43.1972L1323.97 69.2204L1325.92 68.8028L1320.37 42.7796L1318.41 43.1972ZM1348.42 87C1337.56 87 1328.19 79.4152 1325.92 68.8028L1323.97 69.2204C1326.43 80.7557 1336.62 89 1348.42 89V87ZM1921 112C1921 98.1929 1909.81 87 1896 87V89C1908.7 89 1919 99.2975 1919 112H1921ZM1896 197C1909.81 197 1921 185.807 1921 172H1919C1919 184.703 1908.7 195 1896 195V197ZM-1 172C-1 185.807 10.1929 197 24 197V195C11.2974 195 1 184.703 1 172H-1ZM24 87C10.1929 87 -1 98.1929 -1 112H1C1 99.2974 11.2975 89 24 89V87ZM1092.08 68.8028C1089.81 79.4152 1080.44 87 1069.58 87V89C1081.38 89 1091.57 80.7557 1094.03 69.2204L1092.08 68.8028ZM1295.92 25C1306.77 25 1316.14 32.5848 1318.41 43.1972L1320.37 42.7796C1317.9 31.2443 1307.71 23 1295.92 23V25ZM1122.08 23C1110.29 23 1100.1 31.2443 1097.63 42.7796L1099.59 43.1972C1101.86 32.5848 1111.23 25 1122.08 25V23Z" fill="#E9E9FF" mask="url(#path-1-inside-1)"/>
<mask id="path-3-inside-2" fill="white">
<path fill-rule="evenodd" clip-rule="evenodd" d="M1073.39 42.9884C1071.02 31.9146 1061.24 24 1049.92 24H876.082C864.758 24 854.976 31.9146 852.611 42.9884L847.054 69.0116C844.69 80.0854 834.907 88 823.584 88H24C10.7452 88 0 98.7452 0 112V172C0 185.255 10.7451 196 24 196H1896C1909.25 196 1920 185.255 1920 172V112C1920 98.7452 1909.25 88 1896 88H1102.42C1091.09 88 1081.31 80.0854 1078.95 69.0116L1073.39 42.9884Z"/>
</mask>
<path fill-rule="evenodd" clip-rule="evenodd" d="M1073.39 42.9884C1071.02 31.9146 1061.24 24 1049.92 24H876.082C864.758 24 854.976 31.9146 852.611 42.9884L847.054 69.0116C844.69 80.0854 834.907 88 823.584 88H24C10.7452 88 0 98.7452 0 112V172C0 185.255 10.7451 196 24 196H1896C1909.25 196 1920 185.255 1920 172V112C1920 98.7452 1909.25 88 1896 88H1102.42C1091.09 88 1081.31 80.0854 1078.95 69.0116L1073.39 42.9884Z" fill="white"/>
<path d="M1078.95 69.0116L1077.97 69.2204L1078.95 69.0116ZM847.054 69.0116L848.032 69.2204L847.054 69.0116ZM1073.39 42.9884L1074.37 42.7796L1073.39 42.9884ZM852.611 42.9884L851.633 42.7796L852.611 42.9884ZM876.082 25H1049.92V23H876.082V25ZM848.032 69.2204L853.589 43.1973L851.633 42.7796L846.077 68.8028L848.032 69.2204ZM24 89H823.584V87H24V89ZM1 172V112H-1V172H1ZM1896 195H24V197H1896V195ZM1919 112V172H1921V112H1919ZM1102.42 89H1896V87H1102.42V89ZM1072.41 43.1972L1077.97 69.2204L1079.92 68.8028L1074.37 42.7796L1072.41 43.1972ZM1102.42 87C1091.56 87 1082.19 79.4152 1079.92 68.8028L1077.97 69.2204C1080.43 80.7557 1090.62 89 1102.42 89V87ZM1921 112C1921 98.1929 1909.81 87 1896 87V89C1908.7 89 1919 99.2975 1919 112H1921ZM1896 197C1909.81 197 1921 185.807 1921 172H1919C1919 184.703 1908.7 195 1896 195V197ZM-1 172C-1 185.807 10.1929 197 24 197V195C11.2974 195 1 184.703 1 172H-1ZM24 87C10.1929 87 -1 98.1929 -1 112H1C1 99.2974 11.2975 89 24 89V87ZM846.077 68.8028C843.811 79.4152 834.435 87 823.584 87V89C835.379 89 845.569 80.7557 848.032 69.2204L846.077 68.8028ZM1049.92 25C1060.77 25 1070.14 32.5848 1072.41 43.1972L1074.37 42.7796C1071.9 31.2443 1061.71 23 1049.92 23V25ZM876.082 23C864.287 23 854.096 31.2444 851.633 42.7796L853.589 43.1973C855.855 32.5848 865.23 25 876.082 25V23Z" fill="#E9E9FF" mask="url(#path-3-inside-2)"/>
<mask id="path-5-inside-3" fill="white">
<path fill-rule="evenodd" clip-rule="evenodd" d="M827.389 42.9884C825.024 31.9146 815.242 24 803.918 24H630.082C618.758 24 608.976 31.9146 606.611 42.9884L601.054 69.0116C598.69 80.0854 588.907 88 577.584 88H24C10.7452 88 0 98.7452 0 112V172C0 185.255 10.7451 196 24 196H1896C1909.25 196 1920 185.255 1920 172V112C1920 98.7452 1909.25 88 1896 88H856.416C845.093 88 835.31 80.0854 832.946 69.0116L827.389 42.9884Z"/>
</mask>
<path fill-rule="evenodd" clip-rule="evenodd" d="M827.389 42.9884C825.024 31.9146 815.242 24 803.918 24H630.082C618.758 24 608.976 31.9146 606.611 42.9884L601.054 69.0116C598.69 80.0854 588.907 88 577.584 88H24C10.7452 88 0 98.7452 0 112V172C0 185.255 10.7451 196 24 196H1896C1909.25 196 1920 185.255 1920 172V112C1920 98.7452 1909.25 88 1896 88H856.416C845.093 88 835.31 80.0854 832.946 69.0116L827.389 42.9884Z" fill="white"/>
<path d="M832.946 69.0116L831.968 69.2204L832.946 69.0116ZM601.054 69.0116L602.032 69.2204L601.054 69.0116ZM827.389 42.9884L828.367 42.7796L827.389 42.9884ZM606.611 42.9884L605.633 42.7796L606.611 42.9884ZM630.082 25H803.918V23H630.082V25ZM602.032 69.2204L607.589 43.1973L605.633 42.7796L600.077 68.8028L602.032 69.2204ZM24 89H577.584V87H24V89ZM1 172V112H-1V172H1ZM1896 195H24V197H1896V195ZM1919 112V172H1921V112H1919ZM856.416 89H1896V87H856.416V89ZM826.411 43.1972L831.968 69.2204L833.923 68.8027L828.367 42.7796L826.411 43.1972ZM856.416 87C845.565 87 836.189 79.4152 833.923 68.8027L831.968 69.2204C834.431 80.7556 844.621 89 856.416 89V87ZM1921 112C1921 98.1929 1909.81 87 1896 87V89C1908.7 89 1919 99.2975 1919 112H1921ZM1896 197C1909.81 197 1921 185.807 1921 172H1919C1919 184.703 1908.7 195 1896 195V197ZM-1 172C-1 185.807 10.1929 197 24 197V195C11.2974 195 1 184.703 1 172H-1ZM24 87C10.1929 87 -1 98.1929 -1 112H1C1 99.2974 11.2975 89 24 89V87ZM600.077 68.8028C597.811 79.4152 588.435 87 577.584 87V89C589.379 89 599.569 80.7557 602.032 69.2204L600.077 68.8028ZM803.918 25C814.77 25 824.145 32.5848 826.411 43.1972L828.367 42.7796C825.904 31.2443 815.713 23 803.918 23V25ZM630.082 23C618.287 23 608.096 31.2444 605.633 42.7796L607.589 43.1973C609.855 32.5848 619.23 25 630.082 25V23Z" fill="#E9E9FF" mask="url(#path-5-inside-3)"/>
<mask id="path-7-inside-4" fill="white">
<path fill-rule="evenodd" clip-rule="evenodd" d="M581.389 42.9884C579.024 31.9146 569.242 24 557.918 24H384.082C372.758 24 362.976 31.9146 360.611 42.9884L355.054 69.0116C352.69 80.0854 342.907 88 331.584 88H24C10.7452 88 0 98.7452 0 112V172C0 185.255 10.7451 196 24 196H1896C1909.25 196 1920 185.255 1920 172V112C1920 98.7452 1909.25 88 1896 88H610.416C599.093 88 589.31 80.0854 586.946 69.0116L581.389 42.9884Z"/>
</mask>
<path fill-rule="evenodd" clip-rule="evenodd" d="M581.389 42.9884C579.024 31.9146 569.242 24 557.918 24H384.082C372.758 24 362.976 31.9146 360.611 42.9884L355.054 69.0116C352.69 80.0854 342.907 88 331.584 88H24C10.7452 88 0 98.7452 0 112V172C0 185.255 10.7451 196 24 196H1896C1909.25 196 1920 185.255 1920 172V112C1920 98.7452 1909.25 88 1896 88H610.416C599.093 88 589.31 80.0854 586.946 69.0116L581.389 42.9884Z" fill="white"/>
<path d="M586.946 69.0116L585.968 69.2204L586.946 69.0116ZM355.054 69.0116L356.032 69.2204L355.054 69.0116ZM581.389 42.9884L582.367 42.7796L581.389 42.9884ZM360.611 42.9884L359.633 42.7796L360.611 42.9884ZM384.082 25H557.918V23H384.082V25ZM356.032 69.2204L361.589 43.1973L359.633 42.7796L354.077 68.8028L356.032 69.2204ZM24 89H331.584V87H24V89ZM1 172V112H-1V172H1ZM1896 195H24V197H1896V195ZM1919 112V172H1921V112H1919ZM610.416 89H1896V87H610.416V89ZM580.411 43.1972L585.968 69.2204L587.923 68.8027L582.367 42.7796L580.411 43.1972ZM610.416 87C599.565 87 590.189 79.4152 587.923 68.8027L585.968 69.2204C588.431 80.7556 598.621 89 610.416 89V87ZM1921 112C1921 98.1929 1909.81 87 1896 87V89C1908.7 89 1919 99.2975 1919 112H1921ZM1896 197C1909.81 197 1921 185.807 1921 172H1919C1919 184.703 1908.7 195 1896 195V197ZM-1 172C-1 185.807 10.1929 197 24 197V195C11.2974 195 1 184.703 1 172H-1ZM24 87C10.1929 87 -1 98.1929 -1 112H1C1 99.2974 11.2975 89 24 89V87ZM354.077 68.8028C351.811 79.4152 342.435 87 331.584 87V89C343.379 89 353.569 80.7557 356.032 69.2204L354.077 68.8028ZM557.918 25C568.77 25 578.145 32.5848 580.411 43.1972L582.367 42.7796C579.904 31.2443 569.713 23 557.918 23V25ZM384.082 23C372.287 23 362.096 31.2444 359.633 42.7796L361.589 43.1973C363.855 32.5848 373.23 25 384.082 25V23Z" fill="#E9E9FF" mask="url(#path-7-inside-4)"/>
<g filter="url(#filter0_dd)">
<mask id="path-9-inside-5" fill="white">
<path fill-rule="evenodd" clip-rule="evenodd" d="M1565.39 42.9884C1563.02 31.9146 1553.24 24 1541.92 24H1368.08C1356.76 24 1346.98 31.9146 1344.61 42.9884L1339.05 69.0116C1336.69 80.0854 1326.91 88 1315.58 88H24C10.7452 88 0 98.7452 0 112V172C0 185.255 10.7451 196 24 196H1896C1909.25 196 1920 185.255 1920 172V112C1920 98.7452 1909.25 88 1896 88H1594.42C1583.09 88 1573.31 80.0854 1570.95 69.0116L1565.39 42.9884Z"/>
</mask>
<path fill-rule="evenodd" clip-rule="evenodd" d="M1565.39 42.9884C1563.02 31.9146 1553.24 24 1541.92 24H1368.08C1356.76 24 1346.98 31.9146 1344.61 42.9884L1339.05 69.0116C1336.69 80.0854 1326.91 88 1315.58 88H24C10.7452 88 0 98.7452 0 112V172C0 185.255 10.7451 196 24 196H1896C1909.25 196 1920 185.255 1920 172V112C1920 98.7452 1909.25 88 1896 88H1594.42C1583.09 88 1573.31 80.0854 1570.95 69.0116L1565.39 42.9884Z" fill="white"/>
<path d="M1570.95 69.0116L1569.97 69.2204L1570.95 69.0116ZM1339.05 69.0116L1340.03 69.2204L1339.05 69.0116ZM1565.39 42.9884L1566.37 42.7796L1565.39 42.9884ZM1344.61 42.9884L1343.63 42.7796L1344.61 42.9884ZM1368.08 25H1541.92V23H1368.08V25ZM1340.03 69.2204L1345.59 43.1972L1343.63 42.7796L1338.08 68.8028L1340.03 69.2204ZM24 89H1315.58V87H24V89ZM1 172V112H-1V172H1ZM1896 195H24V197H1896V195ZM1919 112V172H1921V112H1919ZM1594.42 89H1896V87H1594.42V89ZM1564.41 43.1972L1569.97 69.2204L1571.92 68.8028L1566.37 42.7796L1564.41 43.1972ZM1594.42 87C1583.56 87 1574.19 79.4152 1571.92 68.8028L1569.97 69.2204C1572.43 80.7557 1582.62 89 1594.42 89V87ZM1921 112C1921 98.1929 1909.81 87 1896 87V89C1908.7 89 1919 99.2975 1919 112H1921ZM1896 197C1909.81 197 1921 185.807 1921 172H1919C1919 184.703 1908.7 195 1896 195V197ZM-1 172C-1 185.807 10.1929 197 24 197V195C11.2974 195 1 184.703 1 172H-1ZM24 87C10.1929 87 -1 98.1929 -1 112H1C1 99.2974 11.2975 89 24 89V87ZM1338.08 68.8028C1335.81 79.4152 1326.44 87 1315.58 87V89C1327.38 89 1337.57 80.7557 1340.03 69.2204L1338.08 68.8028ZM1541.92 25C1552.77 25 1562.14 32.5848 1564.41 43.1972L1566.37 42.7796C1563.9 31.2443 1553.71 23 1541.92 23V25ZM1368.08 23C1356.29 23 1346.1 31.2443 1343.63 42.7796L1345.59 43.1972C1347.86 32.5848 1357.23 25 1368.08 25V23Z" fill="#E9E9FF" mask="url(#path-9-inside-5)"/>
</g>
<defs>
<filter id="filter0_dd" x="-24" y="0" width="1968" height="220" filterUnits="userSpaceOnUse" color-interpolation-filters="sRGB">
<feFlood flood-opacity="0" result="BackgroundImageFix"/>
<feColorMatrix in="SourceAlpha" type="matrix" values="0 0 0 0 0 0 0 0 0 0 0 0 0 0 0 0 0 0 127 0"/>
<feOffset dy="3"/>
<feGaussianBlur stdDeviation="3"/>
<feColorMatrix type="matrix" values="0 0 0 0 0.45098 0 0 0 0 0.298039 0 0 0 0 0.74902 0 0 0 0.1 0"/>
<feBlend mode="normal" in2="BackgroundImageFix" result="effect1_dropShadow"/>
<feColorMatrix in="SourceAlpha" type="matrix" values="0 0 0 0 0 0 0 0 0 0 0 0 0 0 0 0 0 0 127 0"/>
<feOffset/>
<feGaussianBlur stdDeviation="12"/>
<feColorMatrix type="matrix" values="0 0 0 0 0.45098 0 0 0 0 0.298039 0 0 0 0 0.74902 0 0 0 0.07 0"/>
<feBlend mode="normal" in2="effect1_dropShadow" result="effect2_dropShadow"/>
<feBlend mode="normal" in="SourceGraphic" in2="effect2_dropShadow" result="shape"/>
</filter>
</defs>
</svg>
