<svg width="24" height="24" viewBox="0 0 24 24" fill="none" xmlns="http://www.w3.org/2000/svg">
<path d="M19.0544 6.97402C19.4258 6.97402 19.7816 6.64744 19.7645 6.26396C19.7472 5.87925 19.4525 5.5539 19.0544 5.5539C18.683 5.5539 18.3272 5.88048 18.3443 6.26396C18.3616 6.64867 18.6563 6.97402 19.0544 6.97402Z" fill="url(#paint0_linear)"/>
<path d="M19.0544 10.2722C19.4258 10.2722 19.7816 9.94561 19.7645 9.56213C19.7472 9.17742 19.4525 8.85207 19.0544 8.85207C18.683 8.85207 18.3272 9.17865 18.3443 9.56213C18.3616 9.94684 18.6563 10.2722 19.0544 10.2722Z" fill="url(#paint1_linear)"/>
<path d="M17.3562 8.61501C17.7276 8.61501 18.0834 8.28843 18.0662 7.90495C18.049 7.52024 17.7542 7.19489 17.3562 7.19489C16.9848 7.19489 16.6289 7.52147 16.6461 7.90495C16.6633 8.28966 16.9581 8.61501 17.3562 8.61501Z" fill="url(#paint2_linear)"/>
<path d="M20.7517 8.61501C21.1231 8.61501 21.4789 8.28843 21.4617 7.90495C21.4445 7.52024 21.1497 7.19489 20.7517 7.19489C20.3803 7.19489 20.0244 7.52147 20.0416 7.90495C20.0588 8.28966 20.3536 8.61501 20.7517 8.61501Z" fill="url(#paint3_linear)"/>
<path d="M10.877 5.63513H13.0988V7.05525H10.877V5.63513Z" fill="url(#paint4_linear)"/>
<path d="M4.0689 9.54657H5.48902V8.44447H6.59113V7.02435H5.48902V5.92224H4.0689V7.02435H2.9668V8.44447H4.0689V9.54657Z" fill="url(#paint5_linear)"/>
<path d="M23.977 7.73437C23.977 5.09948 21.8334 2.95586 19.1985 2.95586H4.77851C2.14362 2.95586 0 5.09948 0 7.73437V17.5015C0 19.4549 1.58921 21.0441 3.54258 21.0441C4.88454 21.0441 6.13325 20.2654 6.72374 19.0604L9.42788 13.5421C10.5257 13.3318 11.3673 12.3913 11.4249 11.2471H12.5521C12.61 12.4 13.4641 13.346 14.5743 13.5467L17.2762 19.0605C17.8668 20.2655 19.1155 21.0441 20.4574 21.0441C22.4108 21.0441 24 19.4549 24 17.5016V7.73437H23.977ZM22.5569 7.73437C22.5569 9.58615 21.0504 11.0927 19.1985 11.0927C18.5609 11.0927 17.951 10.9171 17.4184 10.5828C17.2489 9.82653 16.7312 9.20078 16.0427 8.88305C15.909 8.51657 15.8401 8.13157 15.8401 7.73437C15.8401 5.88253 17.3467 4.37597 19.1985 4.37597C21.0503 4.37597 22.5569 5.88253 22.5569 7.73437V7.73437ZM12.9177 9.82691H11.0592C10.7076 9.25981 10.1326 8.84499 9.45789 8.707C9.5235 8.38966 9.55697 8.06483 9.55697 7.73432C9.55697 6.42639 9.02859 5.23969 8.1743 4.37593H15.8027C14.9484 5.23964 14.42 6.42639 14.42 7.73432C14.42 8.06483 14.4534 8.38966 14.5191 8.707C13.8443 8.84504 13.2694 9.25986 12.9177 9.82691ZM4.77851 4.37597C6.63034 4.37597 8.13685 5.88253 8.13685 7.73437C8.13685 8.13157 8.06807 8.51657 7.93434 8.88305C7.24582 9.20078 6.72809 9.82658 6.55863 10.5829C6.02604 10.9172 5.416 11.0927 4.77851 11.0927C2.92667 11.0927 1.42012 9.58615 1.42012 7.73437C1.42012 5.88253 2.92667 4.37597 4.77851 4.37597V4.37597ZM5.44852 18.4355C5.09472 19.1575 4.3466 19.624 3.54258 19.624C2.37226 19.624 1.42012 18.6718 1.42012 17.5015V11.1302C2.28383 11.9844 3.47058 12.5128 4.77851 12.5128C5.45193 12.5128 6.10367 12.3742 6.70523 12.1084C6.94779 12.6614 7.3875 13.1086 7.93515 13.3611L5.44852 18.4355ZM8.96331 12.1665C8.38731 12.1665 7.91867 11.6979 7.91867 11.1219C7.91867 10.5458 8.38727 10.0772 8.96331 10.0772C9.53936 10.0772 10.008 10.5458 10.008 11.1219C10.008 11.6979 9.53931 12.1665 8.96331 12.1665ZM13.9691 11.1219C13.9691 10.5459 14.4377 10.0772 15.0137 10.0772C15.5897 10.0772 16.0583 10.5458 16.0583 11.1219C16.0583 11.6979 15.5897 12.1665 15.0137 12.1665C14.4377 12.1665 13.9691 11.6979 13.9691 11.1219ZM20.4574 19.624C19.6534 19.624 18.9053 19.1575 18.5514 18.4355L16.0607 13.3526C16.5996 13.0986 17.032 12.6551 17.2717 12.1085C17.8733 12.3743 18.525 12.5128 19.1985 12.5128C20.518 12.5128 21.7143 11.9752 22.5799 11.1075V17.5015C22.5799 18.6718 21.6278 19.624 20.4574 19.624V19.624Z" fill="url(#paint6_linear)"/>
<defs>
<linearGradient id="paint0_linear" x1="18.2529" y1="4.9982" x2="20.5795" y2="6.39028" gradientUnits="userSpaceOnUse">
<stop stop-color="#BD5A8F"/>
<stop offset="1" stop-color="#5B23B5"/>
</linearGradient>
<linearGradient id="paint1_linear" x1="18.2529" y1="8.29638" x2="20.5795" y2="9.68845" gradientUnits="userSpaceOnUse">
<stop stop-color="#BD5A8F"/>
<stop offset="1" stop-color="#5B23B5"/>
</linearGradient>
<linearGradient id="paint2_linear" x1="16.5546" y1="6.63919" x2="18.8813" y2="8.03127" gradientUnits="userSpaceOnUse">
<stop stop-color="#BD5A8F"/>
<stop offset="1" stop-color="#5B23B5"/>
</linearGradient>
<linearGradient id="paint3_linear" x1="19.9501" y1="6.63919" x2="22.2768" y2="8.03127" gradientUnits="userSpaceOnUse">
<stop stop-color="#BD5A8F"/>
<stop offset="1" stop-color="#5B23B5"/>
</linearGradient>
<linearGradient id="paint4_linear" x1="10.7349" y1="5.07943" x2="13.3693" y2="7.54351" gradientUnits="userSpaceOnUse">
<stop stop-color="#BD5A8F"/>
<stop offset="1" stop-color="#5B23B5"/>
</linearGradient>
<linearGradient id="paint5_linear" x1="2.73501" y1="4.50402" x2="8.67059" y2="8.05238" gradientUnits="userSpaceOnUse">
<stop stop-color="#BD5A8F"/>
<stop offset="1" stop-color="#5B23B5"/>
</linearGradient>
<linearGradient id="paint6_linear" x1="-1.53488" y1="-4.12217" x2="31.2132" y2="21.8533" gradientUnits="userSpaceOnUse">
<stop stop-color="#BD5A8F"/>
<stop offset="1" stop-color="#5B23B5"/>
</linearGradient>
</defs>
</svg>
