<svg width="24" height="24" viewBox="0 0 24 24" fill="none" xmlns="http://www.w3.org/2000/svg">
<path d="M13.7625 1.76254H4.30262C3.8732 1.76254 3.52505 2.11068 3.52505 2.54011C3.52505 2.96953 3.8732 3.31767 4.30262 3.31767H8.34447C7.49172 3.85172 6.72283 4.5076 6.06259 5.26111H0.777564C0.348141 5.26116 0 5.60935 0 6.03877C0 6.46819 0.348141 6.81633 0.777564 6.81633H4.93773C4.04063 8.33771 3.52501 10.1097 3.52501 12C3.52501 14.1996 4.22246 16.2393 5.40756 17.9099H3.20133C2.77191 17.9099 2.42377 18.258 2.42377 18.6875C2.42377 19.1169 2.77191 19.465 3.20133 19.465H6.76473C7.24956 19.9198 7.77855 20.3279 8.34447 20.6823H0.857767C0.428345 20.6823 0.0802033 21.0305 0.0802033 21.4599C0.0802033 21.8893 0.428345 22.2374 0.857767 22.2374H13.7625C19.4076 22.2374 24 17.6449 24 12C24 6.35504 19.4075 1.76254 13.7625 1.76254ZM13.7625 20.6824C8.97508 20.6824 5.08023 16.7876 5.08023 12.0001C5.08023 7.21257 8.97508 3.31772 13.7625 3.31772C18.55 3.31772 22.4448 7.21257 22.4448 12C22.4448 16.7875 18.55 20.6824 13.7625 20.6824Z" fill="url(#paint0_linear)"/>
<path d="M13.7624 5.64885C10.2603 5.64885 7.41113 8.49801 7.41113 12.0001C7.41113 14.0885 8.42453 15.9446 9.98528 17.1029C9.99958 17.115 10.0138 17.1272 10.0292 17.1383C10.0465 17.1509 10.0643 17.1627 10.0823 17.1737C11.1212 17.9148 12.3918 18.3513 13.7624 18.3513C15.133 18.3513 16.4035 17.9148 17.4425 17.1737C17.4605 17.1627 17.4782 17.1509 17.4956 17.1383C17.5109 17.1271 17.5252 17.1149 17.5395 17.1029C19.1002 15.9446 20.1136 14.0886 20.1136 12.0001C20.1136 8.49806 17.2645 5.64885 13.7624 5.64885ZM14.5399 7.2674C16.0574 7.51588 17.3375 8.4787 18.0223 9.79837L16.0087 10.4527C15.659 9.94645 15.1429 9.564 14.54 9.38442V7.2674H14.5399ZM14.9364 12C14.9364 12.6474 14.4097 13.174 13.7624 13.174C13.115 13.174 12.5884 12.6474 12.5884 12C12.5884 11.3527 13.115 10.8261 13.7624 10.8261C14.4097 10.8261 14.9364 11.3527 14.9364 12ZM12.9848 7.2674V9.38442C12.3818 9.564 11.8658 9.94645 11.516 10.4527L9.50247 9.79837C10.1873 8.4787 11.4674 7.51584 12.9848 7.2674ZM10.353 15.3698C9.49623 14.5029 8.96631 13.3123 8.96631 12C8.96631 11.7543 8.98496 11.5129 9.02078 11.277L11.035 11.9315C11.0344 11.9543 11.0332 11.977 11.0332 12C11.0332 12.6233 11.2436 13.1981 11.5966 13.6581L10.353 15.3698ZM13.7624 16.7961C12.9889 16.7961 12.2577 16.6119 11.6101 16.2852L12.854 14.5733C13.1383 14.6739 13.444 14.7293 13.7624 14.7293C14.0808 14.7293 14.3864 14.6739 14.6708 14.5733L15.9147 16.2852C15.267 16.6118 14.5359 16.7961 13.7624 16.7961ZM17.1717 15.3698L15.9281 13.6581C16.2811 13.1981 16.4915 12.6233 16.4915 12.0001C16.4915 11.9771 16.4904 11.9544 16.4898 11.9315L18.5039 11.277C18.5397 11.5129 18.5584 11.7544 18.5584 12.0001C18.5585 13.3123 18.0286 14.5029 17.1717 15.3698Z" fill="url(#paint1_linear)"/>
<defs>
<linearGradient id="paint0_linear" x1="-1.53488" y1="-6.24937" x2="34.2468" y2="18.8241" gradientUnits="userSpaceOnUse">
<stop stop-color="#BD5A8F"/>
<stop offset="1" stop-color="#5B23B5"/>
</linearGradient>
<linearGradient id="paint1_linear" x1="6.59876" y1="0.678328" x2="27.4016" y2="13.1146" gradientUnits="userSpaceOnUse">
<stop stop-color="#BD5A8F"/>
<stop offset="1" stop-color="#5B23B5"/>
</linearGradient>
</defs>
</svg>
