<svg width="24" height="24" viewBox="0 0 24 24" fill="none" xmlns="http://www.w3.org/2000/svg">
<path d="M22.6541 4.67811L22.1833 3.45457L21.3577 4.47267C21.332 4.50527 18.7211 7.6839 15.2863 8.17438C14.6343 8.26762 14.0256 8.38891 13.4373 8.52461C13.5988 5.85389 12.5087 3.30599 10.1927 0.933955L9.27774 0L8.92144 1.25917C8.9131 1.2857 8.12318 4.00494 6.11654 5.22924C3.91811 6.57483 2.51794 8.06218 1.84325 9.77241C1.16168 11.3889 1.14425 13.2087 1.79473 14.8379C2.24996 15.9555 3.13208 16.8455 4.2456 17.3108C4.35462 17.3523 4.46568 17.3883 4.5784 17.4184C4.52022 18.1744 4.58683 18.9348 4.7755 19.6691C4.36689 19.7048 3.97648 19.723 3.61109 19.723C2.60824 19.7424 1.60848 19.6056 0.647754 19.3174L0.126953 20.7426C1.25469 21.0962 2.43251 21.264 3.61412 21.2391C4.20125 21.2369 4.78777 21.2003 5.37059 21.1292C5.61981 21.5665 5.9257 21.969 6.28029 22.3262C7.50809 23.4667 9.14176 24.0673 10.8159 23.994C13.3772 23.9355 15.8506 23.049 17.866 21.4673L18.0881 21.293C20.1729 19.66 26.5081 14.6992 22.6541 4.67811ZM4.83311 15.9106L4.82099 15.906C4.07191 15.5949 3.48127 14.993 3.18429 14.2383C2.69215 12.9781 2.71556 11.5749 3.24948 10.3319C3.79985 8.93625 4.99307 7.69072 6.90419 6.52328C8.23751 5.63092 9.28219 4.36972 9.91073 2.89359C11.3939 4.54554 12.102 6.7517 11.8575 8.95823C10.1685 9.47316 8.62522 10.3802 7.35373 11.6054C6.14862 12.7931 5.27901 14.2784 4.83311 15.9106ZM17.1565 20.0959L16.929 20.2756C13.8459 22.7174 9.28304 23.1836 7.35373 21.2543C7.22614 21.1263 7.10712 20.9901 6.99743 20.8464C10.1003 20.1399 13.8823 18.3129 17.7667 14.117L16.6539 13.0867C12.8559 17.1902 9.2042 18.8671 6.28787 19.4546C6.07992 18.7464 6.01875 18.0032 6.10821 17.2706C6.33928 15.5215 7.15582 13.9022 8.4249 12.6766C9.9873 11.1135 12.3025 10.1317 15.5008 9.67538C17.8343 9.2238 19.9757 8.07407 21.6413 6.37849C24.2157 14.568 19.126 18.554 17.1565 20.0959Z" fill="url(#paint0_linear)"/>
<path d="M17.6328 11.9769L18.7919 12.954C19.1154 12.5695 19.4393 12.1674 19.7638 11.7479L18.563 10.8223C18.2529 11.2249 17.9421 11.6085 17.6328 11.9769Z" fill="url(#paint1_linear)"/>
<defs>
<linearGradient id="paint0_linear" x1="-1.39166" y1="-9.3913" x2="37.7137" y2="13.7385" gradientUnits="userSpaceOnUse">
<stop stop-color="#BD5A8F"/>
<stop offset="1" stop-color="#5B23B5"/>
</linearGradient>
<linearGradient id="paint1_linear" x1="17.4965" y1="9.98818" x2="20.9871" y2="12.0741" gradientUnits="userSpaceOnUse">
<stop stop-color="#BD5A8F"/>
<stop offset="1" stop-color="#5B23B5"/>
</linearGradient>
</defs>
</svg>
