<svg width="25" height="24" viewBox="0 0 25 24" fill="none" xmlns="http://www.w3.org/2000/svg">
<path d="M9.48811 9.14146C9.09989 9.14146 8.78516 9.45619 8.78516 9.84441C8.78516 10.2326 9.09989 10.5474 9.48811 10.5474C10.0278 10.5474 10.5206 10.3433 10.894 10.0087C11.2674 10.3433 11.7602 10.5474 12.2999 10.5474C12.6881 10.5474 13.0029 10.2326 13.0029 9.84441C13.0029 9.45619 12.6881 9.14146 12.2999 9.14146C11.9123 9.14146 11.597 8.82611 11.597 8.4385C11.597 8.05028 11.2822 7.73555 10.894 7.73555C10.5058 7.73555 10.1911 8.05028 10.1911 8.4385C10.1911 8.82611 9.87572 9.14146 9.48811 9.14146Z" fill="url(#paint0_linear)"/>
<path d="M22.1882 4.22078C20.6379 4.22078 19.3764 5.48234 19.3764 7.03259V8.55331C19.09 7.54434 18.762 6.62113 18.3936 5.78602C19.6238 3.86321 19.2939 0.810511 19.278 0.6732C19.2409 0.347967 18.9846 0.0916231 18.6594 0.0546009C18.5408 0.0410105 15.9028 -0.245326 13.9927 0.688197C13.0484 0.233151 12.0146 0.00305094 10.8941 0.00305094C9.78433 0.00305094 8.7552 0.235963 7.81371 0.69757C5.90215 -0.247201 3.24779 0.0410105 3.12876 0.0546009C2.80352 0.0916231 2.54718 0.347967 2.51016 0.6732C2.49423 0.811917 2.15868 3.92085 3.43009 5.83944C2.20929 8.63064 1.59351 12.0372 1.28842 15.0669C0.841815 19.4992 1.04473 23.1799 1.05364 23.3346C1.0752 23.7067 1.38309 23.9972 1.75565 23.9972H20.0325C20.4041 23.9972 20.7115 23.7081 20.734 23.3369C20.742 23.2104 20.9093 20.3615 20.6726 16.7338L20.6712 16.7226C23.1797 16.1311 25 13.8753 25 11.2503V7.03259C25 5.48234 23.7384 4.22078 22.1882 4.22078V4.22078ZM17.9199 1.41515C17.9437 2.16909 17.8916 3.27975 17.5869 4.20798C17.0104 3.23533 16.3165 2.35176 15.4652 1.64215C16.3579 1.41266 17.3232 1.39565 17.9199 1.41515V1.41515ZM3.86817 1.41252C4.53199 1.39134 5.49284 1.42817 6.35555 1.65401C5.48356 2.38817 4.78895 3.29742 4.22176 4.27036C3.89816 3.32873 3.84362 2.1831 3.86817 1.41252V1.41252ZM10.8941 1.40896C15.6299 1.40896 17.6579 6.58771 18.5732 11.2503H3.2671C4.18192 6.63106 6.20193 1.40896 10.8941 1.40896V1.40896ZM11.597 14.0621C11.597 14.4497 11.2817 14.7651 10.8941 14.7651C10.5064 14.7651 10.1911 14.4497 10.1911 14.0621C10.1911 13.6745 10.5064 13.3592 10.8941 13.3592C11.2817 13.3592 11.597 13.6745 11.597 14.0621ZM15.1118 22.5913H6.67633V22.4976C6.67633 20.1719 8.5684 18.2799 10.8941 18.2799C13.2197 18.2799 15.1118 20.1719 15.1118 22.4976V22.5913ZM23.5941 11.2503C23.5941 13.2966 22.1271 15.173 19.808 15.446C19.3217 15.4956 19.0378 16.013 19.2433 16.4442C19.4382 19.1412 19.3975 21.4924 19.3595 22.5913H16.5177V22.4976C16.5177 19.3966 13.995 16.8739 10.8941 16.8739C7.79309 16.8739 5.27042 19.3966 5.27042 22.4976V22.5913H2.4319C2.38644 21.0167 2.35082 16.8707 3.01722 12.6562H9.32413C8.98905 13.0297 8.78519 13.5223 8.78519 14.0621C8.78519 15.2248 9.73137 16.171 10.8941 16.171C12.0567 16.171 13.0029 15.2248 13.0029 14.0621C13.0029 13.5223 12.7991 13.0297 12.464 12.6562H19.4232C20.1946 12.6562 20.7823 11.978 20.7823 11.2503V7.03259C20.7823 6.25747 21.4131 5.62668 22.1882 5.62668C22.9633 5.62668 23.5941 6.25747 23.5941 7.03259V11.2503Z" fill="url(#paint1_linear)"/>
<path d="M6.04801 6.0153C5.87438 6.36256 6.01511 6.78476 6.36237 6.95843C6.70958 7.13206 7.13187 6.99129 7.30545 6.64407C7.45359 6.3478 7.75141 6.16377 8.08264 6.16377C8.41387 6.16377 8.71169 6.3478 8.85982 6.64407C9.0335 6.99147 9.45574 7.13206 9.80291 6.95843C10.1502 6.7848 10.2909 6.36256 10.1173 6.0153C9.72947 5.23967 8.94985 4.75781 8.08264 4.75781C7.21543 4.75781 6.4358 5.23967 6.04801 6.0153Z" fill="url(#paint2_linear)"/>
<path d="M11.9854 6.95843C12.3327 7.13206 12.7549 6.99129 12.9285 6.64407C13.0767 6.3478 13.3745 6.16377 13.7057 6.16377C14.0369 6.16377 14.3348 6.3478 14.4829 6.64407C14.6566 6.99147 15.0788 7.13206 15.426 6.95843C15.7732 6.7848 15.914 6.36256 15.7403 6.0153C15.3525 5.23967 14.5729 4.75781 13.7057 4.75781C12.8385 4.75781 12.0589 5.23967 11.6711 6.0153C11.4974 6.36256 11.6381 6.7848 11.9854 6.95843V6.95843Z" fill="url(#paint3_linear)"/>
<path d="M11.5971 19.6857H10.1912C9.80302 19.6857 9.48828 20.0005 9.48828 20.3887C9.48828 20.7769 9.80302 21.0917 10.1912 21.0917H11.5971C11.9854 21.0917 12.3001 20.7769 12.3001 20.3887C12.3001 20.0005 11.9854 19.6857 11.5971 19.6857Z" fill="url(#paint4_linear)"/>
<defs>
<linearGradient id="paint0_linear" x1="8.51542" y1="6.63527" x2="13.7124" y2="11.2955" gradientUnits="userSpaceOnUse">
<stop stop-color="#BD5A8F"/>
<stop offset="1" stop-color="#5B23B5"/>
</linearGradient>
<linearGradient id="paint1_linear" x1="-0.534885" y1="-9.38634" x2="38.7652" y2="14.1131" gradientUnits="userSpaceOnUse">
<stop stop-color="#BD5A8F"/>
<stop offset="1" stop-color="#5B23B5"/>
</linearGradient>
<linearGradient id="paint2_linear" x1="5.70388" y1="3.86759" x2="9.91146" y2="8.53116" gradientUnits="userSpaceOnUse">
<stop stop-color="#BD5A8F"/>
<stop offset="1" stop-color="#5B23B5"/>
</linearGradient>
<linearGradient id="paint3_linear" x1="11.3269" y1="3.86759" x2="15.5345" y2="8.53119" gradientUnits="userSpaceOnUse">
<stop stop-color="#BD5A8F"/>
<stop offset="1" stop-color="#5B23B5"/>
</linearGradient>
<linearGradient id="paint4_linear" x1="9.30846" y1="19.1356" x2="11.8812" y2="22.2117" gradientUnits="userSpaceOnUse">
<stop stop-color="#BD5A8F"/>
<stop offset="1" stop-color="#5B23B5"/>
</linearGradient>
</defs>
</svg>
