<svg width="24" height="24" viewBox="0 0 24 24" fill="none" xmlns="http://www.w3.org/2000/svg">
<path d="M23.2969 0.000213623H0.703125C0.314812 0.000213623 0 0.315026 0 0.703339V23.2967C0 23.685 0.314812 23.9998 0.703125 23.9998L23.2969 23.9997C23.6852 23.9997 24 23.6849 24 23.2966V0.703339C24 0.315026 23.6852 0.000213623 23.2969 0.000213623ZM14.3171 16.1382V11.0893H19.3662V16.1382H14.3171ZM16.1385 4.63409V9.68304H11.0895V4.63409H16.1385ZM22.5938 7.86171V12.9107H20.7724V7.86171H22.5938ZM19.3662 9.68304H17.5447V7.86171H19.3662V9.68304ZM12.9109 12.9107H11.0895V11.0893H12.9109V12.9107ZM9.68325 6.45546H7.86188V4.63409H9.68325V6.45546ZM9.68325 7.86171V12.9107H4.63425V7.86171H9.68325ZM1.40625 11.0893H3.22753V16.1382H1.40625V11.0893ZM6.45563 16.1382H4.63425V14.3169H6.45558V16.1382H6.45563ZM3.22763 9.68304H1.40625V7.86171H3.22763V9.68304ZM7.86188 14.3169H12.9109V19.3659L7.86188 19.3658V14.3169V14.3169ZM16.1385 19.3659H14.3171V17.5445H16.1385V19.3659ZM20.7724 14.3169H22.5938V16.1382H20.7724V14.3169ZM22.5938 6.45546H17.5447V1.40646H22.5938V6.45546ZM16.1385 3.22784H14.3171V1.40646H16.1385V3.22784ZM7.86188 1.40609H12.9109V3.22784H7.86188V1.40609ZM1.40625 1.40646H6.45525V6.45542H1.40625V1.40646ZM6.45525 22.5936H1.40625V17.5446H6.45525V22.5936ZM7.86188 20.7721H9.68325V22.5934H7.86188V20.7721ZM11.0895 20.7722H16.1385V22.5933H11.0895V20.7722ZM22.5938 22.5935H17.5447V17.5445H22.5938V22.5935Z" fill="url(#paint0_linear)"/>
<defs>
<linearGradient id="paint0_linear" x1="-1.53488" y1="-9.39092" x2="37.7696" y2="14.1062" gradientUnits="userSpaceOnUse">
<stop stop-color="#BD5A8F"/>
<stop offset="1" stop-color="#5B23B5"/>
</linearGradient>
</defs>
</svg>
