<svg width="24" height="24" viewBox="0 0 24 24" fill="none" xmlns="http://www.w3.org/2000/svg">
<path d="M22.1682 15.4789C21.876 15.6615 21.6697 15.7902 21.2746 15.8208L23.5027 9.21695H20.4388L18.4742 6.15448H15.9336V3.52948H11.9961V6.15448H8.41798V10.575H7.24044L6.77169 6.24893H5.43749V5.18571H4.03124V6.24893H2.57812V10.575H0.0968436L1.61114 15.0502C1.35023 14.9699 1.03997 14.9161 0.655077 14.9161H0V16.3224H0.655124C1.18298 16.3224 1.40512 16.4612 1.74145 16.6715C2.14265 16.9223 2.64196 17.2343 3.57309 17.2343C4.50426 17.2343 5.00357 16.9222 5.40477 16.6715C5.7411 16.4613 5.96329 16.3224 6.49114 16.3224C7.019 16.3224 7.24119 16.4612 7.57752 16.6715C7.97877 16.9223 8.47803 17.2343 9.4092 17.2343C10.3403 17.2343 10.8397 16.9222 11.2408 16.6715C11.5772 16.4613 11.7993 16.3224 12.3272 16.3224C12.855 16.3224 13.0772 16.4612 13.4135 16.6715C13.8148 16.9223 14.3141 17.2343 15.2452 17.2343C16.1764 17.2343 16.6757 16.9222 17.077 16.6715C17.4133 16.4613 17.6355 16.3224 18.1634 16.3224C18.6913 16.3224 18.9136 16.4613 19.2499 16.6715C19.6512 16.9223 20.1505 17.2343 21.0817 17.2343C22.0129 17.2343 22.5122 16.9223 22.9134 16.6715C23.2498 16.4613 23.472 16.3224 24 16.3224V14.9161C23.0687 14.9161 22.5694 15.2282 22.1682 15.4789V15.4789ZM13.4023 4.93568H14.5273V6.15443H13.4023V4.93568ZM9.82418 7.56068H17.7055L18.7681 9.21691H16.3845L14.7673 10.575H9.82418V7.56068ZM3.98437 7.65518H5.50954L5.82594 10.575H3.98437V7.65518ZM18.1633 14.9161C17.2322 14.9161 16.7328 15.2282 16.3316 15.4789C15.9953 15.6891 15.7731 15.828 15.2452 15.828C14.7173 15.828 14.4951 15.6892 14.1588 15.4789C13.7576 15.2281 13.2583 14.9161 12.3271 14.9161C11.396 14.9161 10.8966 15.2282 10.4955 15.4789C10.1592 15.6891 9.93701 15.828 9.40915 15.828C8.8813 15.828 8.65911 15.6892 8.32278 15.4789C7.92153 15.2281 7.42227 14.9161 6.4911 14.9161C5.55993 14.9161 5.06062 15.2282 4.65941 15.4789C4.32309 15.6891 4.1009 15.828 3.57304 15.828C3.49401 15.828 3.42248 15.8245 3.35577 15.8185L2.05725 11.9813H15.2794L16.8966 10.6232H21.5441L19.9213 15.4329C19.532 15.1916 19.0384 14.9161 18.1633 14.9161Z" fill="url(#paint0_linear)"/>
<path d="M15.2453 19.0642C14.7174 19.0642 14.4952 18.9254 14.1589 18.7152C13.7577 18.4644 13.2584 18.1523 12.3272 18.1523C11.3961 18.1523 10.8967 18.4644 10.4956 18.7152C10.1593 18.9254 9.93713 19.0642 9.40927 19.0642C8.88141 19.0642 8.65922 18.9254 8.32289 18.7152C7.92165 18.4644 7.42238 18.1523 6.49121 18.1523V19.5586C7.01907 19.5586 7.24126 19.6974 7.57758 19.9077C7.97883 20.1584 8.4781 20.4705 9.40927 20.4705C10.3404 20.4705 10.8397 20.1584 11.2409 19.9077C11.5772 19.6975 11.7994 19.5586 12.3272 19.5586C12.8551 19.5586 13.0773 19.6974 13.4136 19.9077C13.8149 20.1584 14.3141 20.4705 15.2453 20.4705C16.1765 20.4705 16.6758 20.1584 17.077 19.9077C17.4133 19.6974 17.6355 19.5586 18.1634 19.5586V18.1523C17.2323 18.1523 16.7329 18.4644 16.3317 18.7152C15.9954 18.9254 15.7732 19.0642 15.2453 19.0642Z" fill="url(#paint1_linear)"/>
<path d="M6.66172 12.8419C6.29394 12.8419 5.94158 13.1653 5.9586 13.545C5.97566 13.926 6.26755 14.2482 6.66172 14.2482C7.0295 14.2482 7.38186 13.9248 7.36485 13.545C7.34778 13.1641 7.05589 12.8419 6.66172 12.8419Z" fill="url(#paint2_linear)"/>
<path d="M11.5211 12.8419C11.1533 12.8419 10.801 13.1653 10.818 13.545C10.835 13.926 11.1269 14.2482 11.5211 14.2482C11.8889 14.2482 12.2412 13.9248 12.2242 13.545C12.2072 13.1641 11.9153 12.8419 11.5211 12.8419V12.8419Z" fill="url(#paint3_linear)"/>
<path d="M16.3815 12.8419C16.0137 12.8419 15.6613 13.1653 15.6783 13.545C15.6954 13.926 15.9873 14.2482 16.3815 14.2482C16.7492 14.2482 17.1016 13.9248 17.0846 13.545C17.0675 13.1641 16.7757 12.8419 16.3815 12.8419Z" fill="url(#paint4_linear)"/>
<defs>
<linearGradient id="paint0_linear" x1="-1.53488" y1="-1.83327" x2="23.9193" y2="24.8145" gradientUnits="userSpaceOnUse">
<stop stop-color="#BD5A8F"/>
<stop offset="1" stop-color="#5B23B5"/>
</linearGradient>
<linearGradient id="paint1_linear" x1="5.74473" y1="17.2452" x2="8.32384" y2="25.0085" gradientUnits="userSpaceOnUse">
<stop stop-color="#BD5A8F"/>
<stop offset="1" stop-color="#5B23B5"/>
</linearGradient>
<linearGradient id="paint2_linear" x1="5.868" y1="12.2916" x2="8.17193" y2="13.6701" gradientUnits="userSpaceOnUse">
<stop stop-color="#BD5A8F"/>
<stop offset="1" stop-color="#5B23B5"/>
</linearGradient>
<linearGradient id="paint3_linear" x1="10.7274" y1="12.2916" x2="13.0313" y2="13.6701" gradientUnits="userSpaceOnUse">
<stop stop-color="#BD5A8F"/>
<stop offset="1" stop-color="#5B23B5"/>
</linearGradient>
<linearGradient id="paint4_linear" x1="15.5877" y1="12.2916" x2="17.8917" y2="13.6701" gradientUnits="userSpaceOnUse">
<stop stop-color="#BD5A8F"/>
<stop offset="1" stop-color="#5B23B5"/>
</linearGradient>
</defs>
</svg>
