<svg width="24" height="24" viewBox="0 0 24 24" fill="none" xmlns="http://www.w3.org/2000/svg">
<path d="M10.6816 8.72432L10.375 10.4765L11.9805 9.64924L13.5859 10.4765L13.2793 8.72432L14.5781 7.48334L12.7832 7.22768L11.9805 5.63342L11.1777 7.22768L9.38281 7.48334L10.6816 8.72432Z" fill="url(#paint0_linear)"/>
<path d="M18.3638 3.52344C18.3663 3.27199 18.3672 3.02426 18.3672 2.78125V2H5.55469V2.78125C5.55469 3.02426 5.55559 3.27199 5.55809 3.52344H2V4.30469C2 6.3041 2.52555 7.9934 3.60668 9.46922C4.52457 10.7221 5.67898 11.6016 6.6975 12.3774C7.33133 12.8602 7.89629 13.2912 8.29586 13.727C9.0802 14.7653 10.048 15.6669 11.1797 16.4136V17.7031H10.7891C8.85055 17.7031 7.27344 19.2802 7.27344 21.2188V22H16.6484V21.2188C16.6484 19.2802 15.0713 17.7031 13.1328 17.7031H12.7422V16.4136C13.8718 15.6682 14.8383 14.7685 15.6219 13.7325C16.0254 13.2934 16.6018 12.8588 17.2488 12.3716C18.2783 11.5965 19.4451 10.7179 20.3733 9.46641C21.4679 7.9907 22 6.3023 22 4.30469V3.52344H18.3638ZM3.59609 5.08594H5.60148C5.67707 6.61375 5.87047 8.23395 6.35605 9.83695C6.39461 9.96422 6.43527 10.0899 6.47699 10.2148C5.08527 9.04512 3.81613 7.5743 3.59609 5.08594ZM13.1328 19.2656C13.9322 19.2656 14.6209 19.7482 14.9229 20.4375H8.99902C9.30098 19.7482 9.98969 19.2656 10.7891 19.2656H13.1328ZM14.4582 12.6909C14.3085 12.8545 14.1712 13.0232 14.0505 13.1995L14.0537 13.2017C13.4817 13.8759 12.7924 14.4998 11.9609 15.0571C11.1295 14.4998 10.4402 13.876 9.86812 13.2016L9.87133 13.1995C9.74902 13.0207 9.61 12.8498 9.45855 12.6839C7.5052 10.0301 7.16305 6.70254 7.12195 3.5625H16.7999C16.7588 6.70531 16.416 10.0359 14.4582 12.6909ZM17.4327 10.251C17.4788 10.1143 17.5235 9.97648 17.5658 9.83695C18.0514 8.23395 18.2448 6.61375 18.3204 5.08594H20.4033C20.1771 7.59969 18.8621 9.07445 17.4327 10.251Z" fill="url(#paint1_linear)"/>
<defs>
<linearGradient id="paint0_linear" x1="9.05055" y1="3.73829" x2="17.2342" y2="8.98631" gradientUnits="userSpaceOnUse">
<stop stop-color="#BD5A8F"/>
<stop offset="1" stop-color="#5B23B5"/>
</linearGradient>
<linearGradient id="paint1_linear" x1="0.720929" y1="-5.82609" x2="33.475" y2="13.7547" gradientUnits="userSpaceOnUse">
<stop stop-color="#BD5A8F"/>
<stop offset="1" stop-color="#5B23B5"/>
</linearGradient>
</defs>
</svg>
