<svg width="24" height="24" viewBox="0 0 24 24" fill="none" xmlns="http://www.w3.org/2000/svg">
<path d="M21.1406 12.3381L21.3888 12.0899C22.1356 11.3431 22.5469 10.3502 22.5469 9.29409C22.5469 7.57402 21.4139 6.05353 19.7276 5.51058C19.2139 5.3452 18.7444 5.07652 18.3281 4.71103V2.90625H16.9219V4.71103C16.5056 5.07652 16.0361 5.3452 15.5224 5.51058C15.5201 5.51133 15.5179 5.51217 15.5156 5.51288V4.72434L12.7031 1.91184V0H11.2969V1.91189L8.48438 4.72439V6.91917C8.48212 6.91842 8.47992 6.91758 8.47763 6.91687C7.96392 6.7515 7.49442 6.48281 7.07812 6.11733V4.3125H5.67188V6.11728C5.25558 6.48277 4.78608 6.75145 4.27237 6.91683C2.58609 7.45978 1.45312 8.98027 1.45312 10.7003C1.45312 11.7565 1.86441 12.7494 2.61122 13.4962L2.85938 13.7444V18.375H1.45312V24H22.5469V18.375H21.1406V12.3381ZM18.3281 18.375V19.7812H16.9219V18.375H15.5156V12.75H19.7344V18.375H18.3281ZM15.9534 6.84919C16.5606 6.65367 17.1206 6.35414 17.625 5.95566C18.1294 6.35414 18.6894 6.65367 19.2966 6.84919C20.3996 7.20431 21.1406 8.18686 21.1406 9.29414C21.1406 9.97462 20.8756 10.6144 20.3945 11.0956L20.1463 11.3438H15.1038L14.8556 11.0955C14.3744 10.6144 14.1094 9.97463 14.1094 9.29409C14.1094 8.18686 14.8504 7.20431 15.9534 6.84919V6.84919ZM12 3.19748L14.1094 5.30686V5.71875H9.89062V5.30686L12 3.19748ZM9.89062 7.125H13.3652C12.9429 7.75566 12.7031 8.50364 12.7031 9.29409C12.7031 10.3502 13.1144 11.3431 13.8612 12.0899L14.1094 12.3381V18.375H12.7031V19.7812H11.2969V18.375H9.89062V13.7444L10.1388 13.4962C10.8856 12.7493 11.2969 11.7564 11.2969 10.7003C11.2969 9.52322 10.7661 8.43975 9.89062 7.69889V7.125ZM4.70339 8.25544C5.31061 8.05992 5.87058 7.76039 6.375 7.36191C6.87942 7.76039 7.43939 8.05992 8.04661 8.25544C9.14958 8.61056 9.89062 9.59311 9.89062 10.7004C9.89062 11.3809 9.62564 12.0207 9.14447 12.5018L8.89627 12.75H3.85378L3.60558 12.5018C3.12436 12.0206 2.85938 11.3809 2.85938 10.7003C2.85938 9.59311 3.60042 8.61056 4.70339 8.25544V8.25544ZM4.26562 14.1562H8.48438V18.375H7.07812V19.7812H5.67188V18.375H4.26562V14.1562ZM21.1406 22.5938H2.85938V19.7812H4.26562V21.1875H8.48438V19.7812H9.89062V21.1875H14.1094V19.7812H15.5156V21.1875H19.7344V19.7812H21.1406V22.5938Z" fill="url(#paint0_linear)"/>
<path d="M11.2969 15.5625H12.7031V16.9688H11.2969V15.5625Z" fill="url(#paint1_linear)"/>
<path d="M5.67188 15.5625H7.07812V16.9688H5.67188V15.5625Z" fill="url(#paint2_linear)"/>
<path d="M16.9219 15.5625H18.3281V16.9688H16.9219V15.5625Z" fill="url(#paint3_linear)"/>
<defs>
<linearGradient id="paint0_linear" x1="0.104105" y1="-9.3913" x2="36.8507" y2="9.91607" gradientUnits="userSpaceOnUse">
<stop stop-color="#BD5A8F"/>
<stop offset="1" stop-color="#5B23B5"/>
</linearGradient>
<linearGradient id="paint1_linear" x1="11.2069" y1="15.0122" x2="13.51" y2="16.389" gradientUnits="userSpaceOnUse">
<stop stop-color="#BD5A8F"/>
<stop offset="1" stop-color="#5B23B5"/>
</linearGradient>
<linearGradient id="paint2_linear" x1="5.58194" y1="15.0122" x2="7.88496" y2="16.389" gradientUnits="userSpaceOnUse">
<stop stop-color="#BD5A8F"/>
<stop offset="1" stop-color="#5B23B5"/>
</linearGradient>
<linearGradient id="paint3_linear" x1="16.8319" y1="15.0122" x2="19.135" y2="16.389" gradientUnits="userSpaceOnUse">
<stop stop-color="#BD5A8F"/>
<stop offset="1" stop-color="#5B23B5"/>
</linearGradient>
</defs>
</svg>
