<svg width="24" height="24" viewBox="0 0 24 24" fill="none" xmlns="http://www.w3.org/2000/svg">
<path d="M12 7.3587C12.3883 7.3587 12.7031 7.04388 12.7031 6.65557V3.45425C12.7031 3.06593 12.3883 2.75111 12 2.75111C11.6117 2.75111 11.2969 3.06593 11.2969 3.45425V6.65557C11.2969 7.04388 11.6117 7.3587 12 7.3587Z" fill="url(#paint0_linear)"/>
<path d="M23.2961 14.0481H20.0947C19.7064 14.0481 19.3916 14.363 19.3916 14.7513C19.3916 15.1396 19.7064 15.4544 20.0947 15.4544H23.2961C23.6844 15.4544 23.9992 15.1396 23.9992 14.7513C23.9992 14.363 23.6844 14.0481 23.2961 14.0481Z" fill="url(#paint1_linear)"/>
<path d="M4.60759 14.7513C4.60759 14.363 4.29277 14.0481 3.90445 14.0481H0.703133C0.314816 14.0481 0 14.363 0 14.7513C0 15.1396 0.314816 15.4544 0.703133 15.4544H3.90445C4.29277 15.4544 4.60759 15.1396 4.60759 14.7513Z" fill="url(#paint2_linear)"/>
<path d="M18.5596 8.93445C18.7395 8.93445 18.9195 8.86578 19.0568 8.72848L20.7843 7.00102C21.0589 6.72647 21.0589 6.28125 20.7843 6.00665C20.5098 5.73206 20.0645 5.73206 19.7899 6.00665L18.0624 7.73411C17.7878 8.00866 17.7878 8.45388 18.0624 8.72848C18.1997 8.86578 18.3796 8.93445 18.5596 8.93445Z" fill="url(#paint3_linear)"/>
<path d="M4.94419 8.72848C5.08149 8.86578 5.26145 8.93445 5.44136 8.93445C5.62127 8.93445 5.80127 8.86583 5.93852 8.72848C6.21312 8.45388 6.21312 8.00871 5.93852 7.73411L4.21106 6.00665C3.93651 5.73206 3.49129 5.73206 3.21669 6.00665C2.94209 6.28125 2.94209 6.72643 3.21669 7.00102L4.94419 8.72848Z" fill="url(#paint4_linear)"/>
<path d="M20.6778 17.0973H17.5982C17.9079 16.3583 18.0699 15.5619 18.0699 14.7513C18.0699 11.4041 15.3468 8.68088 11.9996 8.68088C8.65236 8.68088 5.92917 11.4041 5.92917 14.7513C5.92917 15.5603 6.09075 16.3581 6.40037 17.0973H3.3213C2.93298 17.0973 2.61816 17.4122 2.61816 17.8005C2.61816 18.1888 2.93298 18.5036 3.3213 18.5036H20.6778C21.0661 18.5036 21.3809 18.1888 21.3809 17.8005C21.3809 17.4122 21.0661 17.0973 20.6778 17.0973V17.0973ZM7.33544 14.7513C7.33544 12.1795 9.42778 10.0871 11.9996 10.0871C14.5713 10.0871 16.6636 12.1794 16.6636 14.7513C16.6636 15.579 16.4449 16.3872 16.0306 17.0973H7.96831C7.55444 16.388 7.33544 15.5775 7.33544 14.7513Z" fill="url(#paint5_linear)"/>
<path d="M16.4171 19.8426H7.58302C7.1947 19.8426 6.87988 20.1574 6.87988 20.5458C6.87988 20.9341 7.1947 21.2489 7.58302 21.2489H16.4172C16.8055 21.2489 17.1203 20.9341 17.1203 20.5458C17.1203 20.1574 16.8055 19.8426 16.4171 19.8426V19.8426Z" fill="url(#paint6_linear)"/>
<defs>
<linearGradient id="paint0_linear" x1="11.2069" y1="0.948146" x2="14.2323" y2="1.50015" gradientUnits="userSpaceOnUse">
<stop stop-color="#BD5A8F"/>
<stop offset="1" stop-color="#5B23B5"/>
</linearGradient>
<linearGradient id="paint1_linear" x1="19.0969" y1="13.4979" x2="21.2147" y2="17.6459" gradientUnits="userSpaceOnUse">
<stop stop-color="#BD5A8F"/>
<stop offset="1" stop-color="#5B23B5"/>
</linearGradient>
<linearGradient id="paint2_linear" x1="-0.294671" y1="13.4979" x2="1.82308" y2="17.6459" gradientUnits="userSpaceOnUse">
<stop stop-color="#BD5A8F"/>
<stop offset="1" stop-color="#5B23B5"/>
</linearGradient>
<linearGradient id="paint3_linear" x1="17.656" y1="4.57446" x2="22.7882" y2="7.64255" gradientUnits="userSpaceOnUse">
<stop stop-color="#BD5A8F"/>
<stop offset="1" stop-color="#5B23B5"/>
</linearGradient>
<linearGradient id="paint4_linear" x1="2.81033" y1="4.57446" x2="7.94246" y2="7.64248" gradientUnits="userSpaceOnUse">
<stop stop-color="#BD5A8F"/>
<stop offset="1" stop-color="#5B23B5"/>
</linearGradient>
<linearGradient id="paint5_linear" x1="1.41822" y1="4.8372" x2="19.5217" y2="25.5096" gradientUnits="userSpaceOnUse">
<stop stop-color="#BD5A8F"/>
<stop offset="1" stop-color="#5B23B5"/>
</linearGradient>
<linearGradient id="paint6_linear" x1="6.22497" y1="19.2923" x2="7.36599" y2="24.2595" gradientUnits="userSpaceOnUse">
<stop stop-color="#BD5A8F"/>
<stop offset="1" stop-color="#5B23B5"/>
</linearGradient>
</defs>
</svg>
