<svg width="24" height="24" viewBox="0 0 24 24" fill="none" xmlns="http://www.w3.org/2000/svg">
<g clip-path="url(#clip0)">
<path d="M7.07812 4.26562C7.07812 5.07581 6.73331 5.80664 6.18328 6.3203L6.18356 6.32419C6.23339 7.01259 6.27375 7.73831 6.30441 8.48714C7.74408 8.21592 8.76422 7.67006 9.34172 6.85926C10.0864 5.81386 9.88805 4.58606 9.80953 4.23469C9.54778 3.06323 10.2415 1.8765 11.4166 1.65075C12.0959 1.5203 12.7737 1.45514 13.447 1.45514C15.8076 1.45514 18.175 2.26195 20.1293 3.87614C22.5883 5.90723 23.9992 8.86819 24 11.9998C24.0016 17.9352 18.8395 22.7775 13.4486 22.584C10.5032 22.4782 7.85616 21.0272 6.03108 19.4301C6.00773 19.6477 5.98331 19.8596 5.95777 20.0651C5.82389 21.1424 5.66573 21.9964 5.4877 22.6034C5.36517 23.0213 5.07811 24 4.26562 24C3.45314 24 3.16608 23.0213 3.04355 22.6034C2.86552 21.9964 2.70741 21.1424 2.57348 20.0651C2.30442 17.9002 2.15625 15.036 2.15625 12C2.15625 10.0165 2.22244 8.05387 2.34769 6.32423L2.34797 6.3203C1.79794 5.80664 1.45312 5.07581 1.45312 4.26562L1.45312 2.8125C1.45312 2.05022 0.787686 1.40625 -1.97521e-06 1.40625L-2.09815e-06 0L2.85937 -2.49975e-07C5.18203 -4.53028e-07 7.07812 1.92502 7.07812 4.26562V4.26562ZM13.499 21.1786C18.0295 21.3412 22.5952 17.205 22.5937 12.0002C22.593 9.28936 21.3683 6.72347 19.2338 4.96036C17.1243 3.21801 14.3716 2.51512 11.682 3.03173C11.2905 3.10692 11.0936 3.53255 11.182 3.92803C11.3237 4.56234 11.5397 6.19734 10.4872 7.67512C9.66131 8.83458 8.27123 9.58387 6.35016 9.90727C6.36647 10.596 6.37486 12.0524 6.37486 12.0787C6.64884 11.7594 7.01175 11.5296 7.42692 11.4183C8.5529 11.1166 9.71001 11.789 10.0104 12.9099C10.3114 14.0334 9.64228 15.1923 8.51883 15.4933C7.67508 15.7194 6.83273 15.4009 6.3323 14.7825C6.30103 15.7814 6.25289 16.7395 6.18914 17.6351C7.78022 19.3161 10.4702 21.0698 13.499 21.1786V21.1786ZM7.29375 13.6379C7.39434 14.0132 7.77947 14.2357 8.15489 14.1351C8.52937 14.0347 8.75245 13.6484 8.65209 13.2739C8.55173 12.8994 8.16525 12.6764 7.7909 12.7767C7.41558 12.8773 7.19316 13.2624 7.29375 13.6379V13.6379ZM3.89972 19.2918C4.02117 20.4235 4.15111 21.1906 4.26562 21.707C4.38014 21.1906 4.51008 20.4235 4.63153 19.2918C4.84898 17.2653 4.96875 14.6757 4.96875 12C4.96875 11.7652 4.96776 11.5307 4.96589 11.2969L3.56536 11.2969C3.56348 11.5307 3.5625 11.7652 3.5625 12C3.5625 14.6757 3.68227 17.2653 3.89972 19.2918V19.2918ZM3.58805 9.89109L4.9432 9.89109C4.91911 8.89814 4.87809 7.93247 4.82114 7.02277C4.64147 7.05891 4.45575 7.07812 4.26562 7.07812C4.0755 7.07812 3.88978 7.05891 3.71011 7.02277C3.6532 7.93247 3.61219 8.89809 3.58805 9.89109ZM2.85937 2.8125L2.85937 4.26562C2.85937 5.04103 3.49022 5.67187 4.26562 5.67187C5.04103 5.67187 5.67187 5.04103 5.67187 4.26562C5.67187 2.68898 4.41019 1.40625 2.85937 1.40625L2.47237 1.40625C2.72484 1.83005 2.85937 2.31159 2.85937 2.8125Z" fill="url(#paint0_linear)"/>
<path d="M18.8749 14.4859C19.6992 15.3102 19.6994 16.6445 18.8749 17.469C18.0525 18.2914 16.7142 18.2915 15.8918 17.469C15.0674 16.6447 15.0672 15.3103 15.8918 14.4859C16.7142 13.6634 18.0524 13.6634 18.8749 14.4859V14.4859ZM16.8861 16.4746C17.1603 16.7487 17.6063 16.7487 17.8805 16.4746C18.1554 16.1997 18.1554 15.755 17.8805 15.4802C17.6063 15.206 17.1603 15.2061 16.8861 15.4802C16.6113 15.755 16.6113 16.1998 16.8861 16.4746Z" fill="url(#paint1_linear)"/>
<path d="M12.4964 15.3958C13.6198 15.6968 14.289 16.8558 13.988 17.9792C13.6868 19.1027 12.5279 19.7718 11.4045 19.4708C10.281 19.1698 9.6119 18.0108 9.91293 16.8873C10.2147 15.7613 11.3701 15.0941 12.4964 15.3958V15.3958ZM11.7685 18.1125C12.1438 18.213 12.5295 17.9889 12.6297 17.6153C12.73 17.2409 12.5069 16.8545 12.1325 16.7542C11.7571 16.6537 11.3719 16.8759 11.2713 17.2514C11.1709 17.6258 11.3939 18.0121 11.7685 18.1125V18.1125Z" fill="url(#paint2_linear)"/>
<path d="M12.8241 6.0207C13.1247 4.89889 14.2824 4.22768 15.4076 4.52918C16.531 4.83022 17.2001 5.98915 16.8991 7.1126C16.5974 8.2385 15.4421 8.90595 14.3156 8.60417C13.1922 8.30314 12.523 7.1442 12.8241 6.0207V6.0207ZM14.6797 7.24587C15.0557 7.34665 15.4404 7.12334 15.5408 6.74871C15.6411 6.37418 15.4181 5.98789 15.0436 5.88753C14.6691 5.78717 14.2828 6.01029 14.1825 6.38468C14.0821 6.75921 14.3051 7.14551 14.6797 7.24587Z" fill="url(#paint3_linear)"/>
<path d="M16.8016 11.0901C16.5006 9.96657 17.1697 8.80768 18.2932 8.5066C19.4184 8.2051 20.5746 8.8712 20.8766 9.99817C21.1783 11.1242 20.5112 12.2799 19.3851 12.5816C18.2591 12.8835 17.1034 12.2163 16.8016 11.0901ZM19.5182 10.3622C19.4178 9.98687 19.0325 9.76435 18.6571 9.86495C18.2827 9.96531 18.0596 10.3516 18.16 10.7261C18.2603 11.1007 18.645 11.3241 19.0211 11.2233C19.3955 11.123 19.6186 10.7367 19.5182 10.3622Z" fill="url(#paint4_linear)"/>
</g>
<defs>
<linearGradient id="paint0_linear" x1="-1.53488" y1="33.3913" x2="37.7699" y2="9.89447" gradientUnits="userSpaceOnUse">
<stop stop-color="#BD5A8F"/>
<stop offset="1" stop-color="#5B23B5"/>
</linearGradient>
<linearGradient id="paint1_linear" x1="15.0036" y1="19.7359" x2="21.9117" y2="15.6032" gradientUnits="userSpaceOnUse">
<stop stop-color="#BD5A8F"/>
<stop offset="1" stop-color="#5B23B5"/>
</linearGradient>
<linearGradient id="paint2_linear" x1="9.57098" y1="21.1941" x2="16.4812" y2="17.0634" gradientUnits="userSpaceOnUse">
<stop stop-color="#BD5A8F"/>
<stop offset="1" stop-color="#5B23B5"/>
</linearGradient>
<linearGradient id="paint3_linear" x1="12.4821" y1="10.3279" x2="19.3924" y2="6.19726" gradientUnits="userSpaceOnUse">
<stop stop-color="#BD5A8F"/>
<stop offset="1" stop-color="#5B23B5"/>
</linearGradient>
<linearGradient id="paint4_linear" x1="16.4596" y1="14.3055" x2="23.3705" y2="10.1746" gradientUnits="userSpaceOnUse">
<stop stop-color="#BD5A8F"/>
<stop offset="1" stop-color="#5B23B5"/>
</linearGradient>
<clipPath id="clip0">
<rect width="24" height="24" fill="white"/>
</clipPath>
</defs>
</svg>
