<svg width="24" height="24" viewBox="0 0 24 24" fill="none" xmlns="http://www.w3.org/2000/svg">
<path d="M20.07 18.6385C18.943 17.5707 16.1242 15.2722 12.7428 15.2722C10.2612 15.2722 8.7865 16.0574 7.9863 16.7162C7.02752 17.5054 6.45508 18.597 6.45508 19.6361C6.45508 20.6766 7.02756 21.7688 7.98644 22.5577C8.78631 23.2157 10.2607 24 12.7428 24C16.1242 24 18.943 21.7014 20.07 20.6337C20.7022 21.2089 21.8387 22.0584 23.1992 22.2487L23.9997 22.3605V16.9116L23.1992 17.0235C21.8387 17.2137 20.7022 18.0633 20.07 18.6385V18.6385ZM7.86133 19.6361C7.86133 18.6696 8.80811 17.2242 11.2481 16.7997C12.2629 17.3724 12.9081 18.4636 12.9081 19.6361C12.9081 20.8087 12.2629 21.8998 11.2481 22.4724C8.80811 22.0479 7.86133 20.6026 7.86133 19.6361V19.6361ZM13.2735 22.5707C13.3825 22.4363 13.4848 22.2958 13.5789 22.1491C14.0601 21.3993 14.3144 20.5303 14.3144 19.636C14.3144 18.7418 14.0601 17.8728 13.579 17.1231C13.4849 16.9764 13.3827 16.836 13.2737 16.7016C15.8863 16.9283 18.1334 18.7577 19.0743 19.6369C18.1353 20.517 15.8938 22.3449 13.2735 22.5707ZM22.5935 20.632C21.9628 20.3712 21.4228 19.9566 21.0652 19.6371C21.4236 19.3178 21.9648 18.9026 22.5935 18.6413V20.632Z" fill="url(#paint0_linear)"/>
<path d="M9.67676 18.933H11.083V20.3431H9.67676V18.933Z" fill="url(#paint1_linear)"/>
<path d="M16.7442 11.6993L17.5447 11.8112V6.36229L16.7442 6.47418C15.3837 6.66435 14.2471 7.51396 13.6149 8.08917C12.4879 7.0214 9.66914 4.72284 6.28767 4.72284C3.80616 4.72284 2.33142 5.50809 1.53122 6.16682C0.572391 6.95611 0 8.04768 0 9.08676C0 10.1273 0.572484 11.2195 1.53136 12.0083C2.33119 12.6664 3.80564 13.4507 6.28763 13.4507C9.66909 13.4507 12.4879 11.1522 13.6148 10.0844C14.2471 10.6595 15.3837 11.5091 16.7442 11.6993V11.6993ZM16.1384 8.09198V10.0827C15.5078 9.8219 14.9677 9.40725 14.6102 9.08779C14.9686 8.76848 15.5098 8.35326 16.1384 8.09198V8.09198ZM1.40625 9.08676C1.40625 8.12029 2.35303 6.67485 4.79306 6.2504C5.80781 6.82303 6.45309 7.91418 6.45309 9.08676C6.45309 10.2593 5.80786 11.3505 4.79306 11.9231C2.35303 11.4986 1.40625 10.0532 1.40625 9.08676V9.08676ZM6.81839 12.0214C6.92747 11.887 7.0297 11.7465 7.12383 11.5998C7.605 10.85 7.85934 9.981 7.85934 9.08671C7.85934 8.19248 7.60505 7.32356 7.12392 6.57379C7.0298 6.42712 6.92756 6.28668 6.81853 6.15229C9.4312 6.37898 11.6783 8.20832 12.6192 9.08756C11.6801 9.96768 9.43875 11.7956 6.81839 12.0214Z" fill="url(#paint2_linear)"/>
<path d="M3.22168 8.38367H4.62793V9.79381H3.22168V8.38367Z" fill="url(#paint3_linear)"/>
<path d="M21.6831 14.317C22.9607 14.317 24.0001 13.2775 24.0001 12C24.0001 10.7224 22.9607 9.68298 21.6831 9.68298C20.4056 9.68298 19.3662 10.7224 19.3662 12C19.3662 13.2775 20.4056 14.317 21.6831 14.317ZM21.6831 11.0892C22.1853 11.0892 22.5939 11.4978 22.5939 12C22.5939 12.5021 22.1853 12.9107 21.6831 12.9107C21.181 12.9107 20.7725 12.5021 20.7725 12C20.7725 11.4978 21.181 11.0892 21.6831 11.0892Z" fill="url(#paint4_linear)"/>
<path d="M13.6139 4.63392C14.8914 4.63392 15.9308 3.59456 15.9308 2.31698C15.9308 1.03941 14.8914 0 13.6139 0C12.3363 0 11.2969 1.03941 11.2969 2.31698C11.2969 3.59456 12.3363 4.63392 13.6139 4.63392ZM13.6139 1.40625C14.116 1.40625 14.5245 1.81481 14.5245 2.31698C14.5245 2.81916 14.116 3.22767 13.6139 3.22767C13.1117 3.22767 12.7031 2.81916 12.7031 2.31698C12.7031 1.81481 13.1117 1.40625 13.6139 1.40625V1.40625Z" fill="url(#paint5_linear)"/>
<path d="M2.31698 16.1384C1.03941 16.1384 0 17.1778 0 18.4553C0 19.7329 1.03941 20.7723 2.31698 20.7723C3.59456 20.7723 4.63392 19.7329 4.63392 18.4553C4.63392 17.1778 3.59456 16.1384 2.31698 16.1384V16.1384ZM2.31698 19.3661C1.81481 19.3661 1.40625 18.9575 1.40625 18.4553C1.40625 17.9532 1.81481 17.5446 2.31698 17.5446C2.81916 17.5446 3.22767 17.9532 3.22767 18.4553C3.22767 18.9575 2.81916 19.3661 2.31698 19.3661Z" fill="url(#paint6_linear)"/>
<defs>
<linearGradient id="paint0_linear" x1="5.33304" y1="11.8569" x2="21.2903" y2="31.033" gradientUnits="userSpaceOnUse">
<stop stop-color="#BD5A8F"/>
<stop offset="1" stop-color="#5B23B5"/>
</linearGradient>
<linearGradient id="paint1_linear" x1="9.58682" y1="18.3812" x2="11.8932" y2="19.7561" gradientUnits="userSpaceOnUse">
<stop stop-color="#BD5A8F"/>
<stop offset="1" stop-color="#5B23B5"/>
</linearGradient>
<linearGradient id="paint2_linear" x1="-1.12204" y1="1.30758" x2="14.8353" y2="20.4837" gradientUnits="userSpaceOnUse">
<stop stop-color="#BD5A8F"/>
<stop offset="1" stop-color="#5B23B5"/>
</linearGradient>
<linearGradient id="paint3_linear" x1="3.13175" y1="7.83187" x2="5.43811" y2="9.20684" gradientUnits="userSpaceOnUse">
<stop stop-color="#BD5A8F"/>
<stop offset="1" stop-color="#5B23B5"/>
</linearGradient>
<linearGradient id="paint4_linear" x1="19.0699" y1="7.86969" x2="26.6589" y2="12.4065" gradientUnits="userSpaceOnUse">
<stop stop-color="#BD5A8F"/>
<stop offset="1" stop-color="#5B23B5"/>
</linearGradient>
<linearGradient id="paint5_linear" x1="11.0005" y1="-1.81327" x2="18.5895" y2="2.72351" gradientUnits="userSpaceOnUse">
<stop stop-color="#BD5A8F"/>
<stop offset="1" stop-color="#5B23B5"/>
</linearGradient>
<linearGradient id="paint6_linear" x1="-0.296356" y1="14.3251" x2="7.29263" y2="18.8619" gradientUnits="userSpaceOnUse">
<stop stop-color="#BD5A8F"/>
<stop offset="1" stop-color="#5B23B5"/>
</linearGradient>
</defs>
</svg>
