<svg width="24" height="24" viewBox="0 0 24 24" fill="none" xmlns="http://www.w3.org/2000/svg">
<path d="M12 0C5.36362 0 0 5.36203 0 12C0 18.6366 5.36217 24 12 24C18.6363 24 24 18.6381 24 12C24 5.36344 18.6378 0 12 0ZM12 11.1881L9.18741 9.56423L18.8919 3.96136C19.6201 4.58658 20.2628 5.30864 20.7996 6.10767L12 11.1881ZM1.41563 11.5725L11.2969 17.2774V20.5251L1.86295 15.0785C1.52967 13.983 1.36627 12.8094 1.41563 11.5725V11.5725ZM2.49563 7.32455C2.96827 7.59741 11.0132 12.2422 11.2969 12.4059V15.6536L1.58728 10.0478C1.76667 9.08859 2.07577 8.17463 2.49563 7.32455V7.32455ZM17.6599 3.04889L7.78116 8.75236L4.96856 7.12852L14.4033 1.68136C15.575 1.95417 16.6725 2.42227 17.6599 3.04889V3.04889ZM12.7031 12.4059L15.5156 10.7821V21.9933C14.6261 22.3072 13.6826 22.5053 12.7031 22.5698V12.4059ZM12 1.40625C12.022 1.40625 12.0439 1.40695 12.0659 1.40709L3.56231 6.31659L3.20039 6.10767C5.1038 3.27445 8.3377 1.40625 12 1.40625ZM2.79623 17.2411L11.2969 22.1489V22.5698C7.6567 22.3301 4.51298 20.244 2.79623 17.2411ZM16.9219 21.3786V9.97027L19.7344 8.34647V19.231C18.9267 20.0944 17.9766 20.8228 16.9219 21.3786ZM21.1406 17.3493V7.53455L21.5044 7.32455C22.2013 8.73553 22.5938 10.3227 22.5938 12C22.5938 13.95 22.0635 15.7783 21.1406 17.3493Z" fill="url(#paint0_linear)"/>
<defs>
<linearGradient id="paint0_linear" x1="-1.53488" y1="-9.3913" x2="37.77" y2="14.1056" gradientUnits="userSpaceOnUse">
<stop stop-color="#BD5A8F"/>
<stop offset="1" stop-color="#5B23B5"/>
</linearGradient>
</defs>
</svg>
