<svg width="24" height="24" viewBox="0 0 24 24" fill="none" xmlns="http://www.w3.org/2000/svg">
<g clip-path="url(#clip0)">
<path d="M12.0001 6.2928C12.1517 6.2928 12.297 6.23259 12.4042 6.12543C12.5114 6.01827 12.5716 5.87292 12.5716 5.72137V4.57851C12.5716 4.42696 12.5114 4.28161 12.4042 4.17445C12.297 4.06728 12.1517 4.00708 12.0001 4.00708C11.8486 4.00708 11.7032 4.06728 11.5961 4.17445C11.4889 4.28161 11.4287 4.42696 11.4287 4.57851V5.72137C11.4287 5.87292 11.4889 6.01827 11.5961 6.12543C11.7032 6.23259 11.8486 6.2928 12.0001 6.2928Z" fill="url(#paint0_linear)"/>
<path d="M4.19071 10.6666H3.61928C3.46773 10.6666 3.32238 10.7268 3.21522 10.834C3.10806 10.9412 3.04785 11.0865 3.04785 11.2381C3.04785 11.3896 3.10806 11.535 3.21522 11.6421C3.32238 11.7493 3.46773 11.8095 3.61928 11.8095H4.19071C4.34226 11.8095 4.48761 11.7493 4.59477 11.6421C4.70194 11.535 4.76214 11.3896 4.76214 11.2381C4.76214 11.0865 4.70194 10.9412 4.59477 10.834C4.48761 10.7268 4.34226 10.6666 4.19071 10.6666Z" fill="url(#paint1_linear)"/>
<path d="M6.76366 10.6666H6.06166C5.91011 10.6666 5.76477 10.7268 5.6576 10.834C5.55044 10.9412 5.49023 11.0865 5.49023 11.2381C5.49023 11.3896 5.55044 11.535 5.6576 11.6421C5.76477 11.7493 5.91011 11.8095 6.06166 11.8095H6.76347C6.91503 11.8095 7.06037 11.7493 7.16753 11.6421C7.2747 11.535 7.3349 11.3896 7.3349 11.2381C7.3349 11.0865 7.2747 10.9412 7.16753 10.834C7.06037 10.7268 6.91503 10.6666 6.76347 10.6666H6.76366Z" fill="url(#paint2_linear)"/>
<path d="M9.48999 10.8033C9.21709 10.7209 8.9344 10.6752 8.64942 10.6677C8.49853 10.6649 8.35266 10.7219 8.24365 10.8262C8.13464 10.9306 8.07133 11.0739 8.06756 11.2247C8.06379 11.3756 8.11985 11.5218 8.22351 11.6315C8.32717 11.7412 8.47 11.8054 8.62084 11.8102C8.80404 11.8152 8.98574 11.8447 9.16113 11.8978C9.30582 11.9399 9.4613 11.9232 9.5937 11.8512C9.72611 11.7793 9.82473 11.6579 9.86809 11.5136C9.91146 11.3693 9.89606 11.2137 9.82524 11.0806C9.75443 10.9476 9.63393 10.848 9.48999 10.8033V10.8033Z" fill="url(#paint3_linear)"/>
<path d="M11.7691 12.6238C11.6264 12.4014 11.4663 12.1906 11.2904 11.9934C11.1894 11.8804 11.0476 11.8122 10.8963 11.8037C10.745 11.7953 10.5965 11.8473 10.4835 11.9483C10.3705 12.0494 10.3023 12.1911 10.2939 12.3425C10.2854 12.4938 10.3374 12.6423 10.4385 12.7553C10.5741 12.9075 10.6976 13.0702 10.8077 13.2418C10.8482 13.3051 10.9008 13.3597 10.9625 13.4026C11.0241 13.4456 11.0936 13.4759 11.167 13.4919C11.2404 13.5079 11.3163 13.5093 11.3902 13.496C11.4641 13.4827 11.5347 13.455 11.5979 13.4143C11.6611 13.3737 11.7157 13.321 11.7585 13.2593C11.8013 13.1976 11.8315 13.128 11.8474 13.0546C11.8633 12.9812 11.8646 12.9053 11.8511 12.8314C11.8377 12.7575 11.8098 12.687 11.7691 12.6238V12.6238Z" fill="url(#paint4_linear)"/>
<path d="M23.8326 16.5483L19.2612 11.9769C19.1813 11.897 19.0795 11.8426 18.9686 11.8205C18.8578 11.7985 18.7429 11.8098 18.6385 11.853C18.5341 11.8963 18.4448 11.9695 18.382 12.0635C18.3193 12.1575 18.2857 12.2679 18.2857 12.3809V14.0922L15.0476 14.0748C14.9839 14.0748 14.9204 14.0762 14.8572 14.0783V5.71427H16.5714C16.6845 5.71426 16.7949 5.68074 16.8889 5.61795C16.9829 5.55516 17.0561 5.46592 17.0994 5.36151C17.1426 5.2571 17.1539 5.14221 17.1319 5.03136C17.1098 4.92052 17.0554 4.8187 16.9755 4.73879L12.4041 0.167354C12.2969 0.0601988 12.1516 0 12 0C11.8485 0 11.7031 0.0601988 11.596 0.167354L7.02453 4.73879C6.94462 4.8187 6.8902 4.92052 6.86815 5.03136C6.84611 5.14221 6.85742 5.2571 6.90067 5.36151C6.94392 5.46592 7.01716 5.55516 7.11112 5.61795C7.20509 5.68074 7.31556 5.71426 7.42858 5.71427H9.14287V8.38441C9.07848 8.38232 9.01401 8.38093 8.94934 8.38093L5.71429 8.39832V6.68712C5.71429 6.5741 5.68078 6.46362 5.618 6.36965C5.55521 6.27568 5.46597 6.20243 5.36156 6.15918C5.25714 6.11592 5.14225 6.1046 5.0314 6.12665C4.92055 6.14869 4.81873 6.20311 4.73881 6.28303L0.167378 10.8545C0.114313 10.9075 0.0722191 10.9705 0.0435003 11.0399C0.0147814 11.1092 0 11.1835 0 11.2585C0 11.3336 0.0147814 11.4079 0.0435003 11.4772C0.0722191 11.5465 0.114313 11.6095 0.167378 11.6626L4.73881 16.234C4.81873 16.314 4.92054 16.3684 5.03139 16.3904C5.14223 16.4125 5.25712 16.4011 5.36153 16.3579C5.46594 16.3146 5.55519 16.2414 5.61798 16.1474C5.68077 16.0535 5.71428 15.943 5.71429 15.83V14.1126L8.95239 14.0952C9.00291 14.0952 9.05135 14.1153 9.08708 14.151C9.1228 14.1867 9.14287 14.2352 9.14287 14.2857V23.4286C9.14287 23.5801 9.20307 23.7255 9.31023 23.8326C9.4174 23.9398 9.56274 24 9.71429 24C9.86585 24 10.0112 23.9398 10.1184 23.8326C10.2255 23.7255 10.2857 23.5801 10.2857 23.4286V19.9796C10.287 18.7176 10.7887 17.5076 11.6808 16.6149C12.5729 15.7222 13.7826 15.2198 15.0446 15.2177L18.8541 15.2381H18.8572C19.0087 15.2381 19.1541 15.1779 19.2612 15.0707C19.3684 14.9636 19.4286 14.8182 19.4286 14.6667V13.7605L22.6205 16.9524L19.4286 20.1442V19.2381C19.4286 19.0871 19.3688 18.9422 19.2623 18.8351C19.1558 18.728 19.0112 18.6675 18.8602 18.6667L15.0476 18.6463C14.6941 18.6467 14.3552 18.7873 14.1053 19.0373C13.8553 19.2872 13.7147 19.6261 13.7143 19.9796V23.4286C13.7143 23.5801 13.7745 23.7255 13.8817 23.8326C13.9888 23.9398 14.1342 24 14.2857 24C14.4373 24 14.5826 23.9398 14.6898 23.8326C14.797 23.7255 14.8572 23.5801 14.8572 23.4286V19.9796C14.857 19.9296 14.8767 19.8815 14.9117 19.8459C14.9468 19.8102 14.9946 19.7898 15.0446 19.7891L18.2857 19.8065V21.5238C18.2857 21.6368 18.3193 21.7473 18.382 21.8413C18.4448 21.9352 18.5341 22.0085 18.6385 22.0517C18.7429 22.095 18.8578 22.1063 18.9686 22.0842C19.0795 22.0622 19.1813 22.0078 19.2612 21.9279L23.8326 17.3564C23.9398 17.2493 24 17.1039 24 16.9524C24 16.8008 23.9398 16.6555 23.8326 16.5483V16.5483ZM8.80815 4.57141L12 1.37955L15.1919 4.57141H14.2857C14.1342 4.57141 13.9888 4.63161 13.8817 4.73877C13.7745 4.84594 13.7143 4.99128 13.7143 5.14284V10.798C13.6149 10.6625 13.5096 10.5309 13.3982 10.4033C13.1482 10.1175 12.8713 9.85629 12.5714 9.62332V8.76903C12.5714 8.61748 12.5112 8.47213 12.4041 8.36497C12.2969 8.25781 12.1516 8.1976 12 8.1976C11.8485 8.1976 11.7031 8.25781 11.596 8.36497C11.4888 8.47213 11.4286 8.61748 11.4286 8.76903V8.92617C11.0621 8.75633 10.6792 8.62474 10.2857 8.53351V5.14284C10.2857 4.99128 10.2255 4.84594 10.1184 4.73877C10.0112 4.63161 9.86585 4.57141 9.71429 4.57141H8.80815ZM10.2857 16.4924V14.2857C10.2851 13.9317 10.1441 13.5925 9.89348 13.3425C9.6429 13.0924 9.30331 12.9521 8.94934 12.9524L5.13981 12.9728C4.98879 12.9737 4.84423 13.0342 4.73772 13.1413C4.63121 13.2484 4.57143 13.3932 4.57143 13.5443V14.4504L1.37957 11.2586L4.57143 8.06665V8.97284C4.57143 9.04814 4.58631 9.12269 4.61522 9.19222C4.64413 9.26175 4.68649 9.32488 4.73987 9.37798C4.79326 9.43109 4.85661 9.47311 4.9263 9.50165C4.99598 9.53019 5.07061 9.54467 5.14591 9.54427C5.14591 9.54427 9.40967 9.54022 9.6331 9.57284C11.9403 9.90394 13.684 11.8994 13.7129 14.2271C13.3043 14.322 12.9071 14.4605 12.5282 14.6402C12.5254 14.6208 12.5234 14.6015 12.5203 14.5821C12.4963 14.4333 12.4144 14.3 12.2925 14.2113C12.1705 14.1226 12.0185 14.0856 11.8695 14.1085C11.7204 14.1314 11.5865 14.2123 11.4968 14.3335C11.4072 14.4547 11.369 14.6065 11.3908 14.7557C11.4156 14.9153 11.4282 15.0766 11.4286 15.2381C11.4288 15.2632 11.4306 15.2882 11.4341 15.313C10.9985 15.6511 10.6121 16.048 10.2857 16.4924V16.4924Z" fill="url(#paint5_linear)"/>
<path d="M12.0001 21.9048C11.8486 21.9048 11.7032 21.965 11.5961 22.0721C11.4889 22.1793 11.4287 22.3246 11.4287 22.4762V23.0476C11.4287 23.1992 11.4889 23.3445 11.5961 23.4517C11.7032 23.5588 11.8486 23.619 12.0001 23.619C12.1517 23.619 12.297 23.5588 12.4042 23.4517C12.5114 23.3445 12.5716 23.1992 12.5716 23.0476V22.4762C12.5716 22.3246 12.5114 22.1793 12.4042 22.0721C12.297 21.965 12.1517 21.9048 12.0001 21.9048V21.9048Z" fill="url(#paint6_linear)"/>
<path d="M12.3482 18.7686C12.2769 18.7452 12.2017 18.7361 12.1269 18.7418C12.052 18.7475 11.9791 18.7678 11.9121 18.8017C11.8452 18.8356 11.7855 18.8823 11.7366 18.9393C11.6877 18.9962 11.6505 19.0622 11.6272 19.1335C11.5219 19.4548 11.4579 19.7882 11.4367 20.1257C11.4271 20.277 11.4781 20.4258 11.5783 20.5395C11.6785 20.6532 11.8197 20.7224 11.971 20.732C11.9832 20.7327 11.9954 20.7331 12.0075 20.7331C12.1528 20.733 12.2925 20.6775 12.3983 20.5781C12.5041 20.4786 12.5681 20.3426 12.5773 20.1977C12.5924 19.9568 12.638 19.7189 12.7131 19.4896C12.7603 19.3456 12.7484 19.1887 12.68 19.0535C12.6115 18.9183 12.4922 18.8158 12.3482 18.7686V18.7686Z" fill="url(#paint7_linear)"/>
<path d="M17.495 17.5238C17.6466 17.5238 17.7919 17.4636 17.8991 17.3564C18.0063 17.2492 18.0665 17.1039 18.0665 16.9523C18.0665 16.8008 18.0063 16.6554 17.8991 16.5483C17.7919 16.4411 17.6466 16.3809 17.495 16.3809H16.6271C16.4755 16.3809 16.3302 16.4411 16.223 16.5483C16.1159 16.6554 16.0557 16.8008 16.0557 16.9523C16.0557 17.1039 16.1159 17.2492 16.223 17.3564C16.3302 17.4636 16.4755 17.5238 16.6271 17.5238H17.495Z" fill="url(#paint8_linear)"/>
<path d="M14.5138 17.6731C14.5851 17.6492 14.6509 17.6115 14.7075 17.5622C14.7642 17.5128 14.8105 17.4528 14.844 17.3855C14.8774 17.3182 14.8972 17.245 14.9023 17.17C14.9074 17.095 14.8976 17.0198 14.8736 16.9486C14.8496 16.8774 14.8117 16.8117 14.7623 16.7551C14.7128 16.6986 14.6527 16.6523 14.5853 16.6191C14.518 16.5858 14.4447 16.5661 14.3697 16.5612C14.2947 16.5562 14.2195 16.5661 14.1484 16.5903C13.828 16.6984 13.5226 16.847 13.2397 17.0323C13.1761 17.0731 13.1213 17.126 13.0783 17.1881C13.0353 17.2501 13.005 17.3201 12.9892 17.394C12.9734 17.4678 12.9724 17.5441 12.9863 17.6183C13.0001 17.6925 13.0286 17.7633 13.0699 17.8265C13.1113 17.8897 13.1648 17.944 13.2273 17.9864C13.2898 18.0288 13.3601 18.0584 13.4341 18.0734C13.5081 18.0885 13.5843 18.0887 13.6584 18.0741C13.7325 18.0595 13.803 18.0304 13.8657 17.9884C14.0675 17.8563 14.2853 17.7503 14.5138 17.6731V17.6731Z" fill="url(#paint9_linear)"/>
<path d="M19.8097 17.5238H20.3811C20.5327 17.5238 20.678 17.4636 20.7852 17.3564C20.8924 17.2492 20.9526 17.1039 20.9526 16.9523C20.9526 16.8008 20.8924 16.6554 20.7852 16.5483C20.678 16.4411 20.5327 16.3809 20.3811 16.3809H19.8097C19.6582 16.3809 19.5128 16.4411 19.4056 16.5483C19.2985 16.6554 19.2383 16.8008 19.2383 16.9523C19.2383 17.1039 19.2985 17.2492 19.4056 17.3564C19.5128 17.4636 19.6582 17.5238 19.8097 17.5238V17.5238Z" fill="url(#paint10_linear)"/>
</g>
<defs>
<linearGradient id="paint0_linear" x1="11.3556" y1="3.11267" x2="13.6878" y2="3.80977" gradientUnits="userSpaceOnUse">
<stop stop-color="#BD5A8F"/>
<stop offset="1" stop-color="#5B23B5"/>
</linearGradient>
<linearGradient id="paint1_linear" x1="2.93822" y1="10.2194" x2="5.05053" y2="12.1136" gradientUnits="userSpaceOnUse">
<stop stop-color="#BD5A8F"/>
<stop offset="1" stop-color="#5B23B5"/>
</linearGradient>
<linearGradient id="paint2_linear" x1="5.37226" y1="10.2194" x2="7.49579" y2="12.2684" gradientUnits="userSpaceOnUse">
<stop stop-color="#BD5A8F"/>
<stop offset="1" stop-color="#5B23B5"/>
</linearGradient>
<linearGradient id="paint3_linear" x1="7.95068" y1="10.1773" x2="10.2582" y2="12.1863" gradientUnits="userSpaceOnUse">
<stop stop-color="#BD5A8F"/>
<stop offset="1" stop-color="#5B23B5"/>
</linearGradient>
<linearGradient id="paint4_linear" x1="10.1927" y1="11.1367" x2="12.8668" y2="12.6087" gradientUnits="userSpaceOnUse">
<stop stop-color="#BD5A8F"/>
<stop offset="1" stop-color="#5B23B5"/>
</linearGradient>
<linearGradient id="paint5_linear" x1="-1.53488" y1="-9.3913" x2="37.77" y2="14.1056" gradientUnits="userSpaceOnUse">
<stop stop-color="#BD5A8F"/>
<stop offset="1" stop-color="#5B23B5"/>
</linearGradient>
<linearGradient id="paint6_linear" x1="11.3556" y1="21.234" x2="13.548" y2="22.1077" gradientUnits="userSpaceOnUse">
<stop stop-color="#BD5A8F"/>
<stop offset="1" stop-color="#5B23B5"/>
</linearGradient>
<linearGradient id="paint7_linear" x1="11.352" y1="17.9603" x2="13.869" y2="18.9463" gradientUnits="userSpaceOnUse">
<stop stop-color="#BD5A8F"/>
<stop offset="1" stop-color="#5B23B5"/>
</linearGradient>
<linearGradient id="paint8_linear" x1="15.9271" y1="15.9337" x2="18.0492" y2="18.1659" gradientUnits="userSpaceOnUse">
<stop stop-color="#BD5A8F"/>
<stop offset="1" stop-color="#5B23B5"/>
</linearGradient>
<linearGradient id="paint9_linear" x1="12.8533" y1="15.9632" x2="15.5807" y2="18.0235" gradientUnits="userSpaceOnUse">
<stop stop-color="#BD5A8F"/>
<stop offset="1" stop-color="#5B23B5"/>
</linearGradient>
<linearGradient id="paint10_linear" x1="19.1286" y1="15.9337" x2="21.241" y2="17.8279" gradientUnits="userSpaceOnUse">
<stop stop-color="#BD5A8F"/>
<stop offset="1" stop-color="#5B23B5"/>
</linearGradient>
<clipPath id="clip0">
<rect width="24" height="24" fill="white"/>
</clipPath>
</defs>
</svg>
