<svg width="24" height="24" viewBox="0 0 24 24" fill="none" xmlns="http://www.w3.org/2000/svg">
<path d="M18.2996 18.0792C20.5161 18.0792 22.3193 16.276 22.3193 14.0595C22.3193 13.1478 22.0055 12.2549 21.4355 11.5453C21.0429 11.0564 20.5395 10.6664 19.9749 10.4065C20.1277 9.90472 20.2049 9.38348 20.2049 8.84941C20.2049 7.56864 19.7457 6.32896 18.9118 5.35879C18.2099 4.54213 17.2804 3.95769 16.2526 3.67805C16.1203 2.7568 15.694 1.90701 15.0215 1.24174C14.212 0.440967 13.1391 0 12.0005 0C10.8618 0 9.78889 0.440967 8.97945 1.2417C8.30696 1.90697 7.88062 2.75676 7.74834 3.678C6.72059 3.95764 5.79105 4.54208 5.08914 5.35874C4.25528 6.32891 3.79604 7.56859 3.79604 8.84937C3.79604 9.38344 3.87317 9.90467 4.02601 10.4065C3.46149 10.6663 2.95801 11.0564 2.5654 11.5453C1.99549 12.2549 1.68164 13.1478 1.68164 14.0595C1.68164 16.2759 3.48487 18.0792 5.70132 18.0792H11.2977V22.5943H5.50077V24H18.5002V22.5943H12.7033V18.0792H18.2996V18.0792ZM5.70127 16.6735C4.25992 16.6735 3.08729 15.5009 3.08729 14.0595C3.08729 12.8398 3.91571 11.7937 5.10184 11.5155L5.94722 11.3172L5.57715 10.5317C5.32806 10.0029 5.20174 9.4369 5.20174 8.84941C5.20174 7.90465 5.54037 6.99038 6.15517 6.27502C6.76379 5.56693 7.60341 5.09546 8.51941 4.94749L9.1031 4.85321L9.11013 4.26202C9.12887 2.68703 10.4255 1.4057 12.0005 1.4057C13.5755 1.4057 14.872 2.68703 14.8908 4.26197L14.8978 4.85316L15.4815 4.94744C16.3975 5.09541 17.2371 5.56688 17.8457 6.27498C18.4606 6.99038 18.7992 7.9046 18.7992 8.84937C18.7992 9.43685 18.6728 10.0028 18.4238 10.5316L18.0537 11.3172L18.8991 11.5154C20.0852 11.7936 20.9136 12.8398 20.9136 14.0595C20.9136 15.5008 19.741 16.6735 18.2996 16.6735H12.7033V12.7643L15.2775 10.1901L14.2836 9.19611L12.7033 10.7763V6.11857H11.2976V8.24112L9.7173 6.66089L8.72333 7.65485L11.2975 10.2291V13.3115L9.71725 11.7312L8.72328 12.7252L11.2975 15.2994V16.6734H5.70127V16.6735Z" fill="url(#paint0_linear)"/>
<defs>
<linearGradient id="paint0_linear" x1="0.361789" y1="-9.3913" x2="36.6496" y2="9.26282" gradientUnits="userSpaceOnUse">
<stop stop-color="#BD5A8F"/>
<stop offset="1" stop-color="#5B23B5"/>
</linearGradient>
</defs>
</svg>
