<svg width="24" height="24" viewBox="0 0 24 24" fill="none" xmlns="http://www.w3.org/2000/svg">
<path d="M24 12L22.3592 9.22397L22.3939 5.99827L19.5819 4.41811L18.0017 1.60608L14.776 1.64072L12 0L9.22397 1.64077L5.99827 1.60608L4.41811 4.41816L1.60608 5.99831L1.64072 9.22402L0 12L1.64072 14.776L1.60603 18.0017L4.41806 19.5819L5.99822 22.3939L9.22397 22.3593L12 24L14.776 22.3593L18.0017 22.3939L19.5819 19.5819L22.3939 18.0018L22.3593 14.776L24 12ZM18.5468 18.5468L17.182 20.9756L14.3977 20.9457L12 22.3628L9.60234 20.9457L6.81797 20.9756L5.45316 18.5468L3.02437 17.182L3.05423 14.3977L1.63716 12L3.05428 9.60234L3.02442 6.81797L5.45325 5.4532L6.81797 3.02437L9.6023 3.05423L12 1.63716L14.3977 3.05428L17.182 3.02442L18.5468 5.4532L20.9756 6.81802L20.9458 9.60234L22.3628 12L20.9457 14.3977L20.9755 17.182L18.5468 18.5468Z" fill="url(#paint0_linear)"/>
<path d="M7.34764 9.97748V11.8151L5.81052 9.97748H4.68945V14.0226H6.01855V12.1849L7.55567 14.0226H8.67669V9.97748H7.34764Z" fill="url(#paint1_linear)"/>
<path d="M10.5594 12.994V12.4623H12.2698V11.4799H10.5594V11.0061H12.5068V9.97748H9.21875V14.0226H12.5819V12.994H10.5594Z" fill="url(#paint2_linear)"/>
<path d="M18.2222 9.97748L17.4767 12.3063L16.7717 9.97748H15.5178L14.7723 12.2774L14.0673 9.97748H12.6631L13.9575 14.0226H15.4195L16.1072 11.8613L16.7602 14.0226H18.2222L19.5166 9.97748H18.2222Z" fill="url(#paint3_linear)"/>
<path d="M15.4509 5.2324C14.376 4.68321 13.2149 4.40472 12 4.40472C10.7851 4.40472 9.62409 4.68316 8.54906 5.2324C7.52437 5.7559 6.61659 6.5201 5.92383 7.44241L7.0507 8.28893C8.23209 6.71622 10.036 5.81421 12 5.81421C13.9641 5.81421 15.768 6.71618 16.9493 8.28893L18.0762 7.44241C17.3834 6.5201 16.4756 5.7559 15.4509 5.2324Z" fill="url(#paint4_linear)"/>
<path d="M16.9493 15.7111C15.768 17.2839 13.964 18.1859 12 18.1859C10.0361 18.1859 8.23209 17.2839 7.05075 15.7111L5.92383 16.5576C6.61664 17.4799 7.52442 18.2442 8.54911 18.7677C9.62409 19.3168 10.7851 19.5953 12 19.5953C13.2149 19.5953 14.376 19.3169 15.451 18.7677C16.4756 18.2442 17.3835 17.4799 18.0762 16.5576L16.9493 15.7111Z" fill="url(#paint5_linear)"/>
<defs>
<linearGradient id="paint0_linear" x1="-1.53488" y1="-9.3913" x2="37.77" y2="14.1056" gradientUnits="userSpaceOnUse">
<stop stop-color="#BD5A8F"/>
<stop offset="1" stop-color="#5B23B5"/>
</linearGradient>
<linearGradient id="paint1_linear" x1="4.43446" y1="8.39462" x2="11.0135" y2="12.2714" gradientUnits="userSpaceOnUse">
<stop stop-color="#BD5A8F"/>
<stop offset="1" stop-color="#5B23B5"/>
</linearGradient>
<linearGradient id="paint2_linear" x1="9.00367" y1="8.39462" x2="14.9988" y2="11.3744" gradientUnits="userSpaceOnUse">
<stop stop-color="#BD5A8F"/>
<stop offset="1" stop-color="#5B23B5"/>
</linearGradient>
<linearGradient id="paint3_linear" x1="12.2248" y1="8.39462" x2="19.745" y2="16.0117" gradientUnits="userSpaceOnUse">
<stop stop-color="#BD5A8F"/>
<stop offset="1" stop-color="#5B23B5"/>
</linearGradient>
<linearGradient id="paint4_linear" x1="5.14664" y1="2.88482" x2="11.1522" y2="14.1174" gradientUnits="userSpaceOnUse">
<stop stop-color="#BD5A8F"/>
<stop offset="1" stop-color="#5B23B5"/>
</linearGradient>
<linearGradient id="paint5_linear" x1="5.14664" y1="14.1912" x2="11.1522" y2="25.4238" gradientUnits="userSpaceOnUse">
<stop stop-color="#BD5A8F"/>
<stop offset="1" stop-color="#5B23B5"/>
</linearGradient>
</defs>
</svg>
