<svg width="24" height="24" viewBox="0 0 24 24" fill="none" xmlns="http://www.w3.org/2000/svg">
<path d="M23.4339 5.30923C15.291 3.69078 15.8181 3.77529 15.6337 3.80632C15.5747 3.81617 14.852 3.96143 13.1675 4.29832C12.4613 2.26189 10.5238 0.795776 8.25 0.795776C5.97413 0.795776 4.03509 2.26465 3.33052 4.30409L0.840187 3.80923C0.406125 3.72317 0 4.055 0 4.4989V20.9989C0 21.3344 0.237047 21.6231 0.566063 21.6885C8.64019 23.2933 8.11158 23.1897 8.16511 23.1963C8.33489 23.2171 7.81017 23.3039 15.7504 21.7159L23.1598 23.1885C23.5941 23.2747 24 22.9423 24 22.4989V5.9989C24 5.66342 23.763 5.37467 23.4339 5.30923V5.30923ZM8.25 2.20203C10.3436 2.20203 12.0469 3.90528 12.0469 5.9989C12.0469 7.76529 9.22041 12.2491 8.25 13.7328C7.28067 12.2508 4.45312 7.76567 4.45312 5.9989C4.45312 3.90528 6.15642 2.20203 8.25 2.20203V2.20203ZM1.40625 5.35545L3.05672 5.68343C3.05044 5.78782 3.04688 5.89292 3.04688 5.99885C3.04688 7.17139 3.81389 9.06359 5.3918 11.7837C6.31317 13.3719 7.22147 14.7356 7.54688 15.2159V21.6422L1.40625 20.4217V5.35545ZM8.95312 15.2159C9.27848 14.7356 10.1868 13.372 11.1082 11.7837C12.6861 9.06359 13.4531 7.17139 13.4531 5.9989C13.4531 5.8909 13.4494 5.78375 13.4429 5.67739L15.0469 5.35653V20.4225L8.95312 21.6412V15.2159ZM22.5938 21.6423L16.4531 20.4218V5.3555L22.5938 6.57598V21.6423Z" fill="url(#paint0_linear)"/>
<path d="M8.25 8.20203C9.46481 8.20203 10.4531 7.21371 10.4531 5.9989C10.4531 4.78409 9.46481 3.79578 8.25 3.79578C7.03519 3.79578 6.04688 4.78409 6.04688 5.9989C6.04688 7.21371 7.03519 8.20203 8.25 8.20203ZM8.25 5.20203C8.68941 5.20203 9.04688 5.5595 9.04688 5.9989C9.04688 6.43831 8.68941 6.79578 8.25 6.79578C7.81059 6.79578 7.45312 6.43831 7.45312 5.9989C7.45312 5.5595 7.81059 5.20203 8.25 5.20203Z" fill="url(#paint1_linear)"/>
<defs>
<linearGradient id="paint0_linear" x1="-1.53488" y1="-7.97275" x2="36.3046" y2="16.2547" gradientUnits="userSpaceOnUse">
<stop stop-color="#BD5A8F"/>
<stop offset="1" stop-color="#5B23B5"/>
</linearGradient>
<linearGradient id="paint1_linear" x1="5.76508" y1="2.07159" x2="12.9812" y2="6.38547" gradientUnits="userSpaceOnUse">
<stop stop-color="#BD5A8F"/>
<stop offset="1" stop-color="#5B23B5"/>
</linearGradient>
</defs>
</svg>
