<svg width="24" height="24" viewBox="0 0 24 24" fill="none" xmlns="http://www.w3.org/2000/svg">
<path d="M17.2365 1.14239C17.4054 0.931313 17.4383 0.642188 17.3212 0.398578C17.2041 0.154922 16.9578 0 16.6875 0H12.4688C12.2716 0 12.0836 0.0827344 11.9505 0.228L11.469 0.753281C9.69047 2.69344 9.25036 5.49286 10.3477 7.88513C10.4593 8.12827 10.466 8.39892 10.3668 8.64736C10.2675 8.8958 10.0761 9.08728 9.82772 9.18661L5.61459 10.8719C3.95077 11.5374 2.5403 12.6735 1.53562 14.1574C0.531047 15.6413 0 17.3729 0 19.1648V23.2969C0 23.6852 0.314812 24 0.703125 24H10.3125C10.7008 24 11.0156 23.6852 11.0156 23.2969V20.6492C11.0156 18.0555 12.5258 15.6526 14.863 14.5277C16.188 13.89 17.1757 12.7123 17.5728 11.2965C17.9699 9.88073 17.7388 8.36119 16.9387 7.12744C15.7363 5.27325 15.856 2.86805 17.2365 1.14239V1.14239ZM16.2188 10.9168C15.9307 11.9438 15.2143 12.798 14.2532 13.2606C12.8603 13.931 11.6893 14.9771 10.8668 16.2859C10.0441 17.5946 9.60938 19.1034 9.60938 20.6492V22.5938H1.40625V21.1875H3.51562C3.90394 21.1875 4.21875 20.8727 4.21875 20.4844C4.21875 20.0961 3.90394 19.7812 3.51562 19.7812H1.40625V19.1648C1.40625 17.5418 1.91709 16.0159 2.81714 14.7656H7.03125C7.41956 14.7656 7.73438 14.4508 7.73438 14.0625C7.73438 13.6742 7.41956 13.3594 7.03125 13.3594H4.13634C4.72655 12.8742 5.39798 12.4731 6.13692 12.1776L10.35 10.4923C10.9595 10.2485 11.4292 9.77859 11.6727 9.16908C11.9162 8.55956 11.8996 7.89534 11.6259 7.29877C11.2765 6.53695 11.1258 5.7225 11.1634 4.92188H12.375C12.7633 4.92188 13.0781 4.60706 13.0781 4.21875C13.0781 3.83044 12.7633 3.51562 12.375 3.51562H11.4308C11.655 2.85712 12.015 2.23856 12.5055 1.70348L12.7781 1.40625H15.4042C14.5555 3.08817 14.4767 5.05931 15.1917 6.80686H13.7604C13.3721 6.80686 13.0573 7.12167 13.0573 7.50998C13.0573 7.8983 13.3721 8.21311 13.7604 8.21311H15.9444C16.3718 9.04317 16.4733 10.0093 16.2188 10.9168V10.9168Z" fill="url(#paint0_linear)"/>
<path d="M20.25 7.91738V9.1875C20.25 9.57581 20.5648 9.89062 20.9531 9.89062C21.3414 9.89062 21.6562 9.57581 21.6562 9.1875V7.91738C22.737 7.61048 23.5312 6.61533 23.5312 5.4375V3.5625C23.5312 2.14092 22.3747 0.984375 20.9531 0.984375C19.5315 0.984375 18.375 2.14092 18.375 3.5625V5.4375C18.375 6.61533 19.1692 7.61044 20.25 7.91738ZM19.7812 3.5625C19.7812 2.91633 20.307 2.39062 20.9531 2.39062C21.5993 2.39062 22.125 2.91633 22.125 3.5625V5.4375C22.125 6.08367 21.5993 6.60938 20.9531 6.60938C20.307 6.60938 19.7812 6.08367 19.7812 5.4375V3.5625Z" fill="url(#paint1_linear)"/>
<path d="M4.21875 7.02675V8.20312C4.21875 8.59144 4.53356 8.90625 4.92188 8.90625C5.31019 8.90625 5.625 8.59144 5.625 8.20312V7.02675C6.7058 6.71986 7.5 5.7247 7.5 4.54688V2.57812C7.5 1.15655 6.34345 0 4.92188 0C3.5003 0 2.34375 1.15655 2.34375 2.57812V4.54688C2.34375 5.7247 3.13795 6.71981 4.21875 7.02675ZM3.75 2.57812C3.75 1.93195 4.2757 1.40625 4.92188 1.40625C5.56805 1.40625 6.09375 1.93195 6.09375 2.57812V4.54688C6.09375 5.19305 5.56805 5.71875 4.92188 5.71875C4.2757 5.71875 3.75 5.19305 3.75 4.54688V2.57812Z" fill="url(#paint2_linear)"/>
<path d="M21.4219 15.0938C20.0003 15.0938 18.8438 16.2503 18.8438 17.6719V19.5469C18.8438 20.7247 19.638 21.7198 20.7188 22.0267V23.2969C20.7188 23.6852 21.0336 24 21.4219 24C21.8102 24 22.125 23.6852 22.125 23.2969V22.0267C23.2058 21.7199 24 20.7247 24 19.5469V17.6719C24 16.2503 22.8435 15.0938 21.4219 15.0938ZM22.5938 19.5469C22.5938 20.193 22.068 20.7188 21.4219 20.7188C20.7757 20.7188 20.25 20.193 20.25 19.5469V17.6719C20.25 17.0257 20.7757 16.5 21.4219 16.5C22.068 16.5 22.5938 17.0257 22.5938 17.6719V19.5469Z" fill="url(#paint3_linear)"/>
<path d="M15.3281 16.5C14.165 16.5 13.2188 17.4463 13.2188 18.6094V20.0156C13.2188 20.9323 13.8066 21.7138 14.625 22.0041V23.2969C14.625 23.6852 14.9398 24 15.3281 24C15.7164 24 16.0312 23.6852 16.0312 23.2969V22.0041C16.8496 21.7138 17.4375 20.9323 17.4375 20.0156V18.6094C17.4375 17.4463 16.4912 16.5 15.3281 16.5ZM16.0312 20.0156C16.0312 20.4033 15.7158 20.7188 15.3281 20.7188C14.9404 20.7188 14.625 20.4033 14.625 20.0156V18.6094C14.625 18.2217 14.9404 17.9062 15.3281 17.9062C15.7158 17.9062 16.0312 18.2217 16.0312 18.6094V20.0156Z" fill="url(#paint4_linear)"/>
<path d="M8.02051 17.166H6.14551C5.7572 17.166 5.44238 17.4808 5.44238 17.8691C5.44238 18.2574 5.7572 18.5722 6.14551 18.5722H8.02051C8.40882 18.5722 8.72363 18.2574 8.72363 17.8691C8.72363 17.4808 8.40887 17.166 8.02051 17.166Z" fill="url(#paint5_linear)"/>
<path d="M14.0625 10.5469H12.1875C11.7992 10.5469 11.4844 10.8617 11.4844 11.25C11.4844 11.6383 11.7992 11.9531 12.1875 11.9531H14.0625C14.4508 11.9531 14.7656 11.6383 14.7656 11.25C14.7656 10.8617 14.4508 10.5469 14.0625 10.5469Z" fill="url(#paint6_linear)"/>
<defs>
<linearGradient id="paint0_linear" x1="-1.136" y1="-9.3913" x2="31.8862" y2="5.2195" gradientUnits="userSpaceOnUse">
<stop stop-color="#BD5A8F"/>
<stop offset="1" stop-color="#5B23B5"/>
</linearGradient>
<linearGradient id="paint1_linear" x1="18.0452" y1="-2.50068" x2="28.2813" y2="1.04205" gradientUnits="userSpaceOnUse">
<stop stop-color="#BD5A8F"/>
<stop offset="1" stop-color="#5B23B5"/>
</linearGradient>
<linearGradient id="paint2_linear" x1="2.01399" y1="-3.48505" x2="12.2501" y2="0.0576771" gradientUnits="userSpaceOnUse">
<stop stop-color="#BD5A8F"/>
<stop offset="1" stop-color="#5B23B5"/>
</linearGradient>
<linearGradient id="paint3_linear" x1="18.514" y1="11.6087" x2="28.7501" y2="15.1514" gradientUnits="userSpaceOnUse">
<stop stop-color="#BD5A8F"/>
<stop offset="1" stop-color="#5B23B5"/>
</linearGradient>
<linearGradient id="paint4_linear" x1="12.9489" y1="13.5652" x2="21.3744" y2="16.3984" gradientUnits="userSpaceOnUse">
<stop stop-color="#BD5A8F"/>
<stop offset="1" stop-color="#5B23B5"/>
</linearGradient>
<linearGradient id="paint5_linear" x1="5.23254" y1="16.6157" x2="7.70872" y2="20.0697" gradientUnits="userSpaceOnUse">
<stop stop-color="#BD5A8F"/>
<stop offset="1" stop-color="#5B23B5"/>
</linearGradient>
<linearGradient id="paint6_linear" x1="11.2745" y1="9.9966" x2="13.7507" y2="13.4506" gradientUnits="userSpaceOnUse">
<stop stop-color="#BD5A8F"/>
<stop offset="1" stop-color="#5B23B5"/>
</linearGradient>
</defs>
</svg>
