<svg width="24" height="24" viewBox="0 0 24 24" fill="none" xmlns="http://www.w3.org/2000/svg">
<path d="M19.8865 22.5823C20.0221 22.2827 20.0983 21.9507 20.0983 21.601C20.0983 21.0147 19.756 20.3851 19.0519 19.6761C18.5968 19.218 18.1447 18.8861 18.1256 18.8722L17.7108 18.569L17.2959 18.8722C17.2769 18.8861 16.8248 19.2179 16.3697 19.6761C15.6656 20.3851 15.3232 21.0147 15.3232 21.601C15.3232 21.9507 15.3994 22.2827 15.5351 22.5823H14.1757C14.3113 22.2827 14.3875 21.9507 14.3875 21.601C14.3875 21.0147 14.0452 20.3851 13.341 19.6761C12.886 19.218 12.4338 18.8861 12.4148 18.8722L12 18.5691L11.5852 18.8722C11.5661 18.8861 11.114 19.218 10.6589 19.6762C9.9548 20.3852 9.61247 21.0148 9.61247 21.601C9.61247 21.9507 9.68864 22.2827 9.8243 22.5823H8.46487C8.60053 22.2827 8.6767 21.9507 8.6767 21.601C8.6767 21.0148 8.33442 20.3852 7.63027 19.6762C7.1752 19.218 6.72305 18.8861 6.70402 18.8722L6.28917 18.5691L5.87433 18.8722C5.8553 18.8861 5.40314 19.218 4.94808 19.6762C4.24397 20.3852 3.90164 21.0148 3.90164 21.601C3.90164 21.9507 3.97781 22.2827 4.11347 22.5823H0V23.9886H24V22.5823H19.8865V22.5823ZM16.7295 21.601C16.7295 21.3615 17.1599 20.8234 17.7083 20.3432C17.8156 20.4372 17.9348 20.547 18.054 20.6671C18.5587 21.1751 18.692 21.5001 18.692 21.601C18.692 22.1421 18.2518 22.5823 17.7107 22.5823C17.1697 22.5823 16.7295 22.1421 16.7295 21.601V21.601ZM11.0187 21.601C11.0187 21.3615 11.4491 20.8234 11.9975 20.3432C12.1049 20.4372 12.224 20.547 12.3433 20.6671C12.8479 21.1751 12.9812 21.5001 12.9812 21.601C12.9812 22.1421 12.541 22.5823 12 22.5823C11.4589 22.5823 11.0187 22.1421 11.0187 21.601V21.601ZM5.30794 21.601C5.30794 21.3615 5.7383 20.8234 6.28669 20.3432C6.39408 20.4372 6.51323 20.547 6.63248 20.6671C7.13714 21.1751 7.27045 21.5001 7.27045 21.601C7.27045 22.1421 6.83025 22.5823 6.28917 22.5823C5.74809 22.5823 5.30794 22.1421 5.30794 21.601V21.601Z" fill="url(#paint0_linear)"/>
<path d="M3 14.8683C3 16.366 4.21847 17.5845 5.71617 17.5845H18.2838C19.7815 17.5845 21 16.366 21 14.8683V9.85524H23.8593V5.78223H0.140625V9.85524H3V14.8683ZM21 7.18848H22.4531V8.44899H21V7.18848ZM4.40625 7.18848H19.5938V14.8683C19.5938 15.5906 19.0061 16.1783 18.2838 16.1783H5.71617C4.99387 16.1783 4.40625 15.5906 4.40625 14.8683V7.18848ZM1.54688 8.44899V7.18848H3V8.44899H1.54688Z" fill="url(#paint1_linear)"/>
<path d="M8.31055 3.22829C8.31055 3.10023 8.32719 3.07098 8.39736 2.94774C8.50527 2.75823 8.66834 2.47177 8.66834 1.97143C8.66834 1.47108 8.50527 1.18463 8.39736 0.995116C8.32723 0.871928 8.31055 0.842678 8.31055 0.714569V0.0114441H6.9043V0.714569C6.9043 1.21491 7.06738 1.50137 7.17528 1.69088C7.24541 1.81407 7.26209 1.84332 7.26209 1.97143C7.26209 2.09954 7.24545 2.12874 7.17528 2.25198C7.06738 2.44149 6.9043 2.72794 6.9043 3.22829V3.93141H8.31055V3.22829Z" fill="url(#paint2_linear)"/>
<path d="M12.5244 3.22829C12.5244 3.10023 12.5411 3.07098 12.6112 2.94774C12.7191 2.75823 12.8822 2.47177 12.8822 1.97143C12.8822 1.47108 12.7191 1.18463 12.6112 0.995116C12.5411 0.871928 12.5244 0.842678 12.5244 0.714569V0.0114441H11.1182V0.714569C11.1182 1.21491 11.2812 1.50137 11.3891 1.69088C11.4593 1.81407 11.476 1.84332 11.476 1.97143C11.476 2.09954 11.4593 2.12874 11.3891 2.25198C11.2812 2.44149 11.1182 2.72794 11.1182 3.22829V3.93141H12.5244V3.22829Z" fill="url(#paint3_linear)"/>
<path d="M16.7383 3.22829C16.7383 3.10023 16.7549 3.07098 16.8251 2.94774C16.933 2.75823 17.0961 2.47177 17.0961 1.97143C17.0961 1.47108 16.933 1.18463 16.8251 0.995116C16.755 0.871928 16.7383 0.842678 16.7383 0.714569V0.0114441H15.332V0.714569C15.332 1.21491 15.4951 1.50137 15.603 1.69088C15.6731 1.81407 15.6898 1.84332 15.6898 1.97143C15.6898 2.09954 15.6732 2.12874 15.603 2.25198C15.4951 2.44149 15.332 2.72794 15.332 3.22829V3.93141H16.7383V3.22829Z" fill="url(#paint4_linear)"/>
<defs>
<linearGradient id="paint0_linear" x1="22.3171" y1="31.7155" x2="17.0454" y2="15.146" gradientUnits="userSpaceOnUse">
<stop stop-color="#278CB9"/>
<stop offset="1" stop-color="#47C9CB"/>
</linearGradient>
<linearGradient id="paint1_linear" x1="22.1961" y1="34.4115" x2="3.51842" y2="7.76974" gradientUnits="userSpaceOnUse">
<stop stop-color="#278CB9"/>
<stop offset="1" stop-color="#47C9CB"/>
</linearGradient>
<linearGradient id="paint2_linear" x1="8.54465" y1="9.52028" x2="4.71944" y2="8.29849" gradientUnits="userSpaceOnUse">
<stop stop-color="#278CB9"/>
<stop offset="1" stop-color="#47C9CB"/>
</linearGradient>
<linearGradient id="paint3_linear" x1="12.7585" y1="9.52028" x2="8.93331" y2="8.29849" gradientUnits="userSpaceOnUse">
<stop stop-color="#278CB9"/>
<stop offset="1" stop-color="#47C9CB"/>
</linearGradient>
<linearGradient id="paint4_linear" x1="16.9724" y1="9.52028" x2="13.1472" y2="8.29849" gradientUnits="userSpaceOnUse">
<stop stop-color="#278CB9"/>
<stop offset="1" stop-color="#47C9CB"/>
</linearGradient>
</defs>
</svg>
