<svg width="24" height="24" viewBox="0 0 24 24" fill="none" xmlns="http://www.w3.org/2000/svg">
<path d="M6.23671 21.159C6.36013 20.797 6.51547 20.3404 6.67532 19.869C7.15967 18.4408 8.49778 17.4811 10.0051 17.4811H13.4533C15.3918 17.4811 16.9689 19.0582 16.9689 20.9967V21.3095C13.734 21.8623 9.51983 21.8433 6.23671 21.159ZM2.1453 3.32303C2.80857 2.66337 3.68844 2.30024 4.62424 2.30024H4.62583C5.56547 2.30066 6.44854 2.66712 7.11237 3.33213L8.43783 4.65993V7.02591C8.43783 7.02591 6.13537 4.34077 6.12267 4.32802C5.72424 3.92959 5.19456 3.71021 4.63113 3.71021C4.0677 3.71021 3.53798 3.92963 3.13959 4.32802L2.6498 4.81781L1.6774 3.81901L2.1453 3.32303ZM5.11422 7.58915C5.00584 7.39823 4.8146 7.2689 4.59705 7.23947C4.3796 7.21003 4.16075 7.28386 4.00555 7.43906L2.60668 8.83793C2.33261 9.112 1.88669 9.11205 1.61257 8.83793C1.33789 8.5632 1.33775 8.11855 1.61257 7.84377L4.13394 5.32241C4.26673 5.18961 4.44331 5.11649 4.63113 5.11649C4.81146 5.11649 4.98137 5.18389 5.11215 5.3068L9.14095 10.007V13.9656C9.14095 14.3539 9.45575 14.6687 9.84406 14.6687H11.2972V16.075H10.0052C7.89489 16.075 6.02161 17.4182 5.34362 19.4175C5.16184 19.9536 4.99201 20.4525 4.86583 20.8224C4.41663 20.6939 3.96636 20.5456 3.53441 20.3772C3.53198 20.3763 3.52959 20.3754 3.5272 20.3744C3.61884 20.1042 3.60937 20.1108 4.08626 18.7377C5.39509 14.9692 6.87856 10.6979 5.11422 7.58915V7.58915ZM12.0002 23.106C14.9628 23.106 18.2966 22.7534 21.0722 21.6501C22.9312 20.9119 23.7288 20.1525 23.7899 20.0917C24.0668 19.8194 24.0705 19.3742 23.7981 19.0974C23.5272 18.8219 23.0852 18.8172 22.8073 19.0858C22.8066 19.0864 22.8044 19.0885 22.7999 19.0925C22.7335 19.1525 22.24 19.5807 21.1875 20.0702C21.1812 13.5683 21.2015 13.9288 21.1699 13.5513C21.8139 13.86 22.5937 14.4285 22.5937 15.3718C22.5937 15.7601 22.9086 16.0749 23.2969 16.0749C23.6852 16.0749 24 15.7601 24 15.3718V10.45C24 8.89919 22.7383 7.63752 21.1875 7.63752C19.9379 7.63752 18.8765 8.45698 18.5112 9.58655C17.8376 9.23973 17.0742 9.04375 16.2657 9.04375H10.1674C10.1674 9.04375 9.94713 8.78679 9.84401 8.66646C9.84401 7.66724 9.84401 4.36903 9.84401 4.36903C9.84401 4.18275 9.77009 4.00412 9.63852 3.87231L8.10756 2.33863C7.17823 1.40761 5.94192 0.894575 4.62644 0.894012C4.62565 0.894012 4.62504 0.894012 4.62424 0.894012C3.30965 0.894012 2.07363 1.40597 1.14402 2.33563C1.13919 2.34046 1.13446 2.34533 1.12977 2.3503L0.192096 3.34413C-0.0664149 3.61815 -0.062993 4.04719 0.199784 4.3171L1.65537 5.81224L0.61823 6.84938C-0.206006 7.67357 -0.206147 9.00784 0.61823 9.83222C1.44059 10.6546 2.77866 10.6546 3.60102 9.83222L4.26832 9.16497C5.04423 11.6931 3.83689 15.1694 2.7578 18.2762C2.33622 19.49 2.26984 19.7008 2.24181 19.7833C1.51817 19.3899 1.19717 19.0896 1.19239 19.0854C0.915272 18.8171 0.473248 18.8219 0.202268 19.0974C-0.0700242 19.3743 -0.0663211 19.8194 0.210518 20.0917C0.345656 20.2259 0.544872 20.3758 0.701572 20.4847C3.61677 22.5441 8.42597 23.106 12.0002 23.106V23.106ZM14.8596 13.9655V10.45H16.2658C18.2043 10.45 19.7813 12.0271 19.7813 13.9655V20.6233C19.3724 20.7588 18.9046 20.8946 18.3751 21.0219V20.9966C18.3751 18.2827 16.1672 16.0748 13.4533 16.0748H12.7033V14.6686H14.1564C14.5447 14.6687 14.8596 14.3539 14.8596 13.9655V13.9655ZM10.5471 10.45H13.4533V13.2624H10.5471V10.45ZM20.7306 11.8959C20.493 11.3855 20.1706 10.9224 19.7813 10.5248V10.45C19.7813 9.67463 20.4122 9.0438 21.1876 9.0438C21.963 9.0438 22.5938 9.67463 22.5938 10.45V12.7666C22.4873 12.6885 22.3748 12.6135 22.2566 12.5415C21.6126 12.1489 20.9691 11.9581 20.7306 11.8959V11.8959Z" fill="url(#paint0_linear)"/>
<defs>
<linearGradient id="paint0_linear" x1="22.3171" y1="54.7746" x2="-13.7955" y2="27.0799" gradientUnits="userSpaceOnUse">
<stop stop-color="#278CB9"/>
<stop offset="1" stop-color="#47C9CB"/>
</linearGradient>
</defs>
</svg>
