<svg width="24" height="24" viewBox="0 0 24 24" fill="none" xmlns="http://www.w3.org/2000/svg">
<path d="M21.1406 8.48438H19.7344C19.3461 8.48438 19.0312 8.79919 19.0312 9.1875V15.5156H18.3281V14.8125C18.3281 13.6494 17.3819 12.7031 16.2188 12.7031H12.7031V11.25H15.1425C16.6372 11.25 17.8206 9.97908 17.7141 8.48817L17.2477 1.95909C17.1693 0.860531 16.2451 0 15.1437 0H8.85628C7.75491 0 6.83072 0.860531 6.75225 1.95909L6.28589 8.48822C6.17939 9.97903 7.3628 11.25 8.85745 11.25H11.2969V12.7031H7.78125C6.61814 12.7031 5.67188 13.6494 5.67188 14.8125V15.5156H4.96875V9.1875C4.96875 8.79919 4.65394 8.48438 4.26562 8.48438H2.85938C2.47106 8.48438 2.15625 8.79919 2.15625 9.1875C2.15625 9.57581 2.47106 9.89062 2.85938 9.89062H3.5625V16.2188C3.5625 16.6071 3.87731 16.9219 4.26562 16.9219H9.89062V19.7812H6.375C5.21189 19.7812 4.26562 20.7275 4.26562 21.8906C4.26562 23.0537 5.21189 24 6.375 24C7.82958 24 8.84859 22.5554 8.36344 21.1875H10.0116C9.52547 22.5579 10.5486 24 12 24C13.4546 24 14.4736 22.5554 13.9884 21.1875H15.6366C15.1505 22.5579 16.1736 24 17.625 24C18.7881 24 19.7344 23.0537 19.7344 21.8906C19.7344 20.7275 18.7881 19.7812 17.625 19.7812H14.1094V16.9219H19.7344C20.1227 16.9219 20.4375 16.6071 20.4375 16.2188V9.89062H21.1406C21.5289 9.89062 21.8438 9.57581 21.8438 9.1875C21.8438 8.79919 21.5289 8.48438 21.1406 8.48438V8.48438ZM7.68853 8.58839L8.15489 2.05927C8.18105 1.69308 8.48916 1.40625 8.85628 1.40625H15.1438C15.5109 1.40625 15.819 1.69308 15.8451 2.05931L16.3115 8.58839C16.3597 9.26339 15.8273 9.8438 15.1425 9.8438H8.85745C8.18072 9.84375 7.63978 9.27136 7.68853 8.58839ZM7.07812 14.8125C7.07812 14.4248 7.39355 14.1094 7.78125 14.1094H16.2188C16.6065 14.1094 16.9219 14.4248 16.9219 14.8125V15.5156C14.8695 15.5156 9.12623 15.5156 7.07812 15.5156V14.8125ZM7.07812 21.8906C7.07812 22.2783 6.7627 22.5938 6.375 22.5938C5.9873 22.5938 5.67188 22.2783 5.67188 21.8906C5.67188 21.5029 5.9873 21.1875 6.375 21.1875C6.7627 21.1875 7.07812 21.5029 7.07812 21.8906ZM12 22.5938C11.6123 22.5938 11.2969 22.2783 11.2969 21.8906C11.2969 21.5029 11.6123 21.1875 12 21.1875C12.3877 21.1875 12.7031 21.5029 12.7031 21.8906C12.7031 22.2783 12.3877 22.5938 12 22.5938ZM17.625 22.5938C17.2373 22.5938 16.9219 22.2783 16.9219 21.8906C16.9219 21.5029 17.2373 21.1875 17.625 21.1875C18.0127 21.1875 18.3281 21.5029 18.3281 21.8906C18.3281 22.2783 18.0127 22.5938 17.625 22.5938ZM12.7031 19.7812H11.2969V16.9219H12.7031V19.7812Z" fill="url(#paint0_linear)"/>
<path d="M10.125 4.96875H13.875C14.2633 4.96875 14.5781 4.65394 14.5781 4.26562C14.5781 3.87731 14.2633 3.5625 13.875 3.5625H10.125C9.73669 3.5625 9.42188 3.87731 9.42188 4.26562C9.42188 4.65394 9.73669 4.96875 10.125 4.96875Z" fill="url(#paint1_linear)"/>
<path d="M14.0625 6.375H9.9375C9.54919 6.375 9.23438 6.68981 9.23438 7.07812C9.23438 7.46644 9.54919 7.78125 9.9375 7.78125H14.0625C14.4508 7.78125 14.7656 7.46644 14.7656 7.07812C14.7656 6.68981 14.4508 6.375 14.0625 6.375Z" fill="url(#paint2_linear)"/>
<defs>
<linearGradient id="paint0_linear" x1="20.4632" y1="58.2178" x2="-14.6724" y2="37.7609" gradientUnits="userSpaceOnUse">
<stop stop-color="#278CB9"/>
<stop offset="1" stop-color="#47C9CB"/>
</linearGradient>
<linearGradient id="paint1_linear" x1="14.2166" y1="6.9737" x2="12.6313" y2="2.84823" gradientUnits="userSpaceOnUse">
<stop stop-color="#278CB9"/>
<stop offset="1" stop-color="#47C9CB"/>
</linearGradient>
<linearGradient id="paint2_linear" x1="14.3778" y1="9.7862" x2="12.8747" y2="5.59001" gradientUnits="userSpaceOnUse">
<stop stop-color="#278CB9"/>
<stop offset="1" stop-color="#47C9CB"/>
</linearGradient>
</defs>
</svg>
