<svg width="24" height="24" viewBox="0 0 24 24" fill="none" xmlns="http://www.w3.org/2000/svg">
<path d="M19.7457 10.326C19.6505 10.0382 19.3813 9.84375 19.0781 9.84375H4.9219C4.61868 9.84375 4.3497 10.0382 4.2543 10.326L0.0355732 23.076C-0.0352882 23.2902 0.000966463 23.5255 0.133168 23.7086C0.26537 23.8915 0.477405 23.9999 0.703173 23.9999H23.2968C23.5226 23.9999 23.7346 23.8915 23.8668 23.7086C23.999 23.5255 24.0353 23.2902 23.9644 23.076L19.7457 10.326ZM19.9815 15.5156H12.7031V11.25H18.5702L19.9815 15.5156ZM5.42984 11.25H11.2969V15.5156H4.01847L5.42984 11.25ZM3.5532 16.9218H11.2969V22.5937H1.67637L3.5532 16.9218ZM12.7031 22.5937V16.9218H20.4468L22.3236 22.5937H12.7031Z" fill="url(#paint0_linear)"/>
<path d="M15.5156 6.32816C15.5156 6.71652 15.8304 7.03128 16.2187 7.03128C16.6071 7.03128 16.9219 6.71652 16.9219 6.32816C16.9219 5.16508 17.8681 4.21879 19.0312 4.21879C19.4196 4.21879 19.7343 3.90404 19.7343 3.51567C19.7343 3.12731 19.4196 2.81255 19.0312 2.81255C17.8681 2.81255 16.9219 1.86626 16.9219 0.703183C16.9219 0.314818 16.6071 6.10352e-05 16.2187 6.10352e-05C15.8304 6.10352e-05 15.5156 0.314818 15.5156 0.703183C15.5156 1.86626 14.5693 2.81255 13.4062 2.81255C13.0179 2.81255 12.7031 3.12731 12.7031 3.51567C12.7031 3.90404 13.0179 4.21879 13.4062 4.21879C14.5693 4.21879 15.5156 5.16508 15.5156 6.32816ZM16.2187 2.81035C16.4194 3.0775 16.6571 3.31517 16.9241 3.51567C16.6569 3.71635 16.4194 3.95402 16.2187 4.22099C16.0182 3.95384 15.7806 3.71635 15.5134 3.51567C15.7806 3.31517 16.0182 3.0775 16.2187 2.81035Z" fill="url(#paint1_linear)"/>
<path d="M4.96875 5.62504C6.13183 5.62504 7.07811 6.57133 7.07811 7.73441C7.07811 8.12277 7.39287 8.43753 7.78123 8.43753C8.1696 8.43753 8.48436 8.12277 8.48436 7.73441C8.48436 6.57133 9.43064 5.62504 10.5937 5.62504C10.9821 5.62504 11.2968 5.31029 11.2968 4.92192C11.2968 4.53356 10.9821 4.2188 10.5937 4.2188C9.43064 4.2188 8.48436 3.27251 8.48436 2.10943C8.48436 1.72107 8.1696 1.40631 7.78123 1.40631C7.39287 1.40631 7.07811 1.72107 7.07811 2.10943C7.07811 3.27251 6.13183 4.2188 4.96875 4.2188C4.58038 4.2188 4.26562 4.53356 4.26562 4.92192C4.26562 5.31029 4.58038 5.62504 4.96875 5.62504ZM7.78123 4.2166C7.98192 4.48375 8.21959 4.72142 8.48655 4.92192C8.2194 5.1226 7.98192 5.36027 7.78123 5.62724C7.58074 5.36009 7.34307 5.1226 7.07592 4.92192C7.34307 4.72142 7.58074 4.48375 7.78123 4.2166Z" fill="url(#paint2_linear)"/>
<defs>
<linearGradient id="paint0_linear" x1="22.3171" y1="44.183" x2="-1.11117" y2="15.9914" gradientUnits="userSpaceOnUse">
<stop stop-color="#278CB9"/>
<stop offset="1" stop-color="#47C9CB"/>
</linearGradient>
<linearGradient id="paint1_linear" x1="19.2413" y1="17.056" x2="8.06792" y2="9.12551" gradientUnits="userSpaceOnUse">
<stop stop-color="#278CB9"/>
<stop offset="1" stop-color="#47C9CB"/>
</linearGradient>
<linearGradient id="paint2_linear" x1="10.8038" y1="18.4622" x2="-0.369577" y2="10.5318" gradientUnits="userSpaceOnUse">
<stop stop-color="#278CB9"/>
<stop offset="1" stop-color="#47C9CB"/>
</linearGradient>
</defs>
</svg>
