<svg width="24" height="24" viewBox="0 0 24 24" fill="none" xmlns="http://www.w3.org/2000/svg">
<path d="M11.9531 15.5156C11.7846 15.5156 11.619 15.5283 11.4567 15.5514L9.93506 12.1878L12.5894 6.22981C13.4412 4.50649 12.7547 2.39993 11.0097 1.5274C10.8387 1.4419 10.6402 1.42971 10.4599 1.4937C10.2797 1.55768 10.1333 1.69231 10.0546 1.86654L7.6605 7.15971L5.26589 1.86645C5.18705 1.69221 5.04066 1.55763 4.86052 1.49365C4.68038 1.42967 4.48181 1.44185 4.31081 1.52735C2.56448 2.40054 1.87973 4.50767 2.73117 6.22995L5.38833 12.1834L3.873 15.5337C3.75544 15.5218 3.63623 15.5156 3.51562 15.5156C1.57711 15.5156 0 17.0928 0 19.0313C0 20.9698 1.57711 22.5469 3.51562 22.5469C5.45414 22.5469 7.03125 20.9698 7.03125 19.0313C7.03125 18.9316 7.02605 18.8332 7.01789 18.7356L7.66467 17.2839L8.43787 19.0163C8.43787 19.0213 8.4375 19.0262 8.4375 19.0313C8.4375 20.9698 10.0146 22.5469 11.9531 22.5469C13.8916 22.5469 15.4688 20.9698 15.4688 19.0313C15.4688 17.0928 13.8916 15.5156 11.9531 15.5156ZM4.00936 5.64349C4.00519 5.63412 4.00078 5.62484 3.99619 5.6156C3.58341 4.78999 3.76753 3.84452 4.34011 3.23182L6.88884 8.86582L6.16341 10.4697L4.00936 5.64349ZM3.51562 21.1406C2.35252 21.1406 1.40625 20.1944 1.40625 19.0313C1.40625 17.8682 2.35252 16.9219 3.51562 16.9219C4.67873 16.9219 5.625 17.8682 5.625 19.0313C5.625 20.1944 4.67873 21.1406 3.51562 21.1406ZM6.3008 16.8896C6.00928 16.5114 5.64286 16.194 5.22361 15.9599L10.9804 3.23187C11.5569 3.84888 11.7345 4.79515 11.3242 5.6156C11.3196 5.62493 11.3151 5.6344 11.3108 5.64392L6.3008 16.8896ZM9.08119 17.0074L8.43394 15.5572L9.16922 13.9068L10.1285 16.0273C9.71578 16.2789 9.35948 16.6137 9.08119 17.0074ZM11.9531 21.1406C10.79 21.1406 9.84375 20.1944 9.84375 19.0313C9.84375 17.8682 10.79 16.9219 11.9531 16.9219C13.1162 16.9219 14.0625 17.8682 14.0625 19.0313C14.0625 20.1944 13.1162 21.1406 11.9531 21.1406Z" fill="url(#paint0_linear)"/>
<path d="M21.8906 1.45312C21.3605 1.45312 18.1052 1.45312 17.6719 1.45312C17.2836 1.45312 16.9688 1.76794 16.9688 2.15625C16.9688 2.54456 17.2836 2.85938 17.6719 2.85938H19.7812V4.26562H17.6719C17.2836 4.26562 16.9688 4.58044 16.9688 4.96875C16.9688 5.35706 17.2836 5.67188 17.6719 5.67188H19.7812V7.07812H17.6719C17.2836 7.07812 16.9688 7.39294 16.9688 7.78125C16.9688 8.16956 17.2836 8.48438 17.6719 8.48438H19.7812V9.89062H17.6719C17.2836 9.89062 16.9688 10.2054 16.9688 10.5938C16.9688 10.9821 17.2836 11.2969 17.6719 11.2969H19.7812V12.7031H17.6719C17.2836 12.7031 16.9688 13.0179 16.9688 13.4062C16.9688 13.7946 17.2836 14.1094 17.6719 14.1094H19.7812V15.5156H17.6719C17.2836 15.5156 16.9688 15.8304 16.9688 16.2188C16.9688 16.6071 17.2836 16.9219 17.6719 16.9219H19.7812V18.3281H17.6719C17.2836 18.3281 16.9688 18.6429 16.9688 19.0312C16.9688 19.4196 17.2836 19.7344 17.6719 19.7344H19.7812V21.1406H17.6719C17.2836 21.1406 16.9688 21.4554 16.9688 21.8438C16.9688 22.2321 17.2836 22.5469 17.6719 22.5469C18.0717 22.5469 21.3131 22.5469 21.8906 22.5469C23.0537 22.5469 24 21.6006 24 20.4375V3.5625C24 2.39939 23.0537 1.45312 21.8906 1.45312ZM22.5938 20.4375C22.5938 20.8252 22.2783 21.1406 21.8906 21.1406H21.1875V2.85938H21.8906C22.2783 2.85938 22.5938 3.1748 22.5938 3.5625V20.4375Z" fill="url(#paint1_linear)"/>
<defs>
<linearGradient id="paint0_linear" x1="14.3841" y1="52.6212" x2="-14.7012" y2="37.4825" gradientUnits="userSpaceOnUse">
<stop stop-color="#278CB9"/>
<stop offset="1" stop-color="#47C9CB"/>
</linearGradient>
<linearGradient id="paint1_linear" x1="23.507" y1="52.6211" x2="7.59536" y2="48.8566" gradientUnits="userSpaceOnUse">
<stop stop-color="#278CB9"/>
<stop offset="1" stop-color="#47C9CB"/>
</linearGradient>
</defs>
</svg>
