<svg width="24" height="24" viewBox="0 0 24 24" fill="none" xmlns="http://www.w3.org/2000/svg">
<path d="M24 14.7629C24 13.4976 22.9706 12.4681 21.7052 12.4681H2.82008V3.08927C2.82008 2.16174 3.5747 1.40716 4.50223 1.40716H6.04386C6.30427 1.40716 6.55269 1.51895 6.72546 1.71379L7.43053 2.50919C7.38835 2.71416 7.36613 2.92639 7.36613 3.14364V4.06591C7.09325 4.16252 6.89743 4.42213 6.89743 4.72811C6.89743 5.11639 7.21221 5.43117 7.60049 5.43117H13.417C13.8053 5.43117 14.12 5.11639 14.12 4.72811C14.12 4.42213 13.9242 4.16252 13.6513 4.06591V3.14364C13.6513 1.41077 12.2416 0.0010376 10.5087 0.0010376C9.53846 0.0010376 8.66966 0.443217 8.09273 1.13648L7.77766 0.78111C7.3382 0.285309 6.70629 0.0010376 6.04381 0.0010376H4.50223C2.79936 0.0010376 1.41395 1.3864 1.41395 3.08927V12.5619C1.41395 12.5891 1.41588 12.6158 1.41888 12.6423C0.58687 12.9871 0 13.8076 0 14.7629C0 15.7163 0.584574 16.5355 1.41395 16.8816V18.1523C1.41395 20.6688 3.46132 22.7162 5.97787 22.7162H6.37969V23.2959C6.37969 23.6841 6.69447 23.9989 7.08275 23.9989C7.47103 23.9989 7.78582 23.6841 7.78582 23.2959V22.7162H16.2141V23.2959C16.2141 23.6841 16.5289 23.9989 16.9172 23.9989C17.3055 23.9989 17.6203 23.6841 17.6203 23.2959V22.7162H18.0221C20.5386 22.7162 22.586 20.6688 22.586 18.1523V16.8816C23.4154 16.5355 24 15.7162 24 14.7629ZM10.5087 1.40712C11.4662 1.40712 12.2452 2.18611 12.2452 3.14359V4.025H8.77221V3.14364C8.77221 2.18611 9.55116 1.40712 10.5087 1.40712V1.40712ZM18.0221 21.31H5.97787C4.23666 21.31 2.82008 19.8935 2.82008 18.1523V17.0576H21.1799V18.1523C21.1799 19.8935 19.7633 21.31 18.0221 21.31ZM21.7052 15.6515H2.29475C1.80476 15.6515 1.40613 15.2529 1.40613 14.7629C1.40613 14.2729 1.80476 13.8743 2.29475 13.8743H21.7052C22.1952 13.8743 22.5939 14.2729 22.5939 14.7629C22.5939 15.2529 22.1952 15.6515 21.7052 15.6515Z" fill="url(#paint0_linear)"/>
<path d="M13.9142 10.2273C13.8543 9.93869 13.6204 9.71371 13.3282 9.66927C13.0382 9.62521 12.7429 9.77469 12.6051 10.0332C12.4672 10.292 12.5065 10.6191 12.704 10.8366C12.9012 11.0537 13.2228 11.1265 13.4938 11.0138C13.7979 10.8873 13.9815 10.5518 13.9142 10.2273V10.2273Z" fill="url(#paint1_linear)"/>
<path d="M11.1017 10.2273C11.0418 9.93864 10.808 9.71371 10.5157 9.66927C10.2258 9.62521 9.93037 9.77473 9.79262 10.0332C9.65468 10.292 9.69395 10.6191 9.89151 10.8366C10.0888 11.0538 10.4102 11.1268 10.6813 11.0138C10.9853 10.887 11.1691 10.5521 11.1017 10.2273Z" fill="url(#paint2_linear)"/>
<path d="M8.29015 10.2273C8.23025 9.93873 7.99632 9.71366 7.70422 9.66927C7.41427 9.62521 7.11885 9.77469 6.98109 10.0332C6.84315 10.292 6.88243 10.6191 7.07999 10.8366C7.27713 11.0537 7.59876 11.1265 7.86977 11.0138C8.17382 10.8873 8.3575 10.5517 8.29015 10.2273Z" fill="url(#paint3_linear)"/>
<path d="M13.9245 7.48299C13.8941 7.19047 13.6813 6.94243 13.3957 6.87063C13.1116 6.79915 12.8026 6.91731 12.6403 7.16193C12.4783 7.40594 12.4846 7.7353 12.6601 7.97078C12.8359 8.20645 13.1475 8.31017 13.429 8.22444C13.7453 8.12826 13.958 7.81296 13.9245 7.48299V7.48299Z" fill="url(#paint4_linear)"/>
<path d="M11.1119 7.48299C11.0815 7.19047 10.8687 6.94248 10.5832 6.87062C10.2988 6.7991 9.99039 6.91754 9.8277 7.16192C9.66496 7.40636 9.67302 7.73464 9.84757 7.97073C10.022 8.20663 10.3359 8.31035 10.6165 8.22496C10.9327 8.12878 11.1454 7.81244 11.1119 7.48299Z" fill="url(#paint5_linear)"/>
<path d="M8.30035 7.48299C8.27002 7.19057 8.05709 6.94243 7.7716 6.87063C7.48747 6.79915 7.17845 6.91731 7.01613 7.16193C6.85372 7.40669 6.86122 7.73436 7.036 7.97073C7.21041 8.20663 7.52431 8.31036 7.80497 8.22496C8.12107 8.12883 8.33381 7.81226 8.30035 7.48299Z" fill="url(#paint6_linear)"/>
<defs>
<linearGradient id="paint0_linear" x1="22.3171" y1="58.2137" x2="-15.8193" y2="31.1435" gradientUnits="userSpaceOnUse">
<stop stop-color="#278CB9"/>
<stop offset="1" stop-color="#47C9CB"/>
</linearGradient>
<linearGradient id="paint1_linear" x1="13.8296" y1="13.0692" x2="11.5973" y2="11.485" gradientUnits="userSpaceOnUse">
<stop stop-color="#278CB9"/>
<stop offset="1" stop-color="#47C9CB"/>
</linearGradient>
<linearGradient id="paint2_linear" x1="11.0171" y1="13.0695" x2="8.78469" y2="11.4853" gradientUnits="userSpaceOnUse">
<stop stop-color="#278CB9"/>
<stop offset="1" stop-color="#47C9CB"/>
</linearGradient>
<linearGradient id="paint3_linear" x1="8.20554" y1="13.0692" x2="5.97331" y2="11.4849" gradientUnits="userSpaceOnUse">
<stop stop-color="#278CB9"/>
<stop offset="1" stop-color="#47C9CB"/>
</linearGradient>
<linearGradient id="paint4_linear" x1="13.8295" y1="10.2564" x2="11.5978" y2="8.67212" gradientUnits="userSpaceOnUse">
<stop stop-color="#278CB9"/>
<stop offset="1" stop-color="#47C9CB"/>
</linearGradient>
<linearGradient id="paint5_linear" x1="11.0169" y1="10.2572" x2="8.78493" y2="8.67315" gradientUnits="userSpaceOnUse">
<stop stop-color="#278CB9"/>
<stop offset="1" stop-color="#47C9CB"/>
</linearGradient>
<linearGradient id="paint6_linear" x1="8.20533" y1="10.2572" x2="5.97338" y2="8.67324" gradientUnits="userSpaceOnUse">
<stop stop-color="#278CB9"/>
<stop offset="1" stop-color="#47C9CB"/>
</linearGradient>
</defs>
</svg>
