<svg width="24" height="24" viewBox="0 0 24 24" fill="none" xmlns="http://www.w3.org/2000/svg">
<path d="M9.02275 12.8532C9.9438 11.9322 11.0905 11.0889 12.3046 10.1963C13.541 9.28708 14.8195 8.34694 15.8712 7.29524C17.5298 5.63668 17.5298 2.93811 15.8712 1.27956C15.1908 0.599131 14.2894 0.165921 13.3334 0.0597277L13.2451 0.0498767C11.0098 -0.198567 9.06984 0.482002 7.47953 2.07235C6.65959 2.8923 5.72991 3.96394 4.74575 5.09851C3.61001 6.4077 2.43566 7.76149 1.24755 8.9496L1.13311 9.06409L1.13523 9.06626C-0.405818 10.7282 -0.36844 13.3343 1.24755 14.9503C2.06509 15.7679 2.98567 16.2387 3.90978 16.3119C3.99547 16.3187 4.08079 16.322 4.16582 16.322C5.07541 16.322 5.94117 15.9348 6.68363 15.1923L9.02275 12.8532ZM8.47944 3.07221C9.76879 1.78286 11.2765 1.25387 13.0887 1.45518L13.177 1.46503C13.8153 1.53597 14.4172 1.82518 14.8714 2.27937C15.4077 2.81571 15.7031 3.52885 15.7031 4.28738C15.7031 5.04591 15.4077 5.75905 14.8714 6.29538C13.9391 7.22765 12.7708 8.09775 11.6273 8.93909L12.2454 5.43632L13.5397 4.14211L12.5398 3.14221L11.2872 4.39479L7.1421 4.50683C7.61632 3.97436 8.06593 3.48572 8.47944 3.07221V3.07221ZM4.16219 14.9077C3.36623 14.9076 2.67586 14.3788 2.24746 13.9504C1.14438 12.8474 1.14438 11.0526 2.24746 9.94946C3.47096 8.72595 4.66204 7.35293 5.81391 6.02516C5.83408 6.00193 5.85407 5.97888 5.87419 5.95569L10.7411 5.82414L9.97345 10.1742C9.27709 10.7127 8.60741 11.2689 8.02294 11.8534L5.68386 14.1925C5.16091 14.7153 4.64234 14.9077 4.16219 14.9077V14.9077Z" fill="url(#paint0_linear)"/>
<path d="M23.2398 10.2449C22.594 9.31001 21.6229 8.68256 20.5052 8.47809C19.3875 8.27363 18.2571 8.51656 17.3222 9.16239C16.0984 10.0076 14.9436 11.0961 13.8267 12.1487C12.7301 13.1823 11.6943 14.1586 10.6226 14.8988L7.90076 16.7788C6.95605 17.4314 6.4026 18.3052 6.30027 19.3059C6.20601 20.2281 6.50347 21.2184 7.16052 22.1697C7.98306 23.3606 9.30969 24.0001 10.658 24C11.4387 24 12.2271 23.7853 12.9283 23.3391L12.9301 23.3416L13.0619 23.2505C13.0624 23.2502 13.0628 23.2499 13.0633 23.2496C14.4458 22.2947 15.9887 21.3831 17.4809 20.5016C18.7741 19.7375 19.9956 19.0159 20.9497 18.3569C22.8004 17.0787 23.8188 15.293 23.9767 13.0494L23.983 12.9612C24.0505 12.0013 23.7866 11.0367 23.2398 10.2449V10.2449ZM12.2597 22.086C10.9761 22.9726 9.21052 22.6496 8.32402 21.3661C7.77199 20.5668 7.08732 19.0592 8.7044 17.9423L11.4263 16.0623C12.1063 15.5925 12.7739 15.0339 13.4289 14.4458L17.8462 14.4735L16.8409 19.2373C16.8145 19.2529 16.7882 19.2684 16.7617 19.2841C15.2483 20.1782 13.6834 21.1027 12.2597 22.086ZM22.5724 12.8618L22.5662 12.95C22.4381 14.7691 21.6465 16.157 20.1461 17.1934C19.665 17.5257 19.1034 17.8801 18.4942 18.2507L19.3504 14.1935L20.808 13.1867L20.0044 12.0232L18.4983 13.0634L14.9415 13.0412C15.9749 12.0677 17.041 11.0751 18.1258 10.3258C19.4143 9.43591 21.1864 9.76014 22.0763 11.0485C22.4413 11.5771 22.6175 12.2211 22.5724 12.8618Z" fill="url(#paint1_linear)"/>
<defs>
<linearGradient id="paint0_linear" x1="15.9155" y1="39.5931" x2="-10.4017" y2="20.0143" gradientUnits="userSpaceOnUse">
<stop stop-color="#278CB9"/>
<stop offset="1" stop-color="#47C9CB"/>
</linearGradient>
<linearGradient id="paint1_linear" x1="22.7515" y1="46.231" x2="-2.89937" y2="25.5524" gradientUnits="userSpaceOnUse">
<stop stop-color="#278CB9"/>
<stop offset="1" stop-color="#47C9CB"/>
</linearGradient>
</defs>
</svg>
