<svg width="24" height="24" viewBox="0 0 24 24" fill="none" xmlns="http://www.w3.org/2000/svg">
<path d="M23.2969 15.5625H20.8661C21.041 15.151 21.1406 14.6722 21.1406 14.1562C21.1406 12.5791 20.2141 11.3438 19.0312 11.3438C17.8484 11.3438 16.9219 12.5791 16.9219 14.1562C16.9219 14.6722 17.0215 15.151 17.1964 15.5625H14.8125C14.4242 15.5625 14.1094 15.8773 14.1094 16.2656C14.1094 16.6539 14.4242 16.9688 14.8125 16.9688H15.5864C15.8667 18.3442 16.9526 19.4302 18.3281 19.7105V19.7812C18.3281 21.3321 17.0664 22.5938 15.5156 22.5938C13.9648 22.5938 12.7031 21.3321 12.7031 19.7812V14.0855C14.0786 13.8052 15.1645 12.7192 15.4449 11.3438H16.2188C16.6071 11.3438 16.9219 11.0289 16.9219 10.6406C16.9219 10.2523 16.6071 9.9375 16.2188 9.9375H13.8349C14.0097 9.52603 14.1094 9.04716 14.1094 8.53125C14.1094 7.28447 13.5301 6.25191 12.7031 5.87377V4.21875H13.4062C15.3448 4.21875 16.9219 2.64164 16.9219 0.703125C16.9219 0.314812 16.6071 0 16.2188 0H7.78125C7.39294 0 7.07812 0.314812 7.07812 0.703125C7.07812 2.64164 8.65523 4.21875 10.5938 4.21875H11.2969V5.87377C10.4699 6.25191 9.89062 7.28447 9.89062 8.53125C9.89062 9.04716 9.99028 9.52603 10.1651 9.9375H7.78125C7.39294 9.9375 7.07812 10.2523 7.07812 10.6406C7.07812 11.0289 7.39294 11.3438 7.78125 11.3438H8.55511C8.83542 12.7192 9.92138 13.8052 11.2969 14.0855V19.7812C11.2969 21.3321 10.0352 22.5938 8.48438 22.5938C6.93356 22.5938 5.67188 21.3321 5.67188 19.7812V19.7105C7.04737 19.4302 8.13328 18.3442 8.41364 16.9688H9.1875C9.57581 16.9688 9.89062 16.6539 9.89062 16.2656C9.89062 15.8773 9.57581 15.5625 9.1875 15.5625H6.80362C6.97847 15.151 7.07812 14.6722 7.07812 14.1562C7.07812 12.5791 6.15159 11.3438 4.96875 11.3438C3.78591 11.3438 2.85938 12.5791 2.85938 14.1562C2.85938 14.6722 2.95903 15.151 3.13388 15.5625H0.703125C0.314812 15.5625 0 15.8773 0 16.2656C0 16.6539 0.314812 16.9688 0.703125 16.9688H1.52386C1.80417 18.3442 2.89013 19.4302 4.26562 19.7105V19.7812C4.26562 22.1075 6.15816 24 8.48438 24C9.9502 24 11.2436 23.2484 12 22.1105C12.7564 23.2484 14.0498 24 15.5156 24C17.8418 24 19.7344 22.1075 19.7344 19.7812V19.7105C21.1099 19.4302 22.1958 18.3442 22.4761 16.9688H23.2969C23.6852 16.9688 24 16.6539 24 16.2656C24 15.8773 23.6852 15.5625 23.2969 15.5625ZM4.96875 12.75C5.25544 12.75 5.67188 13.2978 5.67188 14.1562C5.67188 15.0147 5.25544 15.5625 4.96875 15.5625C4.68206 15.5625 4.26562 15.0147 4.26562 14.1562C4.26562 13.2978 4.68206 12.75 4.96875 12.75ZM4.96875 18.375C4.05211 18.375 3.27056 17.7825 2.98031 16.9641H6.95714C6.66694 17.7825 5.88539 18.375 4.96875 18.375ZM10.5938 2.8125C9.67706 2.8125 8.89505 2.22005 8.60484 1.40156H15.3952C15.105 2.22005 14.3229 2.8125 13.4062 2.8125H10.5938ZM12 7.125C12.2867 7.125 12.7031 7.67283 12.7031 8.53125C12.7031 9.38967 12.2867 9.9375 12 9.9375C11.7133 9.9375 11.2969 9.38967 11.2969 8.53125C11.2969 7.67283 11.7133 7.125 12 7.125ZM12 12.75C11.0834 12.75 10.3018 12.1575 10.0116 11.3391H13.9884C13.6982 12.1575 12.9166 12.75 12 12.75ZM19.0312 12.75C19.3179 12.75 19.7344 13.2978 19.7344 14.1562C19.7344 15.0147 19.3179 15.5625 19.0312 15.5625C18.7446 15.5625 18.3281 15.0147 18.3281 14.1562C18.3281 13.2978 18.7446 12.75 19.0312 12.75ZM19.0312 18.375C18.1146 18.375 17.3331 17.7825 17.0428 16.9641H21.0196C20.7294 17.7825 19.9479 18.375 19.0312 18.375Z" fill="url(#paint0_linear)"/>
<defs>
<linearGradient id="paint0_linear" x1="22.3171" y1="58.2178" x2="-15.8216" y2="31.1483" gradientUnits="userSpaceOnUse">
<stop stop-color="#278CB9"/>
<stop offset="1" stop-color="#47C9CB"/>
</linearGradient>
</defs>
</svg>
