<svg width="24" height="24" viewBox="0 0 24 24" fill="none" xmlns="http://www.w3.org/2000/svg">
<path d="M22.0609 12.5769H21.509V8.27792H23.2969C23.5124 8.27792 23.7162 8.17905 23.8495 8.00949C23.9828 7.84012 24.0309 7.61893 23.9802 7.40945L22.9052 2.96494C22.8289 2.64944 22.5463 2.42715 22.2217 2.42715H19.39C19.0653 2.42715 18.783 2.64944 18.7066 2.96494L17.6314 7.40945C17.5807 7.61893 17.629 7.84012 17.7623 8.00949C17.8956 8.17905 18.0992 8.27792 18.3149 8.27792H20.1028V9.96487C19.7816 9.76712 19.4039 9.65268 18.9998 9.65268H5.00006C3.83698 9.65268 2.89069 10.599 2.89069 11.7621V12.5769H1.93909C0.869934 12.5769 0 13.4468 0 14.516V20.8639C0 21.9332 0.869934 22.8031 1.93909 22.8031H22.0609C23.1301 22.8031 24 21.9332 24 20.8639V14.516C24 13.4468 23.1301 12.5769 22.0609 12.5769ZM1.93909 21.3969C1.64539 21.3969 1.40625 21.1577 1.40625 20.8639V14.516C1.40625 14.2221 1.64539 13.9831 1.93909 13.9831H4.4491C4.74298 13.9831 4.98193 14.2221 4.98193 14.516V20.8639C4.98193 21.1577 4.74298 21.3969 4.4491 21.3969H1.93909ZM5.00006 11.0589H18.9999C19.3876 11.0589 19.7031 11.3744 19.7031 11.7621V12.5769H19.5509C18.4816 12.5769 17.6118 13.4468 17.6118 14.516V16.9868H6.38818V14.516C6.38818 13.4468 5.51825 12.5769 4.4491 12.5769H4.29694V11.7621C4.29694 11.3744 4.61243 11.0589 5.00006 11.0589V11.0589ZM6.38818 20.8639V18.393H17.6118V20.8639C17.6118 21.0488 17.6384 21.2273 17.6869 21.3969H6.31311C6.36163 21.2273 6.38818 21.0488 6.38818 20.8639ZM19.0181 20.8639V14.516C19.0181 14.2221 19.257 13.9831 19.5509 13.9831H22.0609C22.3546 13.9831 22.5938 14.2221 22.5938 14.516V20.8639C22.5938 21.1577 22.3546 21.3969 22.0609 21.3969H19.5509C19.257 21.3969 19.0181 21.1577 19.0181 20.8639ZM21.6683 3.8334L22.4033 6.87149H19.2083L19.9433 3.8334H21.6683Z" fill="url(#paint0_linear)"/>
<path d="M1.59766 7.35251H13.4973C13.8857 7.35251 14.2004 7.03775 14.2004 6.64938V1.89999C14.2004 1.51163 13.8857 1.19687 13.4973 1.19687H1.59766C1.20929 1.19687 0.894531 1.51163 0.894531 1.89999V6.64938C0.894531 7.03775 1.20929 7.35251 1.59766 7.35251ZM2.30078 2.60312H12.7942V5.94626H2.30078V2.60312Z" fill="url(#paint1_linear)"/>
<defs>
<linearGradient id="paint0_linear" x1="22.3171" y1="51.854" x2="-11.441" y2="23.6322" gradientUnits="userSpaceOnUse">
<stop stop-color="#278CB9"/>
<stop offset="1" stop-color="#47C9CB"/>
</linearGradient>
<linearGradient id="paint1_linear" x1="13.2674" y1="16.1289" x2="3.78671" y2="1.58346" gradientUnits="userSpaceOnUse">
<stop stop-color="#278CB9"/>
<stop offset="1" stop-color="#47C9CB"/>
</linearGradient>
</defs>
</svg>
