<svg width="24" height="24" viewBox="0 0 24 24" fill="none" xmlns="http://www.w3.org/2000/svg">
<g clip-path="url(#clip0)">
<path d="M8.94253 6.89383L2.9002 0.851501L1.90556 1.84614L6.95325 6.89388H3.66085V12.2633C3.66085 15.1499 5.13525 17.6983 7.37032 19.1958H0V20.6025H1.96195C2.2911 22.2931 3.78248 23.5734 5.56794 23.5734H18.432C20.2175 23.5734 21.7089 22.2931 22.038 20.6025H24V19.1958H16.6297C18.8647 17.6983 20.3391 15.1499 20.3391 12.2633V12.1237H21.3834C22.8253 12.1237 23.9984 10.9506 23.9984 9.50879C23.9984 8.06698 22.8253 6.89393 21.3834 6.89393L8.94253 6.89383ZM21.3835 8.30048C22.0497 8.30048 22.5918 8.84251 22.5918 9.5087C22.5918 10.1749 22.0497 10.7169 21.3835 10.7169H20.3391V8.30048H21.3835ZM5.0675 12.2633V8.30048H18.9325V12.2633C18.9325 16.0859 15.8226 19.1958 12 19.1958C8.17741 19.1958 5.0675 16.0859 5.0675 12.2633ZM18.432 22.1667H5.56794C4.56303 22.1667 3.70924 21.5094 3.41253 20.6024H20.5875C20.2908 21.5094 19.4369 22.1667 18.432 22.1667Z" fill="url(#paint0_linear)"/>
<path d="M12.6621 4.44882L13.9368 5.04369L14.2497 4.37338C14.5367 3.75834 14.5367 3.05282 14.2497 2.43783C14.1391 2.20081 14.1391 1.92895 14.2497 1.69198L14.5625 1.02162L13.2878 0.426697L12.9749 1.09706C12.6879 1.71209 12.6879 2.41753 12.9749 3.03261C13.0856 3.26958 13.0856 3.54144 12.9749 3.77846L12.6621 4.44882Z" fill="url(#paint1_linear)"/>
<path d="M9.42676 4.44882L10.7015 5.04369L11.0143 4.37338C11.3014 3.75834 11.3014 3.05282 11.0143 2.43783C10.9037 2.20081 10.9037 1.92895 11.0143 1.69198L11.3271 1.02162L10.0524 0.426697L9.7396 1.09706C9.45259 1.71209 9.45259 2.41753 9.7396 3.03261C9.85021 3.26958 9.85021 3.54144 9.7396 3.77846L9.42676 4.44882Z" fill="url(#paint2_linear)"/>
</g>
<defs>
<linearGradient id="paint0_linear" x1="22.3171" y1="55.9691" x2="-14.399" y2="28.4435" gradientUnits="userSpaceOnUse">
<stop stop-color="#278CB9"/>
<stop offset="1" stop-color="#47C9CB"/>
</linearGradient>
<linearGradient id="paint1_linear" x1="14.4292" y1="11.6263" x2="10.2451" y2="10.404" gradientUnits="userSpaceOnUse">
<stop stop-color="#278CB9"/>
<stop offset="1" stop-color="#47C9CB"/>
</linearGradient>
<linearGradient id="paint2_linear" x1="11.1939" y1="11.6263" x2="7.00974" y2="10.404" gradientUnits="userSpaceOnUse">
<stop stop-color="#278CB9"/>
<stop offset="1" stop-color="#47C9CB"/>
</linearGradient>
<clipPath id="clip0">
<rect width="24" height="24" fill="white"/>
</clipPath>
</defs>
</svg>
