<svg width="30" height="30" viewBox="0 0 30 30" fill="none" xmlns="http://www.w3.org/2000/svg">
<path d="M12.0441 28.0002C11.8038 28.0002 11.5595 27.966 11.3171 27.8954C10.1891 27.5666 9.44779 26.5523 9.47263 25.3714C9.47979 25.0312 9.32135 24.732 9.03788 24.5506C8.76173 24.3738 8.43439 24.3546 8.13991 24.4979C7.09284 25.0076 5.87392 24.7595 5.10676 23.8807C4.33021 22.9912 4.24886 21.7334 4.9045 20.7507C5.0928 20.4685 5.11951 20.1293 4.97773 19.8201C4.83899 19.5175 4.57234 19.3208 4.24611 19.2806C3.08763 19.1378 2.19616 18.2613 2.02792 17.0995C1.85907 15.9338 2.46769 14.8364 3.54243 14.3688C3.84687 14.2363 4.04903 13.9694 4.09712 13.6364C4.14557 13.3008 4.02562 12.9846 3.768 12.7689C2.86536 12.0131 2.59048 10.7847 3.08392 9.71224C3.5728 8.64973 4.67299 8.06467 5.82147 8.25637C6.14403 8.3102 6.45309 8.19838 6.66952 7.9496C6.89215 7.69371 6.96121 7.36038 6.85909 7.03512C6.50474 5.90675 6.93435 4.72277 7.92815 4.08886C8.91098 3.46196 10.1507 3.56931 11.0131 4.35597C11.2569 4.5784 11.5773 4.65315 11.8921 4.56113C12.2118 4.46764 12.4453 4.22699 12.5329 3.90087C12.8381 2.76391 13.8297 2.00005 15.0004 2C16.1711 2 17.1628 2.76386 17.4679 3.90087C17.5555 4.22694 17.789 4.46759 18.1086 4.56108C18.4235 4.65315 18.7439 4.5784 18.9877 4.35592C19.85 3.56926 21.0897 3.46191 22.0727 4.08881C23.0664 4.72267 23.4961 5.9067 23.1417 7.03507C23.0396 7.36033 23.1087 7.69361 23.3313 7.9495C23.5477 8.19823 23.8567 8.3101 24.1793 8.25627C25.3282 8.06452 26.428 8.64968 26.9168 9.71219C27.4103 10.7846 27.1354 12.013 26.2328 12.7688C25.9752 12.9845 25.8552 13.3007 25.9037 13.6364C25.9517 13.9693 26.1539 14.2362 26.4584 14.3687C27.5331 14.8363 28.1417 15.9338 27.9728 17.0995C27.8046 18.2612 26.9131 19.1377 25.7546 19.2806C25.4284 19.3208 25.1618 19.5174 25.023 19.8201C24.8813 20.1292 24.9079 20.4684 25.0962 20.7507C25.7518 21.7334 25.6706 22.9912 24.894 23.8807C24.1268 24.7595 22.9079 25.0076 21.8608 24.4979C21.5663 24.3546 21.239 24.3739 20.9628 24.5506C20.6794 24.732 20.521 25.0312 20.5281 25.3714C20.5529 26.5523 19.8116 27.5666 18.6836 27.8954C17.5631 28.222 16.401 27.7684 15.7922 26.767C15.6188 26.4817 15.3302 26.3181 15.0003 26.3181C14.6704 26.3181 14.3818 26.4817 14.2084 26.767C13.7314 27.5518 12.9145 28.0002 12.0441 28.0002V28.0002ZM15.0004 24.693C15.8977 24.693 16.7129 25.1528 17.1809 25.9229C17.5249 26.4887 18.0702 26.3815 18.229 26.3353C18.5625 26.2381 18.9148 25.9428 18.9036 25.4055C18.8845 24.4997 19.3269 23.6685 20.0868 23.182C20.8397 22.7001 21.7687 22.6458 22.572 23.0368C23.1592 23.3226 23.5608 22.937 23.6699 22.812C23.9023 22.5458 24.0439 22.1014 23.7445 21.6526C23.2438 20.902 23.1695 19.9637 23.5459 19.1428C23.9194 18.3283 24.6707 17.7769 25.5558 17.6678C26.0759 17.6036 26.3146 17.2119 26.3647 16.8666C26.4152 16.518 26.2959 16.0703 25.81 15.8589C24.99 15.5021 24.4237 14.758 24.2954 13.8685C24.1666 12.9764 24.5009 12.0996 25.1896 11.523C25.6003 11.179 25.5885 10.7129 25.4406 10.3915C25.3706 10.2394 25.0922 9.75149 24.4469 9.8592C23.5676 10.006 22.6921 9.69081 22.1053 9.01612C21.5122 8.33448 21.3202 7.41187 21.5914 6.54822C21.7532 6.03294 21.4947 5.64761 21.1988 5.4589C21.0596 5.37004 20.5675 5.11445 20.0829 5.55651C19.4201 6.16101 18.5118 6.37211 17.6525 6.12074C16.7887 5.8681 16.133 5.1957 15.8985 4.3221C15.7605 3.80814 15.3441 3.62502 15.0004 3.62502C14.6567 3.62502 14.2404 3.80814 14.1024 4.32215C13.8679 5.19575 13.2121 5.86815 12.3483 6.12079C11.4892 6.37206 10.5807 6.16106 9.91798 5.55656C9.43342 5.11455 8.94135 5.37014 8.80205 5.4589C8.50615 5.64766 8.24767 6.03294 8.40951 6.54828C8.68068 7.41192 8.48858 8.33448 7.8956 9.01617C7.30866 9.69081 6.43339 10.0061 5.554 9.85925C4.90877 9.75165 4.63018 10.2395 4.5602 10.3915C4.41227 10.713 4.40054 11.1791 4.81126 11.523C5.49997 12.0996 5.83426 12.9765 5.70548 13.8686C5.5771 14.7581 5.01084 15.5021 4.19076 15.8589C3.70488 16.0704 3.5857 16.5181 3.63617 16.8667C3.68619 17.212 3.92492 17.6038 4.44498 17.6679C5.3301 17.777 6.08147 18.3284 6.45492 19.1429C6.83131 19.9639 6.75707 20.9021 6.25626 21.6527C5.95685 22.1015 6.09853 22.5459 6.33091 22.8121C6.44004 22.937 6.84162 23.3227 7.42871 23.0369C8.23208 22.6459 9.16113 22.7002 9.91397 23.1821C10.6739 23.6686 11.1163 24.4998 11.0972 25.4056C11.086 25.9429 11.4382 26.2382 11.7717 26.3354C11.9307 26.3817 12.4759 26.4888 12.8198 25.923C13.288 25.1528 14.1031 24.693 15.0004 24.693V24.693Z" fill="url(#paint0_linear)"/>
<path d="M11.4435 20C11.202 20 10.9606 19.8977 10.7764 19.6929C10.4079 19.2835 10.4079 18.6197 10.7764 18.2103L17.8893 10.3071C18.2577 9.89764 18.8552 9.89764 19.2236 10.3071C19.5921 10.7165 19.5921 11.3803 19.2236 11.7897L12.1107 19.6929C11.9264 19.8977 11.685 20 11.4435 20Z" fill="url(#paint1_linear)"/>
<path d="M11.125 13.25C10.229 13.25 9.5 12.5211 9.5 11.625C9.5 10.729 10.229 10 11.125 10C12.0211 10 12.75 10.729 12.75 11.625C12.75 12.5211 12.0211 13.25 11.125 13.25ZM11.125 11.625C11.125 11.6257 11.1251 11.626 11.1251 11.626L11.125 11.625Z" fill="url(#paint2_linear)"/>
<path d="M19.125 20.25C18.229 20.25 17.5 19.5211 17.5 18.625C17.5 17.729 18.229 17 19.125 17C20.0211 17 20.75 17.729 20.75 18.625C20.75 19.5211 20.021 20.25 19.125 20.25ZM19.125 18.625C19.125 18.6257 19.1251 18.626 19.1251 18.6261L19.125 18.625Z" fill="url(#paint3_linear)"/>
<defs>
<linearGradient id="paint0_linear" x1="0.33716" y1="-8.17398" x2="42.9182" y2="17.282" gradientUnits="userSpaceOnUse">
<stop stop-color="#FF9E48"/>
<stop offset="1" stop-color="#E8330C"/>
</linearGradient>
<linearGradient id="paint1_linear" x1="9.77588" y1="2.49656" x2="29.2953" y2="12.9986" gradientUnits="userSpaceOnUse">
<stop stop-color="#FF9E48"/>
<stop offset="1" stop-color="#E8330C"/>
</linearGradient>
<linearGradient id="paint2_linear" x1="9.29215" y1="8.72825" x2="14.6147" y2="11.9102" gradientUnits="userSpaceOnUse">
<stop stop-color="#FF9E48"/>
<stop offset="1" stop-color="#E8330C"/>
</linearGradient>
<linearGradient id="paint3_linear" x1="17.2921" y1="15.7282" x2="22.6147" y2="18.9102" gradientUnits="userSpaceOnUse">
<stop stop-color="#FF9E48"/>
<stop offset="1" stop-color="#E8330C"/>
</linearGradient>
</defs>
</svg>
