<svg width="30" height="30" viewBox="0 0 30 30" fill="none" xmlns="http://www.w3.org/2000/svg">
<path d="M27 10.0901H25.3594L26.9616 8.48427L23.6069 5.11602L18.6441 10.0901H12.0006V8.77765C11.755 2.81127 3.24862 2.80668 3.00099 8.7777C2.9979 10.0941 3.00324 18.4177 3.00099 19.5267C3.00099 22.93 5.76983 25.6989 9.17319 25.6989H24.5157V22.2303H27V10.0901ZM24.9761 8.48338L23.8818 9.58012L22.5091 8.20735L23.606 7.10784L24.9761 8.48338ZM22.8886 10.5756L17.4275 16.049H16.1255V14.6055L21.5159 9.20279L22.8886 10.5756ZM7.50081 5.68403C9.20666 5.68403 10.5944 7.0718 10.5944 8.77765V10.0901C10.5945 10.9974 10.5944 13.5258 10.5944 14.4658C8.93775 12.831 6.0634 12.8314 4.40718 14.4658V8.77765C4.40718 7.07184 5.795 5.68403 7.50081 5.68403ZM10.5944 17.7304V18.3398C10.5944 19.6782 9.53041 20.7721 8.2039 20.8216V14.7183C9.57199 15.0377 10.5944 16.2665 10.5944 17.7304ZM23.1095 24.2926H9.17319C6.54521 24.2926 4.40718 22.1546 4.40718 19.5266C4.40751 19.1014 4.40695 18.148 4.40718 17.7304C4.40718 16.2665 5.42963 15.0376 6.79771 14.7183V22.2302H23.1095V24.2926ZM25.5938 20.824H11.1016C11.6439 20.1721 11.9766 19.3407 11.9982 18.4335H12.0006C12.0006 18.2028 12.0006 11.9007 12.0006 11.4963H17.2411L14.7193 14.024V17.4552H18.0108L23.9564 11.4963H25.5939V20.824H25.5938Z" fill="url(#paint0_linear)"/>
<defs>
<linearGradient id="paint0_linear" x1="1.46511" y1="-4.07188" x2="38.2698" y2="20.6061" gradientUnits="userSpaceOnUse">
<stop stop-color="#BD5A8F"/>
<stop offset="1" stop-color="#5B23B5"/>
</linearGradient>
</defs>
</svg>
