<svg width="30" height="30" viewBox="0 0 30 30" fill="none" xmlns="http://www.w3.org/2000/svg">
<path d="M23.3912 11.1866C23.288 10.8747 22.9964 10.6641 22.6679 10.6641H7.33206C7.00357 10.6641 6.71218 10.8747 6.60883 11.1866L2.03854 24.999C1.96177 25.2311 2.00105 25.486 2.14427 25.6843C2.28748 25.8825 2.51719 25.9999 2.76177 25.9999H27.2382C27.4828 25.9999 27.7125 25.8825 27.8557 25.6843C27.999 25.486 28.0382 25.2311 27.9615 24.999L23.3912 11.1866ZM23.6467 16.8086H15.7617V12.1875H22.1177L23.6467 16.8086ZM7.88232 12.1875H14.2383V16.8086H6.35334L7.88232 12.1875ZM5.8493 18.332H14.2383V24.4765H3.81607L5.8493 18.332ZM15.7617 24.4765V18.332H24.1507L26.1839 24.4765H15.7617Z" fill="url(#paint0_linear)"/>
<path d="M18.8086 6.85544C18.8086 7.27617 19.1496 7.61715 19.5703 7.61715C19.991 7.61715 20.332 7.27617 20.332 6.85544C20.332 5.59543 21.3572 4.57029 22.6172 4.57029C23.0379 4.57029 23.3789 4.22931 23.3789 3.80858C23.3789 3.38785 23.0379 3.04686 22.6172 3.04686C21.3572 3.04686 20.332 2.02172 20.332 0.761715C20.332 0.340987 19.991 0 19.5703 0C19.1496 0 18.8086 0.340987 18.8086 0.761715C18.8086 2.02172 17.7834 3.04686 16.5234 3.04686C16.1027 3.04686 15.7617 3.38785 15.7617 3.80858C15.7617 4.22931 16.1027 4.57029 16.5234 4.57029C17.7834 4.57029 18.8086 5.59543 18.8086 6.85544ZM19.5703 3.04448C19.7877 3.33389 20.0452 3.59137 20.3344 3.80858C20.045 4.02598 19.7877 4.28346 19.5703 4.57267C19.3531 4.28326 19.0956 4.02598 18.8062 3.80858C19.0956 3.59137 19.3531 3.33389 19.5703 3.04448Z" fill="url(#paint1_linear)"/>
<path d="M7.38281 6.09373C8.64281 6.09373 9.66796 7.11887 9.66796 8.37888C9.66796 8.79961 10.0089 9.14059 10.4297 9.14059C10.8504 9.14059 11.1914 8.79961 11.1914 8.37888C11.1914 7.11887 12.2165 6.09373 13.4765 6.09373C13.8973 6.09373 14.2382 5.75274 14.2382 5.33201C14.2382 4.91129 13.8973 4.5703 13.4765 4.5703C12.2165 4.5703 11.1914 3.54516 11.1914 2.28515C11.1914 1.86442 10.8504 1.52344 10.4297 1.52344C10.0089 1.52344 9.66796 1.86442 9.66796 2.28515C9.66796 3.54516 8.64281 4.5703 7.38281 4.5703C6.96208 4.5703 6.62109 4.91129 6.62109 5.33201C6.62109 5.75274 6.96208 6.09373 7.38281 6.09373ZM10.4297 4.56792C10.6471 4.85733 10.9046 5.11481 11.1938 5.33201C10.9044 5.54942 10.6471 5.8069 10.4297 6.09611C10.2125 5.8067 9.95499 5.54942 9.66558 5.33201C9.95499 5.11481 10.2125 4.85733 10.4297 4.56792Z" fill="url(#paint2_linear)"/>
<defs>
<linearGradient id="paint0_linear" x1="0.337208" y1="4.66307" x2="28.8481" y2="33.5592" gradientUnits="userSpaceOnUse">
<stop stop-color="#BD5A8F"/>
<stop offset="1" stop-color="#5B23B5"/>
</linearGradient>
<linearGradient id="paint1_linear" x1="15.2746" y1="-2.98063" x2="27.7492" y2="4.47685" gradientUnits="userSpaceOnUse">
<stop stop-color="#BD5A8F"/>
<stop offset="1" stop-color="#5B23B5"/>
</linearGradient>
<linearGradient id="paint2_linear" x1="6.13395" y1="-1.45719" x2="18.6086" y2="6.00029" gradientUnits="userSpaceOnUse">
<stop stop-color="#BD5A8F"/>
<stop offset="1" stop-color="#5B23B5"/>
</linearGradient>
</defs>
</svg>
