<svg width="30" height="30" viewBox="0 0 30 30" fill="none" xmlns="http://www.w3.org/2000/svg">
<path fill-rule="evenodd" clip-rule="evenodd" d="M24 3H6V15.8906H24V3ZM22.5938 14.4844H7.40625V4.40625H22.5938V14.4844ZM20.999 5.78906H9.00099V13.1016H20.999V5.78906ZM10.4072 10.2891H12.6896L14.0724 11.6953H10.4072V10.2891ZM19.5928 11.6953H16.0448L13.2791 8.88281H10.4073V7.19531H19.5928V11.6953ZM17.8125 8.60156H16.4062V10.0078H17.8125V8.60156ZM6 17.9062H7.40625V19.3125H6V17.9062ZM15.7031 17.9062H14.2969V19.3125H15.7031V17.9062ZM22.5938 17.9062H24V19.3125H22.5938V17.9062ZM24 20.7188V25.5938H25.3125V27H21.2812V25.5938H22.5938V23.3618C20.6001 25.0692 17.698 25.0702 15.7031 23.3618V25.5938H17.0156V27H12.9844V25.5938H14.2969V23.3618C12.3032 25.0693 9.40116 25.0702 7.40625 23.3618V25.5938H8.71875V27H4.6875V25.5938H6V20.7188H7.40625C7.28892 21.5942 8.77533 23.2118 10.8516 23.25C12.926 23.2129 14.4162 21.5922 14.2969 20.7188H15.7031C15.5858 21.5942 17.0722 23.2118 19.1484 23.25C21.2228 23.2129 22.713 21.5922 22.5938 20.7188H24Z" fill="url(#paint0_linear)"/>
<defs>
<linearGradient id="paint0_linear" x1="3.36846" y1="-6.3913" x2="39.6433" y2="12.2447" gradientUnits="userSpaceOnUse">
<stop stop-color="#BD5A8F"/>
<stop offset="1" stop-color="#5B23B5"/>
</linearGradient>
</defs>
</svg>
