<svg width="30" height="30" viewBox="0 0 30 30" fill="none" xmlns="http://www.w3.org/2000/svg">
<path d="M10.7025 7.42969C9.39377 7.42969 8.3291 8.49441 8.3291 9.80305C8.3291 11.1117 9.39382 12.1764 10.7025 12.1764C12.0111 12.1764 13.0758 11.1117 13.0758 9.80305C13.0758 8.49441 12.0112 7.42969 10.7025 7.42969ZM10.7025 10.5942C10.2662 10.5942 9.91136 10.2393 9.91136 9.80311C9.91136 9.36691 10.2663 9.012 10.7025 9.012C11.1387 9.012 11.4936 9.36691 11.4936 9.80311C11.4936 10.2393 11.1387 10.5942 10.7025 10.5942Z" fill="url(#paint0_linear)"/>
<path d="M7.53742 12.1764C6.22873 12.1764 5.16406 13.2411 5.16406 14.5497C5.16406 15.8584 6.22878 16.9231 7.53742 16.9231C8.84606 16.9231 9.91078 15.8584 9.91078 14.5497C9.91084 13.2411 8.84612 12.1764 7.53742 12.1764ZM7.53742 15.3409C7.10117 15.3409 6.74632 14.986 6.74632 14.5498C6.74632 14.1135 7.10123 13.7587 7.53742 13.7587C7.97362 13.7587 8.32853 14.1136 8.32853 14.5498C8.32858 14.986 7.97367 15.3409 7.53742 15.3409Z" fill="url(#paint1_linear)"/>
<path d="M9.11945 18.5052C7.81076 18.5052 6.74609 19.57 6.74609 20.8786C6.74609 22.1873 7.81081 23.252 9.11945 23.252C10.4281 23.252 11.4928 22.1873 11.4928 20.8786C11.4929 19.5699 10.4281 18.5052 9.11945 18.5052ZM9.11945 21.6697C8.6832 21.6697 8.32835 21.3148 8.32835 20.8786C8.32835 20.4424 8.68326 20.0875 9.11945 20.0875C9.55565 20.0875 9.91055 20.4424 9.91055 20.8786C9.9106 21.3149 9.5557 21.6697 9.11945 21.6697Z" fill="url(#paint2_linear)"/>
<path d="M27.8733 4.75702C28.6668 3.59312 29.4738 2.15308 28.6623 1.34172C28.2794 0.958806 27.7033 0.897351 26.9497 1.1591C26.4674 1.32664 25.8817 1.63101 25.2092 2.06378C23.8243 2.95495 22.028 4.4279 20.3706 6.18603C17.3317 4.20482 13.5663 3.77506 10.2418 4.83857C4.74935 6.59564 1.05163 12.2077 2.2141 18.4185C3.07166 22.9997 6.70418 26.7398 11.2531 27.7252C12.1245 27.9139 12.9985 28.0084 13.8667 28.0084C14.459 28.0084 15.0487 27.9644 15.6328 27.8763C16.8952 27.6859 17.9308 26.8032 18.3356 25.5727C18.7531 24.3035 18.431 22.9336 17.4947 21.9972C16.8765 21.3796 16.8761 20.3785 17.4949 19.7602C18.1135 19.1416 19.1135 19.1415 19.7322 19.7602C20.6676 20.6956 22.035 21.0179 23.3007 20.6015C24.5294 20.1973 25.4111 19.1614 25.6017 17.8981C26.0209 15.1195 25.4634 12.0791 23.7305 9.50089C25.1211 8.18755 26.7894 6.34655 27.8733 4.75702ZM27.2316 2.74774C26.8462 3.55609 26.0634 4.58948 25.4975 5.28357L24.6347 4.42078C25.3548 3.85704 26.39 3.11547 27.2316 2.74774ZM24.0371 17.6621C23.9346 18.3417 23.4744 18.8787 22.8061 19.0985C22.2613 19.2777 21.4616 19.2518 20.851 18.6413C19.6173 17.4076 17.6098 17.4075 16.3763 18.6411C15.1392 19.8772 15.1387 21.8799 16.3761 23.1163C16.9875 23.7277 17.0128 24.5306 16.8326 25.0782C16.6122 25.7482 16.0755 26.2093 15.3969 26.3117C14.1472 26.5002 12.8658 26.4554 11.5881 26.1787C7.65338 25.3264 4.51128 22.0908 3.76935 18.1273C2.4136 10.8844 8.61292 4.68876 15.8621 6.04572C17.0748 6.2727 18.2469 6.72942 19.2988 7.37904C18.3924 8.44044 17.3981 9.75789 16.9553 10.8717C15.8864 10.5681 14.688 10.8356 13.8481 11.6755C13.476 12.0475 13.2007 12.5096 13.0519 13.0116C12.8122 13.8203 12.0651 14.4385 11.1486 14.5866C10.8554 14.634 10.6134 14.8416 10.522 15.1243C10.4307 15.4069 10.5054 15.7169 10.7154 15.927L10.9392 16.1507C11.9253 17.1369 13.2366 17.68 14.6312 17.68C16.0259 17.68 17.3371 17.1369 18.3233 16.1507C19.198 15.276 19.4518 14.0125 19.0863 12.9113C20.1954 12.4526 21.4952 11.4669 22.5407 10.572C23.9583 12.7848 24.3852 15.3541 24.0371 17.6621ZM17.2045 15.032C16.5171 15.7193 15.6032 16.0979 14.6311 16.0979C13.9938 16.0979 13.3814 15.9351 12.8416 15.6293C13.6698 15.1403 14.2986 14.3726 14.5687 13.4613C14.644 13.2077 14.7779 12.9833 14.9668 12.7943C15.5837 12.1774 16.5876 12.1774 17.2045 12.7943C17.8171 13.4071 17.8248 14.4116 17.2045 15.032ZM19.8659 10.6492C19.1741 11.1253 18.709 11.3612 18.4154 11.4779C18.5322 11.1843 18.768 10.7192 19.2441 10.0274C20.3237 8.45896 21.9689 6.71618 23.4145 5.43803L24.4627 6.48624C23.1407 7.94801 21.4708 9.54457 19.8659 10.6492Z" fill="url(#paint3_linear)"/>
<defs>
<linearGradient id="paint0_linear" x1="8.02553" y1="5.57227" x2="15.7993" y2="10.2195" gradientUnits="userSpaceOnUse">
<stop stop-color="#BD5A8F"/>
<stop offset="1" stop-color="#5B23B5"/>
</linearGradient>
<linearGradient id="paint1_linear" x1="4.86049" y1="10.319" x2="12.6342" y2="14.9662" gradientUnits="userSpaceOnUse">
<stop stop-color="#BD5A8F"/>
<stop offset="1" stop-color="#5B23B5"/>
</linearGradient>
<linearGradient id="paint2_linear" x1="6.44252" y1="16.6478" x2="14.2162" y2="21.295" gradientUnits="userSpaceOnUse">
<stop stop-color="#BD5A8F"/>
<stop offset="1" stop-color="#5B23B5"/>
</linearGradient>
<linearGradient id="paint3_linear" x1="0.273266" y1="-9.56851" x2="44.4984" y2="16.8613" gradientUnits="userSpaceOnUse">
<stop stop-color="#BD5A8F"/>
<stop offset="1" stop-color="#5B23B5"/>
</linearGradient>
</defs>
</svg>
