<svg xmlns="http://www.w3.org/2000/svg" xmlns:xlink="http://www.w3.org/1999/xlink">
  <symbol id="form-01" viewBox="0 0 24 24">
    <g opacity="0.5">
      <path fill-rule="evenodd" clip-rule="evenodd" d="M15.1862 14.4716H15.9762L20.2162 18.7316C20.6262 19.1416 20.6262 19.8116 20.2162 20.2216C19.8062 20.6316 19.1362 20.6316 18.7262 20.2216L14.4762 15.9716V15.1816L14.2062 14.9016C12.8062 16.1016 10.8962 16.7216 8.86621 16.3816C6.08621 15.9116 3.86621 13.5916 3.52621 10.7916C3.00621 6.56157 6.56621 3.00157 10.7962 3.52157C13.5962 3.86157 15.9162 6.08157 16.3862 8.86157C16.7262 10.8916 16.1062 12.8016 14.9062 14.2016L15.1862 14.4716ZM5.47621 9.97157C5.47621 12.4616 7.48621 14.4716 9.97621 14.4716C12.4662 14.4716 14.4762 12.4616 14.4762 9.97157C14.4762 7.48157 12.4662 5.47157 9.97621 5.47157C7.48621 5.47157 5.47621 7.48157 5.47621 9.97157Z" fill="#2D264D" />
    </g>
  </symbol>
  <symbol id="arrow-01" viewBox="0 0 24 24">
    <path d="M9.99953 6.71063C9.60953 7.10063 9.60953 7.73063 9.99953 8.12063L13.8795 12.0006L9.99953 15.8806C9.60953 16.2706 9.60953 16.9006 9.99953 17.2906C10.3895 17.6806 11.0195 17.6806 11.4095 17.2906L15.9995 12.7006C16.3895 12.3106 16.3895 11.6806 15.9995 11.2906L11.4095 6.70063C11.0295 6.32063 10.3895 6.32063 9.99953 6.71063Z" fill="#A3A3BF" />
  </symbol>
  <symbol id="colors-01-white" viewBox="0 0 24 24">
    <path d="M12.7586 0.503425C16.516 0.591512 20.2806 1.82715 22.2723 4.70921C24.2002 7.49906 23.5358 11.102 22.4656 14.5774C21.4021 18.0316 19.8958 21.3661 16.7061 22.7374C13.366 24.1733 9.42539 23.4614 6.2016 21.597C3.14312 19.8282 1.12257 16.8139 0.613337 13.4156C0.118789 10.1153 1.26663 6.80887 3.60959 4.31133C5.95157 1.81483 9.26166 0.421443 12.7586 0.503425Z" fill="white" stroke="#898989" />
  </symbol>
  <symbol id="colors-02-black" viewBox="0 0 24 24">
    <path d="M0.00356191 11.2297C0.0933497 7.39974 1.35279 3.43948 4.42495 1.31641C7.43254 -0.762022 11.2606 -0.0100844 14.7246 1.0565C18.1802 2.12051 21.7278 3.67972 23.1967 7.09642C24.7139 10.6253 23.946 14.7355 22.0299 18.0487C20.1846 21.2394 17.038 23.3494 13.4897 23.8811C10.0238 24.4005 6.56733 23.1924 3.96924 20.7551C1.36823 18.315 -0.0817275 14.8677 0.00356191 11.2297Z" fill="#5E5E5E" />
  </symbol>
  <symbol id="colors-03-red" viewBox="0 0 24 24">
    <path d="M11.2297 23.9964C7.39974 23.9067 3.43948 22.6472 1.31641 19.575C-0.762022 16.5675 -0.0100844 12.7394 1.0565 9.27542C2.12051 5.81982 3.67972 2.27218 7.09642 0.803278C10.6253 -0.713868 14.7355 0.0540375 18.0487 1.97014C21.2394 3.81538 23.3494 6.96197 23.8811 10.5103C24.4005 13.9762 23.1924 17.4327 20.7551 20.0308C18.315 22.6318 14.8677 24.0817 11.2297 23.9964Z" fill="#E25252" />
  </symbol>
  <symbol id="colors-04-orange" viewBox="0 0 24 24">
    <path d="M12.7703 0.00356191C16.6003 0.0933497 20.5605 1.35279 22.6836 4.42495C24.762 7.43254 24.0101 11.2606 22.9435 14.7246C21.8795 18.1802 20.3203 21.7278 16.9036 23.1967C13.3747 24.7139 9.26449 23.946 5.95128 22.0299C2.76062 20.1846 0.650566 17.038 0.118858 13.4897C-0.400508 10.0238 0.807644 6.56733 3.24493 3.96924C5.68496 1.36823 9.13226 -0.0817275 12.7703 0.00356191Z" fill="#F38F33" />
  </symbol>
  <symbol id="colors-05-yellow" viewBox="0 0 24 24">
    <path d="M12.7703 0.00356191C16.6003 0.0933497 20.5605 1.35279 22.6836 4.42495C24.762 7.43254 24.0101 11.2606 22.9435 14.7246C21.8795 18.1802 20.3203 21.7278 16.9036 23.1967C13.3747 24.7139 9.26449 23.946 5.95128 22.0299C2.76062 20.1846 0.650566 17.038 0.118858 13.4897C-0.400508 10.0238 0.807644 6.56733 3.24493 3.96924C5.68496 1.36823 9.13226 -0.0817275 12.7703 0.00356191Z" fill="#FBD407" />
  </symbol>
  <symbol id="colors-06-green" viewBox="0 0 24 24">
    <path d="M11.2297 23.9964C7.39974 23.9067 3.43948 22.6472 1.31641 19.575C-0.762022 16.5675 -0.0100844 12.7394 1.0565 9.27542C2.12051 5.81982 3.67972 2.27218 7.09642 0.803278C10.6253 -0.713868 14.7355 0.0540375 18.0487 1.97014C21.2394 3.81538 23.3494 6.96197 23.8811 10.5103C24.4005 13.9762 23.1924 17.4327 20.7551 20.0308C18.315 22.6318 14.8677 24.0817 11.2297 23.9964Z" fill="#72C93C" />
  </symbol>
  <symbol id="colors-07-blue" viewBox="0 0 24 24">
    <path d="M12.7703 0.00356191C16.6003 0.0933497 20.5605 1.35279 22.6836 4.42495C24.762 7.43254 24.0101 11.2606 22.9435 14.7246C21.8795 18.1802 20.3203 21.7278 16.9036 23.1967C13.3747 24.7139 9.26449 23.946 5.95128 22.0299C2.76062 20.1846 0.650566 17.038 0.118858 13.4897C-0.400508 10.0238 0.807644 6.56733 3.24493 3.96924C5.68496 1.36823 9.13226 -0.0817275 12.7703 0.00356191Z" fill="#5FCCEF" />
  </symbol>
  <symbol id="colors-08-blue-dark" viewBox="0 0 24 24">
    <path d="M12.7703 0.00356191C16.6003 0.0933497 20.5605 1.35279 22.6836 4.42495C24.762 7.43254 24.0101 11.2606 22.9435 14.7246C21.8795 18.1802 20.3203 21.7278 16.9036 23.1967C13.3747 24.7139 9.26449 23.946 5.95128 22.0299C2.76062 20.1846 0.650566 17.038 0.118858 13.4897C-0.400508 10.0238 0.807644 6.56733 3.24493 3.96924C5.68496 1.36823 9.13226 -0.0817275 12.7703 0.00356191Z" fill="#5E87F0" />
  </symbol>
  <symbol id="colors-09-violet" viewBox="0 0 24 24">
    <path d="M11.2297 23.9964C7.39974 23.9067 3.43948 22.6472 1.31641 19.575C-0.762022 16.5675 -0.0100844 12.7394 1.0565 9.27542C2.12051 5.81982 3.67972 2.27218 7.09642 0.803278C10.6253 -0.713868 14.7355 0.0540375 18.0487 1.97014C21.2394 3.81538 23.3494 6.96197 23.8811 10.5103C24.4005 13.9762 23.1924 17.4327 20.7551 20.0308C18.315 22.6318 14.8677 24.0817 11.2297 23.9964Z" fill="#9E7CE7" />
  </symbol>
  <symbol id="features-01" viewBox="0 0 24 24">
    <path fill-rule="evenodd" clip-rule="evenodd" d="M20 4H4C3.45 4 3 4.45 3 5V7C3 7.55 3.45 8 4 8H20C20.55 8 21 7.55 21 7V5C21 4.45 20.55 4 20 4ZM4 10H20C20.55 10 21 10.45 21 11V12C21 12.55 20.55 13 20 13H4C3.45 13 3 12.55 3 12V11C3 10.45 3.45 10 4 10ZM4 15H20C20.55 15 21 15.45 21 16C21 16.55 20.55 17 20 17H4C3.45 17 3 16.55 3 16C3 15.45 3.45 15 4 15ZM3.5 19H20.5C20.78 19 21 19.22 21 19.5C21 19.78 20.78 20 20.5 20H3.5C3.22 20 3 19.78 3 19.5C3 19.22 3.22 19 3.5 19Z" fill="#F29161" />
  </symbol>
  <symbol id="features-02" viewBox="0 0 24 24">
    <path fill-rule="evenodd" clip-rule="evenodd" d="M17 8H19.5C19.81 8 20.11 8.15 20.3 8.4L22.6 11.47C22.86 11.82 23 12.24 23 12.67V16C23 16.55 22.55 17 22 17H21C21 18.66 19.66 20 18 20C16.34 20 15 18.66 15 17H9C9 18.66 7.66 20 6 20C4.34 20 3 18.66 3 17C1.9 17 1 16.1 1 15V6C1 4.9 1.9 4 3 4H15C16.1 4 17 4.9 17 6V8ZM5 17C5 17.55 5.45 18 6 18C6.55 18 7 17.55 7 17C7 16.45 6.55 16 6 16C5.45 16 5 16.45 5 17ZM19.5 9.5L21.46 12H17V9.5H19.5ZM17 17C17 17.55 17.45 18 18 18C18.55 18 19 17.55 19 17C19 16.45 18.55 16 18 16C17.45 16 17 16.45 17 17Z" fill="#58BF56" />
  </symbol>
  <symbol id="features-03" viewBox="0 0 24 24">
    <path fill-rule="evenodd" clip-rule="evenodd" d="M2 12C2 6.48 6.48 2 12 2C17.52 2 22 6.48 22 12C22 17.52 17.52 22 12 22C6.48 22 2 17.52 2 12ZM5.7 12.7L9.29 16.29C9.68 16.68 10.32 16.68 10.7 16.29L18.29 8.7C18.68 8.31 18.68 7.68 18.29 7.29C17.9 6.9 17.27 6.9 16.88 7.29L10 14.17L7.11 11.29C6.72 10.9 6.09 10.9 5.7 11.29C5.51275 11.4768 5.40751 11.7305 5.40751 11.995C5.40751 12.2595 5.51275 12.5132 5.7 12.7Z" fill="#734CBF" />
  </symbol>
  <symbol id="features-04" viewBox="0 0 24 24">
    <path fill-rule="evenodd" clip-rule="evenodd" d="M9.5 16V8C9.5 6.9 10.39 6 11.5 6H20.5V5C20.5 3.9 19.6 3 18.5 3H4.5C3.39 3 2.5 3.9 2.5 5V19C2.5 20.1 3.39 21 4.5 21H18.5C19.6 21 20.5 20.1 20.5 19V18H11.5C10.39 18 9.5 17.1 9.5 16ZM12.5 8C11.95 8 11.5 8.45 11.5 9V15C11.5 15.55 11.95 16 12.5 16H21.5V8H12.5ZM14 12C14 12.83 14.67 13.5 15.5 13.5C16.33 13.5 17 12.83 17 12C17 11.17 16.33 10.5 15.5 10.5C14.67 10.5 14 11.17 14 12Z" fill="#58BF56" />
  </symbol>
  <symbol id="features-05" viewBox="0 0 24 24">
    <path fill-rule="evenodd" clip-rule="evenodd" d="M17.3326 3.73L22.2925 15.7C22.7125 16.71 22.2225 17.88 21.2026 18.3L13.8426 21.35C13.5926 21.45 13.3326 21.5 13.0725 21.5C12.2926 21.49 11.5526 21.03 11.2425 20.27L6.28255 8.3C6.17255 8.04 6.12255 7.77 6.13255 7.5C6.15255 6.73 6.61255 6.01 7.36255 5.7L14.7325 2.65C14.9925 2.54 15.2626 2.5 15.5226 2.5C16.2926 2.52 17.0226 2.98 17.3326 3.73ZM4.13255 19.96L2.79255 19.4C1.78255 18.98 1.29255 17.81 1.70255 16.79L4.13255 10.93V19.96ZM8.14255 8.5C7.59255 8.5 7.14255 8.05 7.14255 7.5C7.14255 6.95 7.59255 6.5 8.14255 6.5C8.69255 6.5 9.14255 6.95 9.14255 7.5C9.14255 8.05 8.69255 8.5 8.14255 8.5ZM8.14255 21.5C7.04255 21.5 6.14255 20.6 6.14255 19.5V13.16L9.59255 21.5H8.14255Z" fill="#F29161" />
  </symbol>
  <symbol id="features-06" viewBox="0 0 24 24">
    <path fill-rule="evenodd" clip-rule="evenodd" d="M10 13H4C3.45 13 3 12.55 3 12V4C3 3.45 3.45 3 4 3H10C10.55 3 11 3.45 11 4V12C11 12.55 10.55 13 10 13ZM10 21H4C3.45 21 3 20.55 3 20V16C3 15.45 3.45 15 4 15H10C10.55 15 11 15.45 11 16V20C11 20.55 10.55 21 10 21ZM14 21H20C20.55 21 21 20.55 21 20V12C21 11.45 20.55 11 20 11H14C13.45 11 13 11.45 13 12V20C13 20.55 13.45 21 14 21ZM13 8V4C13 3.45 13.45 3 14 3H20C20.55 3 21 3.45 21 4V8C21 8.55 20.55 9 20 9H14C13.45 9 13 8.55 13 8Z" fill="#58BF56" />
  </symbol>
  <symbol id="features-07" viewBox="0 0 24 24">
    <path fill-rule="evenodd" clip-rule="evenodd" d="M21 5V19C21 20.1 20.1 21 19 21H5C3.9 21 3 20.1 3 19V5C3 3.9 3.9 3 5 3H19C20.1 3 21 3.9 21 5ZM11 16.51L8.9 13.98C8.69 13.73 8.31 13.74 8.12 14L5.63 17.2C5.37 17.53 5.6 18.01 6.02 18.01H18.01C18.42 18.01 18.66 17.54 18.41 17.21L14.9 12.53C14.7 12.26 14.3 12.26 14.1 12.52L11 16.51Z" fill="#734CBF" />
  </symbol>
  <symbol id="features-08" viewBox="0 0 24 24">
    <path fill-rule="evenodd" clip-rule="evenodd" d="M3 6H21C22.1 6 23 6.9 23 8V16C23 17.1 22.1 18 21 18H3C1.9 18 1 17.1 1 16V8C1 6.9 1.9 6 3 6ZM4 16H20C20.55 16 21 15.55 21 15V9C21 8.45 20.55 8 20 8H19V11C19 11.55 18.55 12 18 12C17.45 12 17 11.55 17 11V8H15V11C15 11.55 14.55 12 14 12C13.45 12 13 11.55 13 11V8H11V11C11 11.55 10.55 12 10 12C9.45 12 9 11.55 9 11V8H7V11C7 11.55 6.55 12 6 12C5.45 12 5 11.55 5 11V8H4C3.45 8 3 8.45 3 9V15C3 15.55 3.45 16 4 16Z" fill="#58BF56" />
  </symbol>
  <symbol id="features-09" viewBox="0 0 24 24">
    <path fill-rule="evenodd" clip-rule="evenodd" d="M3 6C3 5.45 2.55 5 2 5C1.45 5 1 5.45 1 6V18C1 18.55 1.45 19 2 19C2.55 19 3 18.55 3 18V6ZM7 6C7 5.45 6.55 5 6 5C5.45 5 5 5.45 5 6V18C5 18.55 5.45 19 6 19C6.55 19 7 18.55 7 18V6ZM22 5H10C9.45 5 9 5.45 9 6V18C9 18.55 9.45 19 10 19H22C22.55 19 23 18.55 23 18V6C23 5.45 22.55 5 22 5ZM13.11 14.33L11.64 16.19C11.38 16.52 11.62 17 12.03 16.99H19.99C20.41 16.99 20.64 16.52 20.39 16.19L18.18 13.29C17.98 13.03 17.59 13.03 17.39 13.29L15.29 16L13.89 14.32C13.68 14.08 13.31 14.08 13.11 14.33Z" fill="#F29161" />
  </symbol>
  <symbol id="footer-01" viewBox="0 0 24 24">
    <g opacity="0.8">
      <path d="M20.6554 13.3437C21.4515 14.0946 22.2918 14.8012 23.0058 15.6279C23.3212 15.9952 23.6199 16.3743 23.8483 16.8006C24.172 17.4067 23.8788 18.0736 23.3163 18.1098L19.82 18.1083C18.9182 18.1806 18.1988 17.8298 17.5939 17.2341C17.1098 16.7578 16.6615 16.2507 16.1961 15.7583C16.0052 15.557 15.8055 15.3676 15.5669 15.2179C15.0896 14.9186 14.6753 15.0102 14.4025 15.4912C14.1247 15.9804 14.0617 16.522 14.0344 17.0672C13.997 17.8627 13.7481 18.0718 12.9211 18.1082C11.1537 18.1887 9.47629 17.9304 7.91805 17.069C6.54426 16.3096 5.47894 15.2375 4.5517 14.0238C2.74634 11.6604 1.36379 9.0635 0.121208 6.39381C-0.158487 5.79233 0.0460603 5.46945 0.732957 5.45803C1.87358 5.43662 3.01405 5.43814 4.15601 5.4565C4.61959 5.46305 4.92649 5.71995 5.10549 6.14308C5.7226 7.60912 6.47771 9.00392 7.42553 10.2968C7.67794 10.641 7.93532 10.9852 8.30184 11.2275C8.7073 11.4957 9.01602 11.4068 9.20677 10.9704C9.32781 10.6937 9.3808 10.3957 9.40808 10.0993C9.49845 9.07972 9.51035 8.06189 9.35186 7.04588C9.25455 6.41179 8.88488 6.0013 8.23 5.88131C7.89582 5.82014 7.94557 5.69999 8.10738 5.5157C8.38842 5.19785 8.65274 5 9.17964 5H13.1311C13.7532 5.11862 13.8913 5.38862 13.9765 5.99338L13.9799 10.2341C13.9731 10.4682 14.1009 11.1629 14.5374 11.3179C14.8867 11.4282 15.117 11.1582 15.3265 10.9442C16.2726 9.97406 16.9479 8.82755 17.5511 7.64035C17.8188 7.11833 18.049 6.5762 18.2721 6.03452C18.4373 5.63257 18.6967 5.43479 19.1653 5.44355L22.9684 5.44683C23.0811 5.44683 23.1952 5.44843 23.3044 5.46648C23.9453 5.572 24.1209 5.83834 23.923 6.44295C23.6111 7.39153 23.0043 8.18203 22.411 8.97619C21.7768 9.82405 21.0985 10.6429 20.4696 11.4958C19.8917 12.2746 19.9376 12.6672 20.6554 13.3437V13.3437Z" fill="#2D264D" />
    </g>
  </symbol>
  <symbol id="footer-02" viewBox="0 0 24 24">
    <g opacity="0.8">
      <path fill-rule="evenodd" clip-rule="evenodd" d="M16 3C18.7614 3 21 5.23858 21 8V16C21 18.7614 18.7614 21 16 21H8C5.23858 21 3 18.7614 3 16V8C3 5.23858 5.23858 3 8 3H16ZM7.00049 12.0003C7.00049 9.24342 9.24341 7.00049 12.0003 7.00049C14.7572 7.00049 17.0002 9.24338 17.0002 12.0003C17.0002 14.7572 14.7572 17.0002 12.0003 17.0002C9.24341 17.0002 7.00049 14.7572 7.00049 12.0003ZM12.0003 15.0002C10.3435 15.0002 9.00049 13.6571 9.00049 12.0003C9.00049 10.3435 10.3436 9.00049 12.0003 9.00049C13.6571 9.00049 15.0002 10.3435 15.0002 12.0003C15.0002 13.6571 13.6571 15.0002 12.0003 15.0002ZM17.9997 6.99908C17.9997 7.55086 17.552 7.99816 16.9998 7.99816C16.4476 7.99816 16 7.55086 16 6.99908C16 6.4473 16.4476 6 16.9998 6C17.552 6 17.9997 6.4473 17.9997 6.99908Z" fill="#2D264D" />
    </g>
  </symbol>
  <symbol id="footer-03" viewBox="0 0 24 24">
    <g opacity="0.8">
      <path fill-rule="evenodd" clip-rule="evenodd" d="M20.9108 19.9224C20.9108 20.4683 20.4682 20.911 19.9224 20.911H3.98854C3.44242 20.911 3 20.4683 3 19.9224V3.98854C3 3.44249 3.44249 3 3.98854 3H19.9224C20.4683 3 20.9108 3.44249 20.9108 3.98854V19.9224ZM15.358 13.9748V20.9109H12.5665V13.9748H10.2324V11.2717H12.5665V9.27818C12.5665 6.9648 13.9794 5.70508 16.0432 5.70508C17.0317 5.70508 17.8814 5.77868 18.1289 5.81162V8.22932L16.6975 8.22994C15.5753 8.22994 15.358 8.76327 15.358 9.54589V11.2717H18.0347L17.6861 13.9748H15.358Z" fill="#2D264D" />
    </g>
  </symbol>
  <symbol id="footer-04" viewBox="0 0 24 24">
    <g opacity="0.8">
      <path fill-rule="evenodd" clip-rule="evenodd" d="M1 9C1 6.23858 3.23858 4 6 4H18C20.7614 4 23 6.23858 23 9V15C23 17.7614 20.7614 20 18 20H6C3.23858 20 1 17.7614 1 15V9ZM9.3721 14.9777L15.8518 12.2884C16.0468 12.2075 16.0501 11.9671 15.8574 11.8821L9.3777 9.02474C9.20468 8.94844 9 9.05785 9 9.22666V14.7733C9 14.9398 9.19944 15.0493 9.3721 14.9777Z" fill="#2D264D" />
    </g>
  </symbol>
  <symbol id="footer-05" viewBox="0 0 24 24">
    <g opacity="0.8">
      <path d="M19 6.31268L20.4412 5.03876C20.4412 5.03876 19 4.73404 17.8916 5.19669C17.1328 4.43403 16.1021 4 15.0367 4C12.7876 4 10.9579 5.88194 10.9579 8.19514C10.9579 8.37733 10.9691 8.55851 10.9913 8.73716C8.20043 8.48513 5.60583 7.07422 3.82413 4.82627C3.76063 4.74614 3.66281 4.70296 3.56267 4.71122C3.46246 4.71929 3.37242 4.77741 3.3218 4.86674C2.96043 5.50452 2.76939 6.23396 2.76939 6.97613C2.76939 7.98698 3.12027 8.94608 3.7401 9.6955C3.55163 9.62836 3.36874 9.54446 3.19419 9.44479C3.10048 9.39114 2.98611 9.39196 2.89301 9.44687C2.79985 9.50178 2.74144 9.60277 2.73899 9.71315C2.73856 9.73175 2.73856 9.75034 2.73856 9.76919C2.73856 11.2781 3.5281 12.6365 4.73521 13.3769C4.6315 13.3663 4.52786 13.3508 4.4249 13.3306C4.31874 13.3097 4.20958 13.348 4.138 13.4313C4.06629 13.5145 4.04257 13.6305 4.0756 13.7364C4.52241 15.1712 5.67276 16.2265 7.06344 16.5483C5.91002 17.2913 4.59099 17.6806 3.20633 17.6806C2.9174 17.6806 2.62683 17.6631 2.34244 17.6285C2.20117 17.6112 2.06608 17.697 2.01797 17.8352C1.96986 17.9734 2.02085 18.1276 2.14104 18.2068C3.91986 19.3799 5.9767 20 8.08906 20C12.2417 20 14.8395 17.9859 16.2875 16.2962C18.0931 14.1893 19.1286 11.4006 19.1286 8.64519C19.1286 8.53007 19.1269 8.41383 19.1235 8.29796C19.8359 7.74592 21 6.31268 21 6.31268H19Z" fill="#2D264D" />
    </g>
  </symbol>
  <symbol id="header-01" viewBox="0 0 20 20">
    <g opacity="0.4">
      <path fill-rule="evenodd" clip-rule="evenodd" d="M17.5 15.8334L15.8333 15V4.16671C15.8333 3.25004 15.0833 2.50004 14.1667 2.50004H5.83333C5.83333 1.58337 6.575 0.833374 7.49167 0.833374H15.8333C16.75 0.833374 17.5 1.58337 17.5 2.50004V15.8334ZM4.16667 4.16671H12.5C13.4167 4.16671 14.1667 4.91671 14.1667 5.83337V19.1667L8.33333 16.6667L2.5 19.1667V5.83337C2.5 4.91671 3.25 4.16671 4.16667 4.16671Z" fill="#2D264D" />
    </g>
  </symbol>
  <symbol id="header-02" viewBox="0 0 20 20">
    <g opacity="0.4">
      <path fill-rule="evenodd" clip-rule="evenodd" d="M13.333 6.66671C13.333 8.50837 11.8413 10 9.99967 10C8.15801 10 6.66634 8.50837 6.66634 6.66671C6.66634 4.82504 8.15801 3.33337 9.99967 3.33337C11.8413 3.33337 13.333 4.82504 13.333 6.66671ZM3.33301 15C3.33301 12.7834 7.77467 11.6667 9.99967 11.6667C12.2247 11.6667 16.6663 12.7834 16.6663 15V15.8334C16.6663 16.2917 16.2913 16.6667 15.833 16.6667H4.16634C3.70801 16.6667 3.33301 16.2917 3.33301 15.8334V15Z" fill="#2D264D" />
    </g>
  </symbol>
  <symbol id="header-03" viewBox="0 0 20 20">
    <g opacity="0.4">
      <path fill-rule="evenodd" clip-rule="evenodd" d="M1.66309 2.49996C1.66309 2.95829 2.03809 3.33329 2.49642 3.33329H3.32975L6.32975 9.65829L5.20475 11.6916C4.59642 12.8083 5.39642 14.1666 6.66309 14.1666H15.8298C16.2881 14.1666 16.6631 13.7916 16.6631 13.3333C16.6631 12.875 16.2881 12.5 15.8298 12.5H6.66309L7.57975 10.8333H13.7881C14.4131 10.8333 14.9631 10.4916 15.2464 9.97496L18.2298 4.56663C18.5381 4.01663 18.1381 3.33329 17.5048 3.33329H5.17142L4.61309 2.14163C4.47975 1.84996 4.17975 1.66663 3.86309 1.66663H2.49642C2.03809 1.66663 1.66309 2.04163 1.66309 2.49996ZM6.66308 15C5.74642 15 5.00475 15.75 5.00475 16.6666C5.00475 17.5833 5.74642 18.3333 6.66308 18.3333C7.57975 18.3333 8.32975 17.5833 8.32975 16.6666C8.32975 15.75 7.57975 15 6.66308 15ZM13.3381 16.6666C13.3381 15.75 14.0798 15 14.9964 15C15.9131 15 16.6631 15.75 16.6631 16.6666C16.6631 17.5833 15.9131 18.3333 14.9964 18.3333C14.0798 18.3333 13.3381 17.5833 13.3381 16.6666Z" fill="#2D264D" />
    </g>
  </symbol>
  <symbol id="header-04" viewBox="0 0 24 24">
    <path fill-rule="evenodd" clip-rule="evenodd" d="M2 12C2 6.48 6.47 2 11.99 2C17.52 2 22 6.48 22 12C22 17.52 17.52 22 11.99 22C6.47 22 2 17.52 2 12ZM15.97 8H18.92C17.96 6.35 16.43 5.07 14.59 4.44C15.19 5.55 15.65 6.75 15.97 8ZM12 4.04C12.83 5.24 13.48 6.57 13.91 8H10.09C10.52 6.57 11.17 5.24 12 4.04ZM4 12C4 12.69 4.1 13.36 4.26 14H7.64C7.56 13.34 7.5 12.68 7.5 12C7.5 11.32 7.56 10.66 7.64 10H4.26C4.1 10.64 4 11.31 4 12ZM5.08 16H8.03C8.35 17.25 8.81 18.45 9.41 19.56C7.57 18.93 6.04 17.66 5.08 16ZM5.08 8H8.03C8.35 6.75 8.81 5.55 9.41 4.44C7.57 5.07 6.04 6.34 5.08 8ZM12 19.96C11.17 18.76 10.52 17.43 10.09 16H13.91C13.48 17.43 12.83 18.76 12 19.96ZM9.5 12C9.5 12.68 9.57 13.34 9.66 14H14.34C14.43 13.34 14.5 12.68 14.5 12C14.5 11.32 14.43 10.65 14.34 10H9.66C9.57 10.65 9.5 11.32 9.5 12ZM14.59 19.56C15.19 18.45 15.65 17.25 15.97 16H18.92C17.96 17.65 16.43 18.93 14.59 19.56ZM16.5 12C16.5 12.68 16.44 13.34 16.36 14H19.74C19.9 13.36 20 12.69 20 12C20 11.31 19.9 10.64 19.74 10H16.36C16.44 10.66 16.5 11.32 16.5 12Z" fill="#4CA745" />
  </symbol>
  <symbol id="header-05" viewBox="0 0 24 24">
    <path fill-rule="evenodd" clip-rule="evenodd" d="M5 9.26501C5 5.39501 8.13 2.26501 12 2.26501C15.87 2.26501 19 5.39501 19 9.26501C19 13.435 14.58 19.185 12.77 21.375C12.37 21.855 11.64 21.855 11.24 21.375C9.42 19.185 5 13.435 5 9.26501ZM9.5 9.26501C9.5 10.645 10.62 11.765 12 11.765C13.38 11.765 14.5 10.645 14.5 9.26501C14.5 7.88501 13.38 6.76501 12 6.76501C10.62 6.76501 9.5 7.88501 9.5 9.26501Z" fill="#F29161" />
  </symbol>
  <symbol id="header-06" viewBox="0 0 24 24">
    <path fill-rule="evenodd" clip-rule="evenodd" d="M15.9915 8.01318H13.9915C13.4415 8.01318 12.9915 7.56318 12.9915 7.01318C12.9915 6.46318 13.4415 6.01318 13.9915 6.01318H15.9915V4.01318C15.9915 3.46318 16.4415 3.01318 16.9915 3.01318C17.5415 3.01318 17.9915 3.46318 17.9915 4.01318V6.01318H19.9915C20.5415 6.01318 20.9915 6.46318 20.9915 7.01318C20.9915 7.56318 20.5415 8.01318 19.9915 8.01318H17.9915V10.0132C17.9915 10.5632 17.5415 11.0132 16.9915 11.0132C16.4415 11.0132 15.9915 10.5632 15.9915 10.0132V8.01318ZM16.6615 14.9932L19.2015 15.2832C20.2115 15.3932 20.9815 16.2532 20.9715 17.2532V18.9832C20.9715 20.1132 20.0315 21.0532 18.9015 20.9832C10.3715 20.4532 3.54149 13.6332 3.01149 5.09318C2.94149 3.96318 3.88149 3.02318 5.01149 3.02318H6.74149C7.75149 3.02318 8.61149 3.79318 8.72149 4.80318L9.01149 7.32318C9.08149 7.92318 8.87149 8.53318 8.44149 8.96318L6.59149 10.8132C8.03149 13.6532 10.3515 15.9632 13.1815 17.4032L15.0215 15.5632C15.4515 15.1332 16.0515 14.9232 16.6615 14.9932Z" fill="#4DA648" />
  </symbol>
  <symbol id="header-07" viewBox="0 0 24 24">
    <path fill-rule="evenodd" clip-rule="evenodd" d="M4.19 4.37625L11.19 1.26625C11.7 1.03625 12.3 1.03625 12.81 1.26625L19.81 4.37625C20.53 4.69625 21 5.41625 21 6.20625V10.9063C21 16.4563 17.16 21.6462 12 22.9063C6.84 21.6462 3 16.4563 3 10.9063V6.20625C3 5.41625 3.47 4.69625 4.19 4.37625ZM6.7 13.6062L9.29 16.1962C9.68 16.5862 10.32 16.5862 10.7 16.1962L17.29 9.60625C17.68 9.21625 17.68 8.58625 17.29 8.19625C16.9 7.80625 16.27 7.80625 15.88 8.19625L10 14.0763L8.11 12.1962C7.72 11.8062 7.09 11.8062 6.7 12.1962C6.51275 12.3831 6.40751 12.6367 6.40751 12.9012C6.40751 13.1658 6.51275 13.4194 6.7 13.6062Z" fill="#58BF56" />
  </symbol>
  <symbol id="header-08" viewBox="0 0 24 24">
    <path fill-rule="evenodd" clip-rule="evenodd" d="M12 2C6.48 2 2 6.48 2 12C2 17.52 6.48 22 12 22C17.52 22 22 17.52 22 12C22 6.48 17.52 2 12 2ZM16.24 7.76C15.07 6.59 13.54 6 12 6V12L7.76 16.24C10.1 18.58 13.9 18.58 16.25 16.24C18.59 13.9 18.59 10.1 16.24 7.76ZM4 12C4 16.42 7.58 20 12 20C16.42 20 20 16.42 20 12C20 7.58 16.42 4 12 4C7.58 4 4 7.58 4 12Z" fill="#58BF56" />
  </symbol>
  <symbol id="header-09" viewBox="0 0 24 24">
    <path fill-rule="evenodd" clip-rule="evenodd" d="M20 4H4C3.45 4 3 4.45 3 5V7C3 7.55 3.45 8 4 8H20C20.55 8 21 7.55 21 7V5C21 4.45 20.55 4 20 4ZM4 10H20C20.55 10 21 10.45 21 11V12C21 12.55 20.55 13 20 13H4C3.45 13 3 12.55 3 12V11C3 10.45 3.45 10 4 10ZM4 15H20C20.55 15 21 15.45 21 16C21 16.55 20.55 17 20 17H4C3.45 17 3 16.55 3 16C3 15.45 3.45 15 4 15ZM3.5 19H20.5C20.78 19 21 19.22 21 19.5C21 19.78 20.78 20 20.5 20H3.5C3.22 20 3 19.78 3 19.5C3 19.22 3.22 19 3.5 19Z" fill="#58BF56" />
  </symbol>
  <symbol id="header-10" viewBox="0 0 24 24">
    <path fill-rule="evenodd" clip-rule="evenodd" d="M9.5 16V8C9.5 6.9 10.39 6 11.5 6H20.5V5C20.5 3.9 19.6 3 18.5 3H4.5C3.39 3 2.5 3.9 2.5 5V19C2.5 20.1 3.39 21 4.5 21H18.5C19.6 21 20.5 20.1 20.5 19V18H11.5C10.39 18 9.5 17.1 9.5 16ZM12.5 8C11.95 8 11.5 8.45 11.5 9V15C11.5 15.55 11.95 16 12.5 16H21.5V8H12.5ZM14 12C14 12.83 14.67 13.5 15.5 13.5C16.33 13.5 17 12.83 17 12C17 11.17 16.33 10.5 15.5 10.5C14.67 10.5 14 11.17 14 12Z" fill="#58BF56" />
  </symbol>
  <symbol id="header-11" viewBox="0 0 24 24">
    <path fill-rule="evenodd" clip-rule="evenodd" d="M2 12C2 6.48 6.48 2 12 2C17.52 2 22 6.48 22 12C22 17.52 17.52 22 12 22C6.48 22 2 17.52 2 12ZM5.7 12.7L9.29 16.29C9.68 16.68 10.32 16.68 10.7 16.29L18.29 8.7C18.68 8.31 18.68 7.68 18.29 7.29C17.9 6.9 17.27 6.9 16.88 7.29L10 14.17L7.11 11.29C6.72 10.9 6.09 10.9 5.7 11.29C5.51275 11.4768 5.40751 11.7305 5.40751 11.995C5.40751 12.2595 5.51275 12.5132 5.7 12.7Z" fill="#58BF56" />
  </symbol>
</svg>
